{"glyphs":{"0":{"ha":764,"x_min":53,"x_max":711,"o":"m 161 271 l 568 697 l 600 582 l 193 157 l 161 271 m 382 -17 q 208 35 282 -17 q 93 187 133 88 q 53 428 53 286 q 93 669 53 568 q 208 825 133 771 q 382 879 282 879 q 556 825 482 879 q 671 669 631 771 q 711 428 711 568 q 671 187 711 286 q 556 35 631 88 q 382 -17 482 -17 m 382 118 q 474 154 438 118 q 528 260 510 190 q 546 428 546 329 q 528 595 546 526 q 474 701 510 664 q 382 738 438 738 q 291 701 328 738 q 236 595 254 664 q 218 428 218 526 q 236 260 218 329 q 291 154 254 190 q 382 118 328 118 z "},"1":{"ha":764,"x_min":106,"x_max":493,"o":"m 314 0 l 314 679 l 144 621 l 106 742 l 358 865 l 493 865 l 493 0 l 314 0 z "},"2":{"ha":764,"x_min":61,"x_max":686,"o":"m 85 128 q 242 266 172 206 q 363 374 311 326 q 448 462 414 421 q 499 542 482 503 q 515 625 515 581 q 508 672 515 651 q 483 705 500 692 q 442 725 467 718 q 382 732 417 732 q 319 726 349 732 q 265 706 290 719 q 219 672 240 693 q 202 644 206 654 q 200 624 199 635 l 190 613 l 181 621 l 61 714 q 146 804 96 768 q 256 860 196 840 q 383 879 317 879 q 535 848 468 879 q 644 761 603 817 q 685 628 685 706 q 669 528 685 575 q 624 438 653 482 q 553 349 596 394 q 457 254 511 304 q 339 144 403 204 l 622 144 q 656 147 646 144 q 674 157 665 150 l 686 157 l 686 144 l 686 0 l 85 0 l 85 128 z "},"3":{"ha":764,"x_min":63,"x_max":678,"o":"m 358 -17 q 191 9 271 -17 q 63 89 111 35 l 153 215 l 160 226 l 172 218 q 178 198 174 208 q 200 171 182 188 q 267 138 229 150 q 350 125 304 125 q 431 140 399 125 q 482 183 464 154 q 500 249 500 211 q 484 317 500 289 q 437 360 468 344 q 359 380 406 375 q 250 378 313 385 l 250 517 q 361 522 317 514 q 431 547 406 531 q 468 584 457 563 q 479 631 479 606 q 470 673 479 654 q 444 706 461 692 q 405 727 428 719 q 353 735 382 735 q 292 727 322 735 q 235 705 263 719 q 186 667 208 690 l 83 772 q 212 854 138 829 q 360 879 286 879 q 510 850 444 879 q 614 770 576 821 q 651 654 651 719 q 631 567 651 606 q 579 501 611 528 q 511 460 547 475 q 591 419 553 447 q 653 348 629 392 q 678 242 678 304 q 640 110 678 168 q 531 17 601 51 q 358 -17 460 -17 l 358 -17 z "},"4":{"ha":764,"x_min":58,"x_max":728,"o":"m 431 0 l 431 200 l 58 200 l 58 314 l 469 865 l 601 865 l 601 343 l 728 343 l 728 199 l 601 199 l 601 0 l 431 0 m 246 340 l 435 340 l 435 600 l 246 340 z "},"5":{"ha":764,"x_min":79,"x_max":707,"o":"m 385 -17 q 203 17 283 -17 q 79 121 124 51 l 203 222 l 213 231 l 221 221 q 226 201 221 210 q 244 174 231 192 q 307 138 272 150 q 383 126 342 126 q 445 138 417 126 q 494 169 474 149 q 527 216 515 189 q 539 275 539 243 q 528 340 539 311 q 497 390 517 369 q 447 422 476 411 q 379 433 417 433 q 322 427 350 433 q 269 406 293 421 q 226 369 246 392 l 118 399 l 151 865 l 665 865 l 665 724 l 301 724 l 289 546 q 330 563 307 556 q 378 573 353 569 q 424 576 403 576 q 538 558 486 576 q 628 505 590 540 q 686 415 665 469 q 707 290 707 361 q 666 126 707 196 q 553 20 625 57 q 385 -17 481 -17 l 385 -17 z "},"6":{"ha":764,"x_min":75,"x_max":697,"o":"m 397 -15 q 221 36 293 -15 q 112 181 149 88 q 75 397 75 274 q 122 658 75 550 q 249 823 168 765 q 435 881 331 881 q 564 860 497 881 q 679 794 631 840 l 588 686 l 579 676 l 568 685 q 558 702 567 696 q 531 719 550 708 q 506 728 519 725 q 479 732 493 731 q 451 733 465 733 q 402 728 428 733 q 352 710 376 724 q 306 671 328 696 q 271 606 285 646 q 251 506 257 565 q 300 542 272 528 q 360 565 328 557 q 424 574 393 574 q 533 556 483 574 q 619 504 582 539 q 676 416 656 469 q 697 290 697 363 q 658 133 697 203 q 552 24 619 64 q 397 -15 485 -15 l 397 -15 m 400 125 q 452 138 428 125 q 494 172 476 150 q 522 223 513 193 q 531 289 531 253 q 519 354 531 326 q 490 400 508 382 q 447 426 471 418 q 399 435 424 435 q 355 429 375 435 q 317 412 335 424 q 283 385 299 400 q 254 349 268 369 q 263 254 253 296 q 291 184 272 213 q 338 140 310 156 q 400 125 365 125 l 400 125 z "},"7":{"ha":764,"x_min":97,"x_max":681,"o":"m 188 0 q 279 243 232 125 q 376 478 326 361 q 479 715 426 596 l 97 715 l 97 865 l 681 865 l 681 767 q 594 579 636 672 q 514 392 553 486 q 439 200 475 297 q 369 0 403 103 l 188 0 z "},"8":{"ha":764,"x_min":63,"x_max":703,"o":"m 382 -15 q 214 15 286 -15 q 102 100 142 46 q 63 224 63 154 q 84 326 63 282 q 144 403 106 369 q 232 463 182 438 q 167 515 196 485 q 123 580 139 544 q 107 654 107 615 q 142 769 107 718 q 241 850 178 819 q 390 881 304 881 q 543 851 481 881 q 638 773 606 822 q 671 663 671 724 q 663 597 671 626 q 640 541 656 567 q 602 494 624 515 q 553 456 581 472 q 617 415 589 439 q 664 361 644 390 q 693 299 683 332 q 703 229 703 267 q 663 101 703 157 q 550 15 622 46 q 382 -15 478 -15 m 385 129 q 463 144 432 129 q 511 183 494 158 q 528 242 528 208 q 515 291 528 268 q 479 333 503 314 q 423 368 456 353 q 351 394 390 383 q 304 366 325 382 q 269 332 283 350 q 246 292 254 314 q 238 244 238 271 q 256 185 238 211 q 307 144 274 158 q 385 129 340 129 m 414 508 q 453 538 436 521 q 481 572 469 554 q 497 608 492 589 q 503 647 503 628 q 488 693 503 674 q 448 724 474 713 q 386 736 422 736 q 328 725 353 736 q 289 694 303 714 q 275 650 275 675 q 286 606 275 626 q 317 569 297 586 q 361 536 336 551 q 414 508 386 521 z "},"9":{"ha":764,"x_min":67,"x_max":688,"o":"m 342 -15 q 202 1 271 -15 q 76 61 133 18 l 167 193 l 175 204 l 186 196 q 195 177 189 186 q 219 154 201 168 q 274 134 246 140 q 335 128 303 128 q 412 147 378 128 q 470 206 446 167 q 508 299 494 244 q 522 424 522 354 q 509 612 525 543 q 460 710 493 681 q 376 739 428 739 q 317 728 343 739 q 273 695 292 717 q 244 644 254 674 q 235 575 235 614 q 245 516 235 542 q 275 474 256 490 q 321 449 294 457 q 376 440 347 440 q 446 448 414 440 q 504 475 478 456 q 550 528 531 494 l 569 379 q 516 338 549 356 q 444 310 483 319 q 360 301 404 301 q 245 320 299 301 q 151 376 192 339 q 89 465 111 414 q 67 582 67 517 q 91 700 67 646 q 158 794 115 754 q 259 857 201 835 q 382 879 317 879 q 553 833 485 879 q 654 697 621 788 q 688 471 688 606 q 647 206 688 314 q 530 41 607 97 q 342 -15 453 -15 l 342 -15 z "},"A":{"ha":764,"x_min":17,"x_max":747,"o":"m 568 189 l 183 189 l 211 314 l 538 314 l 568 189 m 382 561 l 197 0 l 17 0 l 336 869 l 429 869 l 747 0 l 564 0 l 382 561 z "},"Á":{"ha":764,"x_min":17,"x_max":747,"o":"m 568 189 l 183 189 l 211 314 l 538 314 l 568 189 m 382 561 l 197 0 l 17 0 l 336 869 l 429 869 l 747 0 l 564 0 l 382 561 z "},"Ă":{"ha":764,"x_min":17,"x_max":747,"o":"m 568 189 l 183 189 l 211 314 l 538 314 l 568 189 m 382 561 l 197 0 l 17 0 l 336 869 l 429 869 l 747 0 l 564 0 l 382 561 z "},"Ắ":{"ha":764,"x_min":17,"x_max":747,"o":"m 568 189 l 183 189 l 211 314 l 538 314 l 568 189 m 382 561 l 197 0 l 17 0 l 336 869 l 429 869 l 747 0 l 564 0 l 382 561 z "},"Ặ":{"ha":764,"x_min":17,"x_max":747,"o":"m 568 189 l 183 189 l 211 314 l 538 314 l 568 189 m 382 561 l 197 0 l 17 0 l 336 869 l 429 869 l 747 0 l 564 0 l 382 561 z "},"Ằ":{"ha":764,"x_min":17,"x_max":747,"o":"m 568 189 l 183 189 l 211 314 l 538 314 l 568 189 m 382 561 l 197 0 l 17 0 l 336 869 l 429 869 l 747 0 l 564 0 l 382 561 z "},"Ẳ":{"ha":764,"x_min":17,"x_max":747,"o":"m 568 189 l 183 189 l 211 314 l 538 314 l 568 189 m 382 561 l 197 0 l 17 0 l 336 869 l 429 869 l 747 0 l 564 0 l 382 561 m 543 1246 q 527 1195 543 1217 q 490 1156 511 1174 q 453 1122 469 1139 q 438 1085 438 1106 l 438 1074 l 325 1074 l 325 1111 q 340 1151 325 1133 q 376 1184 356 1169 q 410 1212 396 1199 q 425 1239 425 1225 q 410 1267 425 1257 q 375 1278 396 1278 q 323 1266 346 1278 q 285 1224 300 1254 l 224 1307 q 297 1357 253 1340 q 383 1372 340 1374 q 467 1356 431 1372 q 523 1311 503 1339 q 543 1246 543 1283 z "},"Ẵ":{"ha":764,"x_min":17,"x_max":747,"o":"m 568 189 l 183 189 l 211 314 l 538 314 l 568 189 m 382 561 l 197 0 l 17 0 l 336 869 l 429 869 l 747 0 l 564 0 l 382 561 m 493 1328 l 576 1283 q 515 1203 550 1229 q 442 1176 481 1176 q 386 1188 410 1176 q 344 1213 363 1199 q 309 1240 325 1228 q 275 1251 293 1251 q 238 1236 254 1251 q 210 1196 221 1221 l 125 1239 q 185 1318 146 1289 q 263 1347 224 1347 q 318 1336 293 1347 q 363 1310 343 1325 q 400 1285 383 1296 q 433 1274 417 1274 q 464 1285 450 1274 q 493 1328 478 1297 z "},"Â":{"ha":764,"x_min":17,"x_max":747,"o":"m 568 189 l 183 189 l 211 314 l 538 314 l 568 189 m 382 561 l 197 0 l 17 0 l 336 869 l 429 869 l 747 0 l 564 0 l 382 561 m 158 897 l 106 983 l 358 1115 l 411 1115 l 653 986 l 596 897 l 385 988 l 158 897 z "},"Ấ":{"ha":764,"x_min":17,"x_max":844,"o":"m 568 189 l 183 189 l 211 314 l 538 314 l 568 189 m 382 561 l 197 0 l 17 0 l 336 869 l 429 869 l 747 0 l 564 0 l 382 561 z "},"Ậ":{"ha":764,"x_min":17,"x_max":747,"o":"m 568 189 l 183 189 l 211 314 l 538 314 l 568 189 m 382 561 l 197 0 l 17 0 l 336 869 l 429 869 l 747 0 l 564 0 l 382 561 m 158 897 l 106 983 l 358 1115 l 411 1115 l 653 986 l 596 897 l 385 988 l 158 897 z "},"Ầ":{"ha":764,"x_min":17,"x_max":747,"o":"m 568 189 l 183 189 l 211 314 l 538 314 l 568 189 m 382 561 l 197 0 l 17 0 l 336 869 l 429 869 l 747 0 l 564 0 l 382 561 z "},"Ẩ":{"ha":764,"x_min":17,"x_max":764,"o":"m 568 189 l 183 189 l 211 314 l 538 314 l 568 189 m 382 561 l 197 0 l 17 0 l 336 869 l 429 869 l 747 0 l 564 0 l 382 561 z "},"Ẫ":{"ha":764,"x_min":17,"x_max":747,"o":"m 568 189 l 183 189 l 211 314 l 538 314 l 568 189 m 382 561 l 197 0 l 17 0 l 336 869 l 429 869 l 747 0 l 564 0 l 382 561 z "},"Ȁ":{"ha":764,"x_min":17,"x_max":747,"o":"m 568 189 l 183 189 l 211 314 l 538 314 l 568 189 m 382 561 l 197 0 l 17 0 l 336 869 l 429 869 l 747 0 l 564 0 l 382 561 z "},"Ä":{"ha":764,"x_min":17,"x_max":747,"o":"m 568 189 l 183 189 l 211 314 l 538 314 l 568 189 m 382 561 l 197 0 l 17 0 l 336 869 l 429 869 l 747 0 l 564 0 l 382 561 z "},"Ạ":{"ha":764,"x_min":17,"x_max":747,"o":"m 568 189 l 183 189 l 211 314 l 538 314 l 568 189 m 382 561 l 197 0 l 17 0 l 336 869 l 429 869 l 747 0 l 564 0 l 382 561 z "},"À":{"ha":764,"x_min":17,"x_max":747,"o":"m 568 189 l 183 189 l 211 314 l 538 314 l 568 189 m 382 561 l 197 0 l 17 0 l 336 869 l 429 869 l 747 0 l 564 0 l 382 561 z "},"Ả":{"ha":764,"x_min":17,"x_max":747,"o":"m 568 189 l 183 189 l 211 314 l 538 314 l 568 189 m 382 561 l 197 0 l 17 0 l 336 869 l 429 869 l 747 0 l 564 0 l 382 561 m 560 1113 q 544 1062 560 1083 q 507 1023 528 1040 q 470 989 486 1006 q 454 951 454 972 l 454 940 l 342 940 l 342 978 q 357 1018 342 1000 q 392 1051 372 1036 q 427 1078 413 1065 q 442 1106 442 1092 q 427 1134 442 1124 q 392 1144 413 1144 q 340 1133 363 1144 q 301 1090 317 1121 l 240 1174 q 313 1224 269 1207 q 400 1239 357 1240 q 483 1222 447 1239 q 540 1178 519 1206 q 560 1113 560 1150 z "},"Ȃ":{"ha":764,"x_min":17,"x_max":747,"o":"m 568 189 l 183 189 l 211 314 l 538 314 l 568 189 m 382 561 l 197 0 l 17 0 l 336 869 l 429 869 l 747 0 l 564 0 l 382 561 m 258 940 l 156 992 q 252 1103 193 1064 q 386 1142 311 1142 q 520 1103 461 1142 q 617 990 579 1064 l 514 939 q 457 1015 488 990 q 386 1040 426 1040 q 335 1030 360 1040 q 292 997 311 1019 q 258 940 274 975 z "},"Ā":{"ha":764,"x_min":17,"x_max":747,"o":"m 568 189 l 183 189 l 211 314 l 538 314 l 568 189 m 382 561 l 197 0 l 17 0 l 336 869 l 429 869 l 747 0 l 564 0 l 382 561 z "},"Ą":{"ha":764,"x_min":17,"x_max":747,"o":"m 568 189 l 183 189 l 211 314 l 538 314 l 568 189 m 382 561 l 197 0 l 17 0 l 336 869 l 429 869 l 747 0 l 564 0 l 382 561 m 703 -196 l 632 -333 q 515 -290 560 -315 q 448 -233 469 -264 q 426 -171 426 -203 q 451 -99 426 -136 q 524 -26 476 -62 q 639 43 572 10 l 707 0 q 651 -47 675 -25 q 615 -88 628 -69 q 603 -124 603 -107 q 628 -166 603 -149 q 703 -196 654 -183 z "},"Å":{"ha":764,"x_min":17,"x_max":747,"o":"m 568 189 l 183 189 l 211 314 l 538 314 l 568 189 m 382 561 l 197 0 l 17 0 l 336 869 l 429 869 l 747 0 l 564 0 l 382 561 z "},"Ǻ":{"ha":764,"x_min":17,"x_max":747,"o":"m 568 189 l 183 189 l 211 314 l 538 314 l 568 189 m 382 561 l 197 0 l 17 0 l 336 869 l 429 869 l 747 0 l 564 0 l 382 561 z "},"Ã":{"ha":764,"x_min":17,"x_max":747,"o":"m 568 189 l 183 189 l 211 314 l 538 314 l 568 189 m 382 561 l 197 0 l 17 0 l 336 869 l 429 869 l 747 0 l 564 0 l 382 561 z "},"Æ":{"ha":764,"x_min":-3,"x_max":761,"o":"m -3 0 l 290 865 l 761 865 l 761 724 l 524 724 l 524 521 l 724 521 l 724 379 l 524 379 l 524 142 l 758 142 l 758 0 l 357 0 l 357 214 l 238 214 l 172 0 l -3 0 m 274 358 l 358 358 l 368 674 l 367 674 l 274 358 z "},"Ǽ":{"ha":764,"x_min":-3,"x_max":761,"o":"m -3 0 l 290 865 l 761 865 l 761 724 l 524 724 l 524 521 l 724 521 l 724 379 l 524 379 l 524 142 l 758 142 l 758 0 l 357 0 l 357 214 l 238 214 l 172 0 l -3 0 m 274 358 l 358 358 l 368 674 l 367 674 l 274 358 z "},"B":{"ha":764,"x_min":54,"x_max":724,"o":"m 54 0 l 54 865 l 347 865 q 499 849 436 865 q 604 804 563 833 q 666 735 646 775 q 686 646 686 694 q 672 572 686 610 q 628 505 657 535 q 557 458 600 475 q 626 422 594 443 q 678 374 657 400 q 712 316 700 347 q 724 251 724 285 q 701 147 724 194 q 631 67 678 100 q 514 17 585 35 q 346 0 443 0 l 54 0 m 233 144 l 364 144 q 458 158 419 144 q 517 196 497 171 q 538 256 538 221 q 518 323 538 294 q 454 367 499 351 q 339 383 410 383 l 233 383 l 233 144 m 233 524 l 333 524 q 437 536 399 524 q 490 573 475 549 q 506 629 506 597 q 497 669 506 651 q 468 698 488 686 q 419 717 449 710 q 350 724 389 724 l 233 724 l 233 524 z "},"C":{"ha":764,"x_min":46,"x_max":735,"o":"m 425 -15 q 278 11 347 -15 q 156 92 208 38 q 75 230 104 146 q 46 428 46 314 q 69 605 46 529 q 131 733 92 681 q 219 818 169 786 q 324 865 269 850 q 432 879 378 879 q 617 835 540 879 q 735 711 693 792 l 631 622 l 621 615 l 613 625 q 609 647 613 636 q 593 675 606 657 q 523 722 561 710 q 443 735 485 735 q 363 716 401 735 q 292 660 324 697 q 242 566 260 622 q 224 435 224 510 q 239 306 224 363 q 282 210 254 249 q 348 151 310 171 q 431 131 386 131 q 499 139 468 131 q 558 168 531 147 q 606 222 585 189 l 725 129 q 598 17 671 49 q 425 -15 525 -15 l 425 -15 z "},"Ć":{"ha":764,"x_min":46,"x_max":735,"o":"m 425 -15 q 278 11 347 -15 q 156 92 208 38 q 75 230 104 146 q 46 428 46 314 q 69 605 46 529 q 131 733 92 681 q 219 818 169 786 q 324 865 269 850 q 432 879 378 879 q 617 835 540 879 q 735 711 693 792 l 631 622 l 621 615 l 613 625 q 609 647 613 636 q 593 675 606 657 q 523 722 561 710 q 443 735 485 735 q 363 716 401 735 q 292 660 324 697 q 242 566 260 622 q 224 435 224 510 q 239 306 224 363 q 282 210 254 249 q 348 151 310 171 q 431 131 386 131 q 499 139 468 131 q 558 168 531 147 q 606 222 585 189 l 725 129 q 598 17 671 49 q 425 -15 525 -15 l 425 -15 z "},"Č":{"ha":764,"x_min":46,"x_max":735,"o":"m 425 -15 q 278 11 347 -15 q 156 92 208 38 q 75 230 104 146 q 46 428 46 314 q 69 605 46 529 q 131 733 92 681 q 219 818 169 786 q 324 865 269 850 q 432 879 378 879 q 617 835 540 879 q 735 711 693 792 l 631 622 l 621 615 l 613 625 q 609 647 613 636 q 593 675 606 657 q 523 722 561 710 q 443 735 485 735 q 363 716 401 735 q 292 660 324 697 q 242 566 260 622 q 224 435 224 510 q 239 306 224 363 q 282 210 254 249 q 348 151 310 171 q 431 131 386 131 q 499 139 468 131 q 558 168 531 147 q 606 222 585 189 l 725 129 q 598 17 671 49 q 425 -15 525 -15 l 425 -15 z "},"Ç":{"ha":764,"x_min":46,"x_max":735,"o":"m 425 -15 q 278 11 347 -15 q 156 92 208 38 q 75 230 104 146 q 46 428 46 314 q 69 605 46 529 q 131 733 92 681 q 219 818 169 786 q 324 865 269 850 q 432 879 378 879 q 617 835 540 879 q 735 711 693 792 l 631 622 l 621 615 l 613 625 q 609 647 613 636 q 593 675 606 657 q 523 722 561 710 q 443 735 485 735 q 363 716 401 735 q 292 660 324 697 q 242 566 260 622 q 224 435 224 510 q 239 306 224 363 q 282 210 254 249 q 348 151 310 171 q 431 131 386 131 q 499 139 468 131 q 558 168 531 147 q 606 222 585 189 l 725 129 q 598 17 671 49 q 425 -15 525 -15 l 425 -15 z "},"Ḉ":{"ha":764,"x_min":46,"x_max":735,"o":"m 425 -15 q 278 11 347 -15 q 156 92 208 38 q 75 230 104 146 q 46 428 46 314 q 69 605 46 529 q 131 733 92 681 q 219 818 169 786 q 324 865 269 850 q 432 879 378 879 q 617 835 540 879 q 735 711 693 792 l 631 622 l 621 615 l 613 625 q 609 647 613 636 q 593 675 606 657 q 523 722 561 710 q 443 735 485 735 q 363 716 401 735 q 292 660 324 697 q 242 566 260 622 q 224 435 224 510 q 239 306 224 363 q 282 210 254 249 q 348 151 310 171 q 431 131 386 131 q 499 139 468 131 q 558 168 531 147 q 606 222 585 189 l 725 129 q 598 17 671 49 q 425 -15 525 -15 l 425 -15 z "},"Ĉ":{"ha":764,"x_min":46,"x_max":735,"o":"m 425 -15 q 278 11 347 -15 q 156 92 208 38 q 75 230 104 146 q 46 428 46 314 q 69 605 46 529 q 131 733 92 681 q 219 818 169 786 q 324 865 269 850 q 432 879 378 879 q 617 835 540 879 q 735 711 693 792 l 631 622 l 621 615 l 613 625 q 609 647 613 636 q 593 675 606 657 q 523 722 561 710 q 443 735 485 735 q 363 716 401 735 q 292 660 324 697 q 242 566 260 622 q 224 435 224 510 q 239 306 224 363 q 282 210 254 249 q 348 151 310 171 q 431 131 386 131 q 499 139 468 131 q 558 168 531 147 q 606 222 585 189 l 725 129 q 598 17 671 49 q 425 -15 525 -15 l 425 -15 m 189 897 l 136 983 l 389 1115 l 442 1115 l 683 986 l 626 897 l 415 988 l 189 897 z "},"Ċ":{"ha":764,"x_min":46,"x_max":735,"o":"m 425 -15 q 278 11 347 -15 q 156 92 208 38 q 75 230 104 146 q 46 428 46 314 q 69 605 46 529 q 131 733 92 681 q 219 818 169 786 q 324 865 269 850 q 432 879 378 879 q 617 835 540 879 q 735 711 693 792 l 631 622 l 621 615 l 613 625 q 609 647 613 636 q 593 675 606 657 q 523 722 561 710 q 443 735 485 735 q 363 716 401 735 q 292 660 324 697 q 242 566 260 622 q 224 435 224 510 q 239 306 224 363 q 282 210 254 249 q 348 151 310 171 q 431 131 386 131 q 499 139 468 131 q 558 168 531 147 q 606 222 585 189 l 725 129 q 598 17 671 49 q 425 -15 525 -15 l 425 -15 z "},"D":{"ha":764,"x_min":60,"x_max":726,"o":"m 60 0 l 60 865 l 310 865 q 452 851 394 865 q 551 810 510 838 q 622 744 592 783 q 678 657 654 706 q 714 551 701 608 q 726 426 726 494 q 699 249 725 328 q 621 115 674 171 q 487 30 568 60 q 292 0 406 0 l 60 0 m 236 140 l 288 140 q 444 176 386 140 q 528 277 503 213 q 551 425 553 342 q 529 582 551 515 q 453 687 507 649 q 304 725 399 725 l 236 725 l 236 140 z "},"Ð":{"ha":764,"x_min":22,"x_max":739,"o":"m 81 0 l 81 386 l 22 386 l 22 528 l 81 528 l 81 865 l 325 865 q 449 853 394 865 q 545 822 504 842 q 616 776 586 801 q 664 724 646 750 q 704 646 688 692 q 730 544 721 600 q 739 426 739 489 q 715 250 739 329 q 640 115 692 171 q 506 30 589 60 q 307 0 424 0 l 81 0 m 250 143 l 304 143 q 451 174 393 143 q 537 268 508 206 q 565 422 565 331 q 540 581 565 515 q 460 681 515 647 q 319 714 406 714 l 250 714 l 250 528 l 390 528 l 390 386 l 250 386 l 250 143 z "},"Ď":{"ha":764,"x_min":58,"x_max":726,"o":"m 60 0 l 60 865 l 310 865 q 452 851 394 865 q 551 810 510 838 q 622 744 592 783 q 678 657 654 706 q 714 551 701 608 q 726 426 726 494 q 699 249 725 328 q 621 115 674 171 q 487 30 568 60 q 292 0 406 0 l 60 0 m 236 140 l 288 140 q 444 176 386 140 q 528 277 503 213 q 551 425 553 342 q 529 582 551 515 q 453 687 507 649 q 304 725 399 725 l 236 725 l 236 140 z "},"Đ":{"ha":764,"x_min":22,"x_max":739,"o":"m 81 0 l 81 386 l 22 386 l 22 528 l 81 528 l 81 865 l 325 865 q 449 853 394 865 q 545 822 504 842 q 616 776 586 801 q 664 724 646 750 q 704 646 688 692 q 730 544 721 600 q 739 426 739 489 q 715 250 739 329 q 640 115 692 171 q 506 30 589 60 q 307 0 424 0 l 81 0 m 250 143 l 304 143 q 451 174 393 143 q 537 268 508 206 q 565 422 565 331 q 540 581 565 515 q 460 681 515 647 q 319 714 406 714 l 250 714 l 250 528 l 390 528 l 390 386 l 250 386 l 250 143 z "},"Ḍ":{"ha":764,"x_min":60,"x_max":726,"o":"m 60 0 l 60 865 l 310 865 q 452 851 394 865 q 551 810 510 838 q 622 744 592 783 q 678 657 654 706 q 714 551 701 608 q 726 426 726 494 q 699 249 725 328 q 621 115 674 171 q 487 30 568 60 q 292 0 406 0 l 60 0 m 236 140 l 288 140 q 444 176 386 140 q 528 277 503 213 q 551 425 553 342 q 529 582 551 515 q 453 687 507 649 q 304 725 399 725 l 236 725 l 236 140 z "},"Ḏ":{"ha":764,"x_min":60,"x_max":726,"o":"m 60 0 l 60 865 l 310 865 q 452 851 394 865 q 551 810 510 838 q 622 744 592 783 q 678 657 654 706 q 714 551 701 608 q 726 426 726 494 q 699 249 725 328 q 621 115 674 171 q 487 30 568 60 q 292 0 406 0 l 60 0 m 236 140 l 288 140 q 444 176 386 140 q 528 277 503 213 q 551 425 553 342 q 529 582 551 515 q 453 687 507 649 q 304 725 399 725 l 236 725 l 236 140 z "},"E":{"ha":764,"x_min":74,"x_max":703,"o":"m 74 0 l 74 865 l 703 865 l 703 722 l 249 722 l 249 522 l 624 522 l 624 379 l 249 379 l 249 143 l 700 143 l 700 0 l 74 0 z "},"É":{"ha":764,"x_min":74,"x_max":703,"o":"m 74 0 l 74 865 l 703 865 l 703 722 l 249 722 l 249 522 l 624 522 l 624 379 l 249 379 l 249 143 l 700 143 l 700 0 l 74 0 z "},"Ĕ":{"ha":764,"x_min":74,"x_max":703,"o":"m 74 0 l 74 865 l 703 865 l 703 722 l 249 722 l 249 522 l 624 522 l 624 379 l 249 379 l 249 143 l 700 143 l 700 0 l 74 0 z "},"Ě":{"ha":764,"x_min":74,"x_max":703,"o":"m 74 0 l 74 865 l 703 865 l 703 722 l 249 722 l 249 522 l 624 522 l 624 379 l 249 379 l 249 143 l 700 143 l 700 0 l 74 0 z "},"Ḝ":{"ha":764,"x_min":74,"x_max":703,"o":"m 74 0 l 74 865 l 703 865 l 703 722 l 249 722 l 249 522 l 624 522 l 624 379 l 249 379 l 249 143 l 700 143 l 700 0 l 74 0 z "},"Ê":{"ha":764,"x_min":74,"x_max":703,"o":"m 74 0 l 74 865 l 703 865 l 703 722 l 249 722 l 249 522 l 624 522 l 624 379 l 249 379 l 249 143 l 700 143 l 700 0 l 74 0 m 186 897 l 133 983 l 386 1115 l 439 1115 l 681 986 l 624 897 l 413 988 l 186 897 z "},"Ế":{"ha":764,"x_min":74,"x_max":871,"o":"m 74 0 l 74 865 l 703 865 l 703 722 l 249 722 l 249 522 l 624 522 l 624 379 l 249 379 l 249 143 l 700 143 l 700 0 l 74 0 z "},"Ệ":{"ha":764,"x_min":74,"x_max":703,"o":"m 74 0 l 74 865 l 703 865 l 703 722 l 249 722 l 249 522 l 624 522 l 624 379 l 249 379 l 249 143 l 700 143 l 700 0 l 74 0 m 186 897 l 133 983 l 386 1115 l 439 1115 l 681 986 l 624 897 l 413 988 l 186 897 z "},"Ề":{"ha":764,"x_min":74,"x_max":703,"o":"m 74 0 l 74 865 l 703 865 l 703 722 l 249 722 l 249 522 l 624 522 l 624 379 l 249 379 l 249 143 l 700 143 l 700 0 l 74 0 z "},"Ể":{"ha":764,"x_min":74,"x_max":792,"o":"m 74 0 l 74 865 l 703 865 l 703 722 l 249 722 l 249 522 l 624 522 l 624 379 l 249 379 l 249 143 l 700 143 l 700 0 l 74 0 z "},"Ễ":{"ha":764,"x_min":74,"x_max":703,"o":"m 74 0 l 74 865 l 703 865 l 703 722 l 249 722 l 249 522 l 624 522 l 624 379 l 249 379 l 249 143 l 700 143 l 700 0 l 74 0 z "},"Ȅ":{"ha":764,"x_min":74,"x_max":703,"o":"m 74 0 l 74 865 l 703 865 l 703 722 l 249 722 l 249 522 l 624 522 l 624 379 l 249 379 l 249 143 l 700 143 l 700 0 l 74 0 z "},"Ë":{"ha":764,"x_min":74,"x_max":703,"o":"m 74 0 l 74 865 l 703 865 l 703 722 l 249 722 l 249 522 l 624 522 l 624 379 l 249 379 l 249 143 l 700 143 l 700 0 l 74 0 z "},"Ė":{"ha":764,"x_min":74,"x_max":703,"o":"m 74 0 l 74 865 l 703 865 l 703 722 l 249 722 l 249 522 l 624 522 l 624 379 l 249 379 l 249 143 l 700 143 l 700 0 l 74 0 z "},"Ẹ":{"ha":764,"x_min":74,"x_max":703,"o":"m 74 0 l 74 865 l 703 865 l 703 722 l 249 722 l 249 522 l 624 522 l 624 379 l 249 379 l 249 143 l 700 143 l 700 0 l 74 0 z "},"È":{"ha":764,"x_min":74,"x_max":703,"o":"m 74 0 l 74 865 l 703 865 l 703 722 l 249 722 l 249 522 l 624 522 l 624 379 l 249 379 l 249 143 l 700 143 l 700 0 l 74 0 z "},"Ẻ":{"ha":764,"x_min":74,"x_max":703,"o":"m 74 0 l 74 865 l 703 865 l 703 722 l 249 722 l 249 522 l 624 522 l 624 379 l 249 379 l 249 143 l 700 143 l 700 0 l 74 0 m 588 1113 q 572 1062 588 1083 q 535 1023 556 1040 q 498 989 514 1006 q 482 951 482 972 l 482 940 l 369 940 l 369 978 q 385 1018 369 1000 q 420 1051 400 1036 q 455 1078 440 1065 q 469 1106 469 1092 q 455 1134 469 1124 q 419 1144 440 1144 q 367 1133 390 1144 q 329 1090 344 1121 l 268 1174 q 341 1224 297 1207 q 428 1239 385 1240 q 511 1222 475 1239 q 567 1178 547 1206 q 588 1113 588 1150 z "},"Ȇ":{"ha":764,"x_min":74,"x_max":703,"o":"m 74 0 l 74 865 l 703 865 l 703 722 l 249 722 l 249 522 l 624 522 l 624 379 l 249 379 l 249 143 l 700 143 l 700 0 l 74 0 m 285 940 l 182 992 q 278 1103 219 1064 q 413 1142 338 1142 q 547 1103 488 1142 q 643 990 606 1064 l 540 939 q 483 1015 514 990 q 413 1040 453 1040 q 362 1030 386 1040 q 319 997 338 1019 q 285 940 300 975 z "},"Ē":{"ha":764,"x_min":74,"x_max":703,"o":"m 74 0 l 74 865 l 703 865 l 703 722 l 249 722 l 249 522 l 624 522 l 624 379 l 249 379 l 249 143 l 700 143 l 700 0 l 74 0 z "},"Ḗ":{"ha":764,"x_min":74,"x_max":703,"o":"m 74 0 l 74 865 l 703 865 l 703 722 l 249 722 l 249 522 l 624 522 l 624 379 l 249 379 l 249 143 l 700 143 l 700 0 l 74 0 z "},"Ḕ":{"ha":764,"x_min":74,"x_max":703,"o":"m 74 0 l 74 865 l 703 865 l 703 722 l 249 722 l 249 522 l 624 522 l 624 379 l 249 379 l 249 143 l 700 143 l 700 0 l 74 0 z "},"Ę":{"ha":764,"x_min":74,"x_max":703,"o":"m 74 0 l 74 865 l 703 865 l 703 722 l 249 722 l 249 522 l 624 522 l 624 379 l 249 379 l 249 143 l 700 143 l 700 0 l 74 0 m 601 -196 l 531 -333 q 413 -290 458 -315 q 347 -233 368 -264 q 325 -171 325 -203 q 350 -99 325 -136 q 423 -26 375 -62 q 538 43 471 10 l 607 0 q 550 -47 574 -25 q 514 -88 526 -69 q 501 -124 501 -107 q 527 -166 501 -149 q 601 -196 553 -183 z "},"Ẽ":{"ha":764,"x_min":74,"x_max":703,"o":"m 74 0 l 74 865 l 703 865 l 703 722 l 249 722 l 249 522 l 624 522 l 624 379 l 249 379 l 249 143 l 700 143 l 700 0 l 74 0 z "},"Ƹ":{"ha":764,"x_min":68,"x_max":696,"o":"m 407 -28 q 230 8 306 -28 q 111 106 154 44 q 68 242 68 167 q 97 369 68 314 q 179 463 126 425 q 304 521 232 501 q 464 540 376 540 l 511 540 l 511 399 q 383 390 435 401 q 300 357 331 378 q 257 308 269 336 q 244 250 244 281 q 269 178 244 207 q 333 137 293 150 q 418 124 372 124 q 515 135 474 124 q 589 172 557 146 q 608 199 604 190 q 611 219 613 208 l 621 231 l 631 222 l 696 86 q 570 0 640 28 q 407 -28 500 -28 l 407 -28 m 97 739 l 97 865 l 638 865 l 638 714 l 328 714 l 511 540 l 361 490 l 97 739 z "},"F":{"ha":764,"x_min":96,"x_max":699,"o":"m 96 0 l 96 865 l 699 865 l 699 724 l 254 724 l 254 538 l 617 538 l 617 394 l 254 394 l 254 0 l 96 0 z "},"G":{"ha":764,"x_min":33,"x_max":724,"o":"m 421 -15 q 213 40 300 -15 q 81 197 126 96 q 35 431 35 297 q 60 618 33 540 q 128 747 86 696 q 223 828 171 799 q 326 869 275 857 q 419 881 376 881 q 540 863 482 881 q 644 811 597 844 q 721 728 692 778 l 622 622 l 613 613 l 603 622 q 599 644 601 633 q 581 672 596 654 q 542 703 564 690 q 490 725 519 717 q 424 733 461 733 q 359 724 390 733 q 301 692 328 714 q 254 637 275 671 q 222 555 233 603 q 211 443 211 507 q 226 303 211 363 q 269 206 242 244 q 336 147 297 167 q 421 128 375 128 q 457 130 439 128 q 494 136 475 132 q 529 149 513 140 q 563 168 546 157 l 563 310 l 407 310 l 407 456 l 724 456 l 724 75 q 578 5 656 25 q 421 -15 501 -15 l 421 -15 z "},"Ğ":{"ha":764,"x_min":33,"x_max":724,"o":"m 421 -15 q 213 40 300 -15 q 81 197 126 96 q 35 431 35 297 q 60 618 33 540 q 128 747 86 696 q 223 828 171 799 q 326 869 275 857 q 419 881 376 881 q 540 863 482 881 q 644 811 597 844 q 721 728 692 778 l 622 622 l 613 613 l 603 622 q 599 644 601 633 q 581 672 596 654 q 542 703 564 690 q 490 725 519 717 q 424 733 461 733 q 359 724 390 733 q 301 692 328 714 q 254 637 275 671 q 222 555 233 603 q 211 443 211 507 q 226 303 211 363 q 269 206 242 244 q 336 147 297 167 q 421 128 375 128 q 457 130 439 128 q 494 136 475 132 q 529 149 513 140 q 563 168 546 157 l 563 310 l 407 310 l 407 456 l 724 456 l 724 75 q 578 5 656 25 q 421 -15 501 -15 l 421 -15 z "},"Ǧ":{"ha":764,"x_min":33,"x_max":724,"o":"m 421 -15 q 213 40 300 -15 q 81 197 126 96 q 35 431 35 297 q 60 618 33 540 q 128 747 86 696 q 223 828 171 799 q 326 869 275 857 q 419 881 376 881 q 540 863 482 881 q 644 811 597 844 q 721 728 692 778 l 622 622 l 613 613 l 603 622 q 599 644 601 633 q 581 672 596 654 q 542 703 564 690 q 490 725 519 717 q 424 733 461 733 q 359 724 390 733 q 301 692 328 714 q 254 637 275 671 q 222 555 233 603 q 211 443 211 507 q 226 303 211 363 q 269 206 242 244 q 336 147 297 167 q 421 128 375 128 q 457 130 439 128 q 494 136 475 132 q 529 149 513 140 q 563 168 546 157 l 563 310 l 407 310 l 407 456 l 724 456 l 724 75 q 578 5 656 25 q 421 -15 501 -15 l 421 -15 z "},"Ĝ":{"ha":764,"x_min":33,"x_max":724,"o":"m 421 -15 q 213 40 300 -15 q 81 197 126 96 q 35 431 35 297 q 60 618 33 540 q 128 747 86 696 q 223 828 171 799 q 326 869 275 857 q 419 881 376 881 q 540 863 482 881 q 644 811 597 844 q 721 728 692 778 l 622 622 l 613 613 l 603 622 q 599 644 601 633 q 581 672 596 654 q 542 703 564 690 q 490 725 519 717 q 424 733 461 733 q 359 724 390 733 q 301 692 328 714 q 254 637 275 671 q 222 555 233 603 q 211 443 211 507 q 226 303 211 363 q 269 206 242 244 q 336 147 297 167 q 421 128 375 128 q 457 130 439 128 q 494 136 475 132 q 529 149 513 140 q 563 168 546 157 l 563 310 l 407 310 l 407 456 l 724 456 l 724 75 q 578 5 656 25 q 421 -15 501 -15 l 421 -15 m 188 897 l 135 983 l 388 1115 l 440 1115 l 682 986 l 625 897 l 414 988 l 188 897 z "},"Ģ":{"ha":764,"x_min":33,"x_max":724,"o":"m 421 -15 q 213 40 300 -15 q 81 197 126 96 q 35 431 35 297 q 60 618 33 540 q 128 747 86 696 q 223 828 171 799 q 326 869 275 857 q 419 881 376 881 q 540 863 482 881 q 644 811 597 844 q 721 728 692 778 l 622 622 l 613 613 l 603 622 q 599 644 601 633 q 581 672 596 654 q 542 703 564 690 q 490 725 519 717 q 424 733 461 733 q 359 724 390 733 q 301 692 328 714 q 254 637 275 671 q 222 555 233 603 q 211 443 211 507 q 226 303 211 363 q 269 206 242 244 q 336 147 297 167 q 421 128 375 128 q 457 130 439 128 q 494 136 475 132 q 529 149 513 140 q 563 168 546 157 l 563 310 l 407 310 l 407 456 l 724 456 l 724 75 q 578 5 656 25 q 421 -15 501 -15 l 421 -15 m 379 -415 l 292 -340 q 346 -278 328 -308 q 364 -228 364 -249 q 350 -192 364 -208 q 322 -156 336 -176 q 308 -104 308 -135 q 340 -35 308 -60 q 414 -11 372 -11 q 499 -48 468 -11 q 529 -143 529 -85 q 512 -229 529 -185 q 461 -320 494 -274 q 379 -415 428 -367 z "},"Ġ":{"ha":764,"x_min":33,"x_max":724,"o":"m 421 -15 q 213 40 300 -15 q 81 197 126 96 q 35 431 35 297 q 60 618 33 540 q 128 747 86 696 q 223 828 171 799 q 326 869 275 857 q 419 881 376 881 q 540 863 482 881 q 644 811 597 844 q 721 728 692 778 l 622 622 l 613 613 l 603 622 q 599 644 601 633 q 581 672 596 654 q 542 703 564 690 q 490 725 519 717 q 424 733 461 733 q 359 724 390 733 q 301 692 328 714 q 254 637 275 671 q 222 555 233 603 q 211 443 211 507 q 226 303 211 363 q 269 206 242 244 q 336 147 297 167 q 421 128 375 128 q 457 130 439 128 q 494 136 475 132 q 529 149 513 140 q 563 168 546 157 l 563 310 l 407 310 l 407 456 l 724 456 l 724 75 q 578 5 656 25 q 421 -15 501 -15 l 421 -15 z "},"Ḡ":{"ha":764,"x_min":33,"x_max":724,"o":"m 421 -15 q 213 40 300 -15 q 81 197 126 96 q 35 431 35 297 q 60 618 33 540 q 128 747 86 696 q 223 828 171 799 q 326 869 275 857 q 419 881 376 881 q 540 863 482 881 q 644 811 597 844 q 721 728 692 778 l 622 622 l 613 613 l 603 622 q 599 644 601 633 q 581 672 596 654 q 542 703 564 690 q 490 725 519 717 q 424 733 461 733 q 359 724 390 733 q 301 692 328 714 q 254 637 275 671 q 222 555 233 603 q 211 443 211 507 q 226 303 211 363 q 269 206 242 244 q 336 147 297 167 q 421 128 375 128 q 457 130 439 128 q 494 136 475 132 q 529 149 513 140 q 563 168 546 157 l 563 310 l 407 310 l 407 456 l 724 456 l 724 75 q 578 5 656 25 q 421 -15 501 -15 l 421 -15 z "},"H":{"ha":764,"x_min":51,"x_max":721,"o":"m 51 865 l 229 865 l 243 865 l 243 851 q 233 833 235 843 q 231 800 231 824 l 231 521 l 529 521 l 529 865 l 707 865 l 721 865 l 721 851 q 710 833 713 843 q 708 800 708 824 l 708 0 l 529 0 l 529 381 l 231 381 l 231 0 l 51 0 l 51 865 z "},"Ħ":{"ha":764,"x_min":8,"x_max":758,"o":"m 8 660 l 8 800 l 758 800 l 758 660 l 8 660 m 51 865 l 229 865 l 243 865 l 243 851 q 233 833 235 843 q 231 800 231 824 l 231 521 l 529 521 l 529 865 l 707 865 l 721 865 l 721 851 q 710 833 713 843 q 708 800 708 824 l 708 0 l 529 0 l 529 381 l 231 381 l 231 0 l 51 0 l 51 865 z "},"Ḫ":{"ha":764,"x_min":51,"x_max":721,"o":"m 51 865 l 229 865 l 243 865 l 243 851 q 233 833 235 843 q 231 800 231 824 l 231 521 l 529 521 l 529 865 l 707 865 l 721 865 l 721 851 q 710 833 713 843 q 708 800 708 824 l 708 0 l 529 0 l 529 381 l 231 381 l 231 0 l 51 0 l 51 865 z "},"Ĥ":{"ha":764,"x_min":51,"x_max":721,"o":"m 51 865 l 229 865 l 243 865 l 243 851 q 233 833 235 843 q 231 800 231 824 l 231 521 l 529 521 l 529 865 l 707 865 l 721 865 l 721 851 q 710 833 713 843 q 708 800 708 824 l 708 0 l 529 0 l 529 381 l 231 381 l 231 0 l 51 0 l 51 865 m 158 897 l 106 983 l 358 1115 l 411 1115 l 653 986 l 596 897 l 385 988 l 158 897 z "},"Ḥ":{"ha":764,"x_min":51,"x_max":721,"o":"m 51 865 l 229 865 l 243 865 l 243 851 q 233 833 235 843 q 231 800 231 824 l 231 521 l 529 521 l 529 865 l 707 865 l 721 865 l 721 851 q 710 833 713 843 q 708 800 708 824 l 708 0 l 529 0 l 529 381 l 231 381 l 231 0 l 51 0 l 51 865 z "},"I":{"ha":764,"x_min":103,"x_max":656,"o":"m 103 0 l 103 143 l 292 143 l 292 722 l 113 722 l 113 865 l 647 865 l 647 722 l 461 722 l 461 143 l 656 143 l 656 0 l 103 0 z "},"Í":{"ha":764,"x_min":103,"x_max":656,"o":"m 103 0 l 103 143 l 292 143 l 292 722 l 113 722 l 113 865 l 647 865 l 647 722 l 461 722 l 461 143 l 656 143 l 656 0 l 103 0 z "},"Ĭ":{"ha":764,"x_min":103,"x_max":656,"o":"m 103 0 l 103 143 l 292 143 l 292 722 l 113 722 l 113 865 l 647 865 l 647 722 l 461 722 l 461 143 l 656 143 l 656 0 l 103 0 z "},"Î":{"ha":764,"x_min":100,"x_max":656,"o":"m 103 0 l 103 143 l 292 143 l 292 722 l 113 722 l 113 865 l 647 865 l 647 722 l 461 722 l 461 143 l 656 143 l 656 0 l 103 0 m 151 897 l 99 983 l 351 1115 l 404 1115 l 646 986 l 589 897 l 378 988 l 151 897 z "},"Ȉ":{"ha":764,"x_min":103,"x_max":656,"o":"m 103 0 l 103 143 l 292 143 l 292 722 l 113 722 l 113 865 l 647 865 l 647 722 l 461 722 l 461 143 l 656 143 l 656 0 l 103 0 z "},"Ï":{"ha":764,"x_min":103,"x_max":656,"o":"m 103 0 l 103 143 l 292 143 l 292 722 l 113 722 l 113 865 l 647 865 l 647 722 l 461 722 l 461 143 l 656 143 l 656 0 l 103 0 z "},"Ḯ":{"ha":764,"x_min":103,"x_max":656,"o":"m 103 0 l 103 143 l 292 143 l 292 722 l 113 722 l 113 865 l 647 865 l 647 722 l 461 722 l 461 143 l 656 143 l 656 0 l 103 0 z "},"İ":{"ha":764,"x_min":103,"x_max":656,"o":"m 103 0 l 103 143 l 292 143 l 292 722 l 113 722 l 113 865 l 647 865 l 647 722 l 461 722 l 461 143 l 656 143 l 656 0 l 103 0 z "},"Ị":{"ha":764,"x_min":103,"x_max":656,"o":"m 103 0 l 103 143 l 292 143 l 292 722 l 113 722 l 113 865 l 647 865 l 647 722 l 461 722 l 461 143 l 656 143 l 656 0 l 103 0 z "},"Ì":{"ha":764,"x_min":103,"x_max":656,"o":"m 103 0 l 103 143 l 292 143 l 292 722 l 113 722 l 113 865 l 647 865 l 647 722 l 461 722 l 461 143 l 656 143 l 656 0 l 103 0 z "},"Ỉ":{"ha":764,"x_min":103,"x_max":656,"o":"m 103 0 l 103 143 l 292 143 l 292 722 l 113 722 l 113 865 l 647 865 l 647 722 l 461 722 l 461 143 l 656 143 l 656 0 l 103 0 m 553 1113 q 537 1062 553 1083 q 500 1023 521 1040 q 463 989 479 1006 q 447 951 447 972 l 447 940 l 335 940 l 335 978 q 350 1018 335 1000 q 385 1051 365 1036 q 420 1078 406 1065 q 435 1106 435 1092 q 420 1134 435 1124 q 385 1144 406 1144 q 333 1133 356 1144 q 294 1090 310 1121 l 233 1174 q 306 1224 263 1207 q 393 1239 350 1240 q 476 1222 440 1239 q 533 1178 513 1206 q 553 1113 553 1150 z "},"Ȋ":{"ha":764,"x_min":103,"x_max":656,"o":"m 103 0 l 103 143 l 292 143 l 292 722 l 113 722 l 113 865 l 647 865 l 647 722 l 461 722 l 461 143 l 656 143 l 656 0 l 103 0 m 251 940 l 149 992 q 245 1103 186 1064 q 379 1142 304 1142 q 513 1103 454 1142 q 610 990 572 1064 l 507 939 q 450 1015 481 990 q 379 1040 419 1040 q 328 1030 353 1040 q 285 997 304 1019 q 251 940 267 975 z "},"Ī":{"ha":764,"x_min":103,"x_max":656,"o":"m 103 0 l 103 143 l 292 143 l 292 722 l 113 722 l 113 865 l 647 865 l 647 722 l 461 722 l 461 143 l 656 143 l 656 0 l 103 0 z "},"Į":{"ha":764,"x_min":103,"x_max":669,"o":"m 103 0 l 103 143 l 292 143 l 292 722 l 113 722 l 113 865 l 647 865 l 647 722 l 461 722 l 461 143 l 656 143 l 656 0 l 103 0 m 665 -196 l 594 -333 q 477 -290 522 -315 q 410 -233 432 -264 q 389 -171 389 -203 q 414 -99 389 -136 q 487 -26 439 -62 q 601 43 535 10 l 669 0 q 614 -47 638 -25 q 578 -88 590 -69 q 565 -124 565 -107 q 591 -166 565 -149 q 665 -196 617 -183 z "},"Ĩ":{"ha":764,"x_min":103,"x_max":656,"o":"m 103 0 l 103 143 l 292 143 l 292 722 l 113 722 l 113 865 l 647 865 l 647 722 l 461 722 l 461 143 l 656 143 l 656 0 l 103 0 z "},"J":{"ha":764,"x_min":43,"x_max":717,"o":"m 294 -21 q 154 2 221 -21 q 43 75 88 25 l 128 215 l 136 226 l 147 219 q 155 198 150 208 q 176 171 160 188 q 224 149 199 157 q 278 140 250 140 q 343 160 317 140 q 383 217 369 179 q 397 311 397 256 l 397 722 l 222 722 l 222 865 l 717 865 l 717 722 l 575 722 l 575 296 q 553 156 576 215 q 489 57 529 96 q 398 -1 449 18 q 294 -21 347 -21 l 294 -21 z "},"Ĵ":{"ha":764,"x_min":43,"x_max":751,"o":"m 294 -21 q 154 2 221 -21 q 43 75 88 25 l 128 215 l 136 226 l 147 219 q 155 198 150 208 q 176 171 160 188 q 224 149 199 157 q 278 140 250 140 q 343 160 317 140 q 383 217 369 179 q 397 311 397 256 l 397 722 l 222 722 l 222 865 l 717 865 l 717 722 l 575 722 l 575 296 q 553 156 576 215 q 489 57 529 96 q 398 -1 449 18 q 294 -21 347 -21 l 294 -21 m 257 897 l 204 983 l 457 1115 l 510 1115 l 751 986 l 694 897 l 483 988 l 257 897 z "},"K":{"ha":764,"x_min":56,"x_max":757,"o":"m 293 381 l 229 304 l 229 0 l 56 0 l 56 865 l 228 865 l 240 865 l 240 851 q 231 833 233 843 q 229 800 229 824 l 229 521 l 536 874 q 565 869 547 871 q 599 867 582 868 q 633 865 617 865 q 657 865 649 865 l 740 865 l 419 504 l 757 1 l 554 -6 l 293 381 z "},"Ķ":{"ha":764,"x_min":56,"x_max":757,"o":"m 293 381 l 229 304 l 229 0 l 56 0 l 56 865 l 228 865 l 240 865 l 240 851 q 231 833 233 843 q 229 800 229 824 l 229 521 l 536 874 q 565 869 547 871 q 599 867 582 868 q 633 865 617 865 q 657 865 649 865 l 740 865 l 419 504 l 757 1 l 554 -6 l 293 381 m 340 -415 l 253 -340 q 307 -278 289 -308 q 325 -228 325 -249 q 311 -192 325 -208 q 283 -156 297 -176 q 269 -104 269 -135 q 301 -35 269 -60 q 375 -11 333 -11 q 460 -48 429 -11 q 490 -143 490 -85 q 473 -229 490 -185 q 422 -320 456 -274 q 340 -415 389 -367 z "},"Ƙ":{"ha":764,"x_min":60,"x_max":736,"o":"m 60 865 l 238 865 l 250 865 l 250 851 q 241 833 243 843 q 239 800 239 824 l 239 554 q 360 701 306 640 q 460 800 414 763 q 552 856 507 838 q 646 874 597 874 q 694 868 671 874 q 731 853 717 863 l 731 690 l 731 676 l 717 676 q 700 694 708 685 q 671 711 692 704 q 658 711 665 711 q 643 711 651 711 q 585 697 615 711 q 519 655 554 683 q 442 581 483 626 q 350 470 400 535 q 239 321 300 406 l 239 0 l 60 0 l 60 865 m 225 456 l 340 582 l 736 1 l 539 -8 l 225 456 z "},"L":{"ha":764,"x_min":82,"x_max":704,"o":"m 82 865 l 261 865 l 275 865 l 275 851 q 265 833 267 843 q 263 800 263 824 l 263 144 l 704 144 l 704 0 l 82 0 l 82 865 z "},"Ǉ":{"ha":764,"x_min":67,"x_max":708,"o":"m 432 -261 q 317 -238 369 -261 q 224 -171 264 -215 l 329 -49 q 340 -62 339 -57 q 340 -72 340 -67 q 349 -87 340 -76 q 369 -101 357 -93 q 397 -115 381 -110 q 433 -119 413 -119 q 488 -99 467 -119 q 520 -37 510 -79 q 531 68 531 4 l 531 725 l 379 725 l 379 865 l 708 865 l 708 726 l 708 726 l 708 46 q 686 -90 708 -32 q 626 -186 664 -149 q 538 -242 588 -224 q 432 -261 488 -261 m 67 0 l 67 865 l 258 865 q 255 853 258 856 q 249 844 251 850 q 246 817 246 839 l 246 140 l 432 140 l 432 0 l 67 0 z "},"Ĺ":{"ha":764,"x_min":82,"x_max":704,"o":"m 82 865 l 261 865 l 275 865 l 275 851 q 265 833 267 843 q 263 800 263 824 l 263 144 l 704 144 l 704 0 l 82 0 l 82 865 z "},"Ľ":{"ha":764,"x_min":82,"x_max":704,"o":"m 526 542 l 449 608 q 497 665 481 638 q 514 710 514 692 q 501 742 514 728 q 476 775 489 757 q 464 821 464 793 q 492 881 464 860 q 557 903 519 903 q 633 870 606 903 q 660 786 660 838 q 644 708 660 747 q 600 627 629 668 q 526 542 571 586 m 82 865 l 261 865 l 275 865 l 275 851 q 265 833 267 843 q 263 800 263 824 l 263 144 l 704 144 l 704 0 l 82 0 l 82 865 z "},"Ļ":{"ha":764,"x_min":82,"x_max":704,"o":"m 82 865 l 261 865 l 275 865 l 275 851 q 265 833 267 843 q 263 800 263 824 l 263 144 l 704 144 l 704 0 l 82 0 l 82 865 m 358 -415 l 271 -340 q 325 -278 307 -308 q 343 -228 343 -249 q 329 -192 343 -208 q 301 -156 315 -176 q 288 -104 288 -135 q 319 -35 288 -60 q 393 -11 351 -11 q 478 -48 447 -11 q 508 -143 508 -85 q 491 -229 508 -185 q 440 -320 474 -274 q 358 -415 407 -367 z "},"Ŀ":{"ha":764,"x_min":82,"x_max":704,"o":"m 82 865 l 261 865 l 275 865 l 275 851 q 265 833 267 843 q 263 800 263 824 l 263 144 l 704 144 l 704 0 l 82 0 l 82 865 m 499 349 q 417 382 450 349 q 383 464 383 415 q 417 544 383 511 q 497 578 450 578 q 579 544 546 578 q 613 464 613 511 q 579 383 613 417 q 499 349 546 349 z "},"Ḷ":{"ha":764,"x_min":82,"x_max":704,"o":"m 82 865 l 261 865 l 275 865 l 275 851 q 265 833 267 843 q 263 800 263 824 l 263 144 l 704 144 l 704 0 l 82 0 l 82 865 z "},"ǈ":{"ha":764,"x_min":92,"x_max":714,"o":"m 92 0 l 92 865 l 282 865 q 277 844 282 851 q 272 815 272 838 l 272 147 l 417 147 l 417 0 l 92 0 m 407 -247 q 344 -240 376 -247 q 285 -219 313 -233 q 235 -186 257 -206 l 336 -46 q 340 -55 340 -50 q 342 -65 340 -60 q 351 -77 344 -71 q 371 -90 357 -83 q 382 -94 376 -92 q 395 -99 388 -97 q 411 -100 403 -100 q 452 -92 433 -100 q 487 -69 471 -85 q 511 -29 503 -54 q 519 31 519 -4 l 519 510 l 365 510 l 365 653 l 697 653 l 697 36 q 675 -92 697 -39 q 613 -181 653 -146 q 522 -231 574 -215 q 407 -247 469 -247 m 604 746 q 528 776 560 746 q 497 849 497 807 q 527 923 497 894 q 604 951 557 951 q 681 921 647 951 q 714 849 714 890 q 681 776 714 807 q 604 746 647 746 z "},"Ḻ":{"ha":764,"x_min":82,"x_max":704,"o":"m 82 865 l 261 865 l 275 865 l 275 851 q 265 833 267 843 q 263 800 263 824 l 263 144 l 704 144 l 704 0 l 82 0 l 82 865 z "},"Ł":{"ha":764,"x_min":14,"x_max":715,"o":"m 101 0 l 101 297 l 14 274 l 14 419 l 101 444 l 101 865 l 292 865 q 294 862 294 864 q 294 857 294 860 q 290 846 294 851 q 282 817 285 840 l 282 501 l 492 561 q 522 572 508 567 q 549 589 536 578 l 549 425 l 282 347 l 282 144 l 715 144 l 715 0 l 101 0 z "},"M":{"ha":764,"x_min":46,"x_max":724,"o":"m 46 0 l 46 865 l 207 865 l 385 476 l 564 867 l 724 867 l 724 0 l 568 0 l 568 594 l 425 282 l 336 282 l 200 593 l 200 0 l 46 0 z "},"Ṃ":{"ha":764,"x_min":46,"x_max":724,"o":"m 46 0 l 46 865 l 207 865 l 385 476 l 564 867 l 724 867 l 724 0 l 568 0 l 568 594 l 425 282 l 336 282 l 200 593 l 200 0 l 46 0 z "},"N":{"ha":764,"x_min":53,"x_max":721,"o":"m 53 865 l 240 865 l 558 313 l 549 865 l 708 865 l 721 865 l 721 851 q 712 833 714 843 q 710 800 710 824 l 710 0 l 542 0 l 214 589 l 214 0 l 53 0 l 53 865 z "},"Ń":{"ha":764,"x_min":53,"x_max":721,"o":"m 53 865 l 240 865 l 558 313 l 549 865 l 708 865 l 721 865 l 721 851 q 712 833 714 843 q 710 800 710 824 l 710 0 l 542 0 l 214 589 l 214 0 l 53 0 l 53 865 z "},"Ň":{"ha":764,"x_min":53,"x_max":721,"o":"m 53 865 l 240 865 l 558 313 l 549 865 l 708 865 l 721 865 l 721 851 q 712 833 714 843 q 710 800 710 824 l 710 0 l 542 0 l 214 589 l 214 0 l 53 0 l 53 865 z "},"Ņ":{"ha":764,"x_min":53,"x_max":721,"o":"m 53 865 l 240 865 l 558 313 l 549 865 l 708 865 l 721 865 l 721 851 q 712 833 714 843 q 710 800 710 824 l 710 0 l 542 0 l 214 589 l 214 0 l 53 0 l 53 865 m 358 -415 l 271 -340 q 325 -278 307 -308 q 343 -228 343 -249 q 329 -192 343 -208 q 301 -156 315 -176 q 288 -104 288 -135 q 319 -35 288 -60 q 393 -11 351 -11 q 478 -48 447 -11 q 508 -143 508 -85 q 491 -229 508 -185 q 440 -320 474 -274 q 358 -415 407 -367 z "},"Ṅ":{"ha":764,"x_min":53,"x_max":721,"o":"m 53 865 l 240 865 l 558 313 l 549 865 l 708 865 l 721 865 l 721 851 q 712 833 714 843 q 710 800 710 824 l 710 0 l 542 0 l 214 589 l 214 0 l 53 0 l 53 865 z "},"Ṇ":{"ha":764,"x_min":53,"x_max":721,"o":"m 53 865 l 240 865 l 558 313 l 549 865 l 708 865 l 721 865 l 721 851 q 712 833 714 843 q 710 800 710 824 l 710 0 l 542 0 l 214 589 l 214 0 l 53 0 l 53 865 z "},"Ŋ":{"ha":764,"x_min":49,"x_max":725,"o":"m 561 865 l 725 865 q 720 832 725 843 q 715 801 715 821 l 715 0 q 683 -148 715 -85 q 594 -246 650 -211 q 472 -281 539 -281 q 383 -265 429 -281 q 290 -217 336 -249 l 369 -76 q 389 -83 382 -75 q 402 -99 396 -90 q 422 -115 408 -107 q 460 -122 435 -122 q 510 -108 489 -122 q 542 -68 531 -94 q 553 -4 553 -42 l 211 589 l 211 0 l 49 0 l 49 865 l 236 865 l 561 313 l 561 865 z "},"Ṉ":{"ha":764,"x_min":53,"x_max":721,"o":"m 53 865 l 240 865 l 558 313 l 549 865 l 708 865 l 721 865 l 721 851 q 712 833 714 843 q 710 800 710 824 l 710 0 l 542 0 l 214 589 l 214 0 l 53 0 l 53 865 z "},"Ñ":{"ha":764,"x_min":53,"x_max":721,"o":"m 53 865 l 240 865 l 558 313 l 549 865 l 708 865 l 721 865 l 721 851 q 712 833 714 843 q 710 800 710 824 l 710 0 l 542 0 l 214 589 l 214 0 l 53 0 l 53 865 z "},"O":{"ha":764,"x_min":28,"x_max":743,"o":"m 385 -17 q 188 36 268 -17 q 68 190 108 89 q 28 433 28 290 q 68 673 28 574 q 188 826 108 772 q 385 879 268 879 q 581 826 501 879 q 701 673 660 772 q 743 433 743 574 q 701 189 743 290 q 581 35 660 88 q 385 -17 501 -17 m 385 126 q 482 160 442 126 q 544 261 522 193 q 567 435 567 329 q 544 599 567 532 q 482 701 522 667 q 385 736 442 736 q 287 701 328 736 q 225 599 246 667 q 204 435 204 532 q 225 261 204 329 q 287 160 246 193 q 385 126 328 126 z "},"Ó":{"ha":764,"x_min":28,"x_max":743,"o":"m 385 -17 q 188 36 268 -17 q 68 190 108 89 q 28 433 28 290 q 68 673 28 574 q 188 826 108 772 q 385 879 268 879 q 581 826 501 879 q 701 673 660 772 q 743 433 743 574 q 701 189 743 290 q 581 35 660 88 q 385 -17 501 -17 m 385 126 q 482 160 442 126 q 544 261 522 193 q 567 435 567 329 q 544 599 567 532 q 482 701 522 667 q 385 736 442 736 q 287 701 328 736 q 225 599 246 667 q 204 435 204 532 q 225 261 204 329 q 287 160 246 193 q 385 126 328 126 z "},"Ŏ":{"ha":764,"x_min":28,"x_max":743,"o":"m 385 -17 q 188 36 268 -17 q 68 190 108 89 q 28 433 28 290 q 68 673 28 574 q 188 826 108 772 q 385 879 268 879 q 581 826 501 879 q 701 673 660 772 q 743 433 743 574 q 701 189 743 290 q 581 35 660 88 q 385 -17 501 -17 m 385 126 q 482 160 442 126 q 544 261 522 193 q 567 435 567 329 q 544 599 567 532 q 482 701 522 667 q 385 736 442 736 q 287 701 328 736 q 225 599 246 667 q 204 435 204 532 q 225 261 204 329 q 287 160 246 193 q 385 126 328 126 z "},"Ô":{"ha":764,"x_min":28,"x_max":743,"o":"m 385 -17 q 188 36 268 -17 q 68 190 108 89 q 28 433 28 290 q 68 673 28 574 q 188 826 108 772 q 385 879 268 879 q 581 826 501 879 q 701 673 660 772 q 743 433 743 574 q 701 189 743 290 q 581 35 660 88 q 385 -17 501 -17 m 385 126 q 482 160 442 126 q 544 261 522 193 q 567 435 567 329 q 544 599 567 532 q 482 701 522 667 q 385 736 442 736 q 287 701 328 736 q 225 599 246 667 q 204 435 204 532 q 225 261 204 329 q 287 160 246 193 q 385 126 328 126 m 160 903 l 107 989 l 360 1121 l 413 1121 l 654 992 l 597 903 l 386 993 l 160 903 z "},"Ố":{"ha":764,"x_min":28,"x_max":846,"o":"m 385 -17 q 188 36 268 -17 q 68 190 108 89 q 28 433 28 290 q 68 673 28 574 q 188 826 108 772 q 385 879 268 879 q 581 826 501 879 q 701 673 660 772 q 743 433 743 574 q 701 189 743 290 q 581 35 660 88 q 385 -17 501 -17 m 385 126 q 482 160 442 126 q 544 261 522 193 q 567 435 567 329 q 544 599 567 532 q 482 701 522 667 q 385 736 442 736 q 287 701 328 736 q 225 599 246 667 q 204 435 204 532 q 225 261 204 329 q 287 160 246 193 q 385 126 328 126 z "},"Ộ":{"ha":764,"x_min":28,"x_max":743,"o":"m 385 -17 q 188 36 268 -17 q 68 190 108 89 q 28 433 28 290 q 68 673 28 574 q 188 826 108 772 q 385 879 268 879 q 581 826 501 879 q 701 673 660 772 q 743 433 743 574 q 701 189 743 290 q 581 35 660 88 q 385 -17 501 -17 m 385 126 q 482 160 442 126 q 544 261 522 193 q 567 435 567 329 q 544 599 567 532 q 482 701 522 667 q 385 736 442 736 q 287 701 328 736 q 225 599 246 667 q 204 435 204 532 q 225 261 204 329 q 287 160 246 193 q 385 126 328 126 m 160 903 l 107 989 l 360 1121 l 413 1121 l 654 992 l 597 903 l 386 993 l 160 903 z "},"Ồ":{"ha":764,"x_min":28,"x_max":743,"o":"m 385 -17 q 188 36 268 -17 q 68 190 108 89 q 28 433 28 290 q 68 673 28 574 q 188 826 108 772 q 385 879 268 879 q 581 826 501 879 q 701 673 660 772 q 743 433 743 574 q 701 189 743 290 q 581 35 660 88 q 385 -17 501 -17 m 385 126 q 482 160 442 126 q 544 261 522 193 q 567 435 567 329 q 544 599 567 532 q 482 701 522 667 q 385 736 442 736 q 287 701 328 736 q 225 599 246 667 q 204 435 204 532 q 225 261 204 329 q 287 160 246 193 q 385 126 328 126 z "},"Ổ":{"ha":764,"x_min":28,"x_max":765,"o":"m 385 -17 q 188 36 268 -17 q 68 190 108 89 q 28 433 28 290 q 68 673 28 574 q 188 826 108 772 q 385 879 268 879 q 581 826 501 879 q 701 673 660 772 q 743 433 743 574 q 701 189 743 290 q 581 35 660 88 q 385 -17 501 -17 m 385 126 q 482 160 442 126 q 544 261 522 193 q 567 435 567 329 q 544 599 567 532 q 482 701 522 667 q 385 736 442 736 q 287 701 328 736 q 225 599 246 667 q 204 435 204 532 q 225 261 204 329 q 287 160 246 193 q 385 126 328 126 z "},"Ỗ":{"ha":764,"x_min":28,"x_max":743,"o":"m 385 -17 q 188 36 268 -17 q 68 190 108 89 q 28 433 28 290 q 68 673 28 574 q 188 826 108 772 q 385 879 268 879 q 581 826 501 879 q 701 673 660 772 q 743 433 743 574 q 701 189 743 290 q 581 35 660 88 q 385 -17 501 -17 m 385 126 q 482 160 442 126 q 544 261 522 193 q 567 435 567 329 q 544 599 567 532 q 482 701 522 667 q 385 736 442 736 q 287 701 328 736 q 225 599 246 667 q 204 435 204 532 q 225 261 204 329 q 287 160 246 193 q 385 126 328 126 z "},"Ȍ":{"ha":764,"x_min":28,"x_max":743,"o":"m 385 -17 q 188 36 268 -17 q 68 190 108 89 q 28 433 28 290 q 68 673 28 574 q 188 826 108 772 q 385 879 268 879 q 581 826 501 879 q 701 673 660 772 q 743 433 743 574 q 701 189 743 290 q 581 35 660 88 q 385 -17 501 -17 m 385 126 q 482 160 442 126 q 544 261 522 193 q 567 435 567 329 q 544 599 567 532 q 482 701 522 667 q 385 736 442 736 q 287 701 328 736 q 225 599 246 667 q 204 435 204 532 q 225 261 204 329 q 287 160 246 193 q 385 126 328 126 z "},"Ö":{"ha":764,"x_min":28,"x_max":743,"o":"m 385 -17 q 188 36 268 -17 q 68 190 108 89 q 28 433 28 290 q 68 673 28 574 q 188 826 108 772 q 385 879 268 879 q 581 826 501 879 q 701 673 660 772 q 743 433 743 574 q 701 189 743 290 q 581 35 660 88 q 385 -17 501 -17 m 385 126 q 482 160 442 126 q 544 261 522 193 q 567 435 567 329 q 544 599 567 532 q 482 701 522 667 q 385 736 442 736 q 287 701 328 736 q 225 599 246 667 q 204 435 204 532 q 225 261 204 329 q 287 160 246 193 q 385 126 328 126 z "},"Ȫ":{"ha":764,"x_min":28,"x_max":743,"o":"m 385 -17 q 188 36 268 -17 q 68 190 108 89 q 28 433 28 290 q 68 673 28 574 q 188 826 108 772 q 385 879 268 879 q 581 826 501 879 q 701 673 660 772 q 743 433 743 574 q 701 189 743 290 q 581 35 660 88 q 385 -17 501 -17 m 385 126 q 482 160 442 126 q 544 261 522 193 q 567 435 567 329 q 544 599 567 532 q 482 701 522 667 q 385 736 442 736 q 287 701 328 736 q 225 599 246 667 q 204 435 204 532 q 225 261 204 329 q 287 160 246 193 q 385 126 328 126 z "},"Ȱ":{"ha":764,"x_min":28,"x_max":743,"o":"m 385 -17 q 188 36 268 -17 q 68 190 108 89 q 28 433 28 290 q 68 673 28 574 q 188 826 108 772 q 385 879 268 879 q 581 826 501 879 q 701 673 660 772 q 743 433 743 574 q 701 189 743 290 q 581 35 660 88 q 385 -17 501 -17 m 385 126 q 482 160 442 126 q 544 261 522 193 q 567 435 567 329 q 544 599 567 532 q 482 701 522 667 q 385 736 442 736 q 287 701 328 736 q 225 599 246 667 q 204 435 204 532 q 225 261 204 329 q 287 160 246 193 q 385 126 328 126 z "},"Ọ":{"ha":764,"x_min":28,"x_max":743,"o":"m 385 -17 q 188 36 268 -17 q 68 190 108 89 q 28 433 28 290 q 68 673 28 574 q 188 826 108 772 q 385 879 268 879 q 581 826 501 879 q 701 673 660 772 q 743 433 743 574 q 701 189 743 290 q 581 35 660 88 q 385 -17 501 -17 m 385 126 q 482 160 442 126 q 544 261 522 193 q 567 435 567 329 q 544 599 567 532 q 482 701 522 667 q 385 736 442 736 q 287 701 328 736 q 225 599 246 667 q 204 435 204 532 q 225 261 204 329 q 287 160 246 193 q 385 126 328 126 z "},"Ò":{"ha":764,"x_min":28,"x_max":743,"o":"m 385 -17 q 188 36 268 -17 q 68 190 108 89 q 28 433 28 290 q 68 673 28 574 q 188 826 108 772 q 385 879 268 879 q 581 826 501 879 q 701 673 660 772 q 743 433 743 574 q 701 189 743 290 q 581 35 660 88 q 385 -17 501 -17 m 385 126 q 482 160 442 126 q 544 261 522 193 q 567 435 567 329 q 544 599 567 532 q 482 701 522 667 q 385 736 442 736 q 287 701 328 736 q 225 599 246 667 q 204 435 204 532 q 225 261 204 329 q 287 160 246 193 q 385 126 328 126 z "},"Ỏ":{"ha":764,"x_min":28,"x_max":743,"o":"m 385 -17 q 188 36 268 -17 q 68 190 108 89 q 28 433 28 290 q 68 673 28 574 q 188 826 108 772 q 385 879 268 879 q 581 826 501 879 q 701 673 660 772 q 743 433 743 574 q 701 189 743 290 q 581 35 660 88 q 385 -17 501 -17 m 385 126 q 482 160 442 126 q 544 261 522 193 q 567 435 567 329 q 544 599 567 532 q 482 701 522 667 q 385 736 442 736 q 287 701 328 736 q 225 599 246 667 q 204 435 204 532 q 225 261 204 329 q 287 160 246 193 q 385 126 328 126 m 561 1118 q 545 1067 561 1089 q 508 1028 529 1046 q 472 994 488 1011 q 456 957 456 978 l 456 946 l 343 946 l 343 983 q 358 1024 343 1006 q 394 1056 374 1042 q 428 1084 414 1071 q 443 1111 443 1097 q 428 1140 443 1129 q 393 1150 414 1150 q 341 1138 364 1150 q 303 1096 318 1126 l 242 1179 q 315 1229 271 1213 q 401 1244 358 1246 q 485 1228 449 1244 q 541 1183 521 1211 q 561 1118 561 1156 z "},"Ơ":{"ha":764,"x_min":28,"x_max":751,"o":"m 385 -17 q 188 36 268 -17 q 68 190 108 89 q 28 433 28 290 q 68 673 28 574 q 188 826 108 772 q 385 879 268 879 q 581 826 501 879 q 701 673 660 772 q 743 433 743 574 q 701 189 743 290 q 581 35 660 88 q 385 -17 501 -17 m 385 126 q 482 160 442 126 q 544 261 522 193 q 567 435 567 329 q 544 599 567 532 q 482 701 522 667 q 385 736 442 736 q 287 701 328 736 q 225 599 246 667 q 204 435 204 532 q 225 261 204 329 q 287 160 246 193 q 385 126 328 126 m 617 690 l 601 803 q 630 817 621 803 q 642 860 639 831 q 644 933 644 889 l 751 933 q 742 806 751 861 q 705 721 733 751 q 617 690 676 690 z "},"Ớ":{"ha":764,"x_min":28,"x_max":751,"o":"m 385 -17 q 188 36 268 -17 q 68 190 108 89 q 28 433 28 290 q 68 673 28 574 q 188 826 108 772 q 385 879 268 879 q 581 826 501 879 q 701 673 660 772 q 743 433 743 574 q 701 189 743 290 q 581 35 660 88 q 385 -17 501 -17 m 385 126 q 482 160 442 126 q 544 261 522 193 q 567 435 567 329 q 544 599 567 532 q 482 701 522 667 q 385 736 442 736 q 287 701 328 736 q 225 599 246 667 q 204 435 204 532 q 225 261 204 329 q 287 160 246 193 q 385 126 328 126 m 617 690 l 601 803 q 630 817 621 803 q 642 860 639 831 q 644 933 644 889 l 751 933 q 742 806 751 861 q 705 721 733 751 q 617 690 676 690 z "},"Ợ":{"ha":764,"x_min":28,"x_max":751,"o":"m 385 -17 q 188 36 268 -17 q 68 190 108 89 q 28 433 28 290 q 68 673 28 574 q 188 826 108 772 q 385 879 268 879 q 581 826 501 879 q 701 673 660 772 q 743 433 743 574 q 701 189 743 290 q 581 35 660 88 q 385 -17 501 -17 m 385 126 q 482 160 442 126 q 544 261 522 193 q 567 435 567 329 q 544 599 567 532 q 482 701 522 667 q 385 736 442 736 q 287 701 328 736 q 225 599 246 667 q 204 435 204 532 q 225 261 204 329 q 287 160 246 193 q 385 126 328 126 m 617 690 l 601 803 q 630 817 621 803 q 642 860 639 831 q 644 933 644 889 l 751 933 q 742 806 751 861 q 705 721 733 751 q 617 690 676 690 z "},"Ờ":{"ha":764,"x_min":28,"x_max":751,"o":"m 385 -17 q 188 36 268 -17 q 68 190 108 89 q 28 433 28 290 q 68 673 28 574 q 188 826 108 772 q 385 879 268 879 q 581 826 501 879 q 701 673 660 772 q 743 433 743 574 q 701 189 743 290 q 581 35 660 88 q 385 -17 501 -17 m 385 126 q 482 160 442 126 q 544 261 522 193 q 567 435 567 329 q 544 599 567 532 q 482 701 522 667 q 385 736 442 736 q 287 701 328 736 q 225 599 246 667 q 204 435 204 532 q 225 261 204 329 q 287 160 246 193 q 385 126 328 126 m 617 690 l 601 803 q 630 817 621 803 q 642 860 639 831 q 644 933 644 889 l 751 933 q 742 806 751 861 q 705 721 733 751 q 617 690 676 690 z "},"Ở":{"ha":764,"x_min":28,"x_max":751,"o":"m 385 -17 q 188 36 268 -17 q 68 190 108 89 q 28 433 28 290 q 68 673 28 574 q 188 826 108 772 q 385 879 268 879 q 581 826 501 879 q 701 673 660 772 q 743 433 743 574 q 701 189 743 290 q 581 35 660 88 q 385 -17 501 -17 m 385 126 q 482 160 442 126 q 544 261 522 193 q 567 435 567 329 q 544 599 567 532 q 482 701 522 667 q 385 736 442 736 q 287 701 328 736 q 225 599 246 667 q 204 435 204 532 q 225 261 204 329 q 287 160 246 193 q 385 126 328 126 m 617 690 l 601 803 q 630 817 621 803 q 642 860 639 831 q 644 933 644 889 l 751 933 q 742 806 751 861 q 705 721 733 751 q 617 690 676 690 m 561 1118 q 545 1067 561 1089 q 508 1028 529 1046 q 472 994 488 1011 q 456 957 456 978 l 456 946 l 343 946 l 343 983 q 358 1024 343 1006 q 394 1056 374 1042 q 428 1084 414 1071 q 443 1111 443 1097 q 428 1140 443 1129 q 393 1150 414 1150 q 341 1138 364 1150 q 303 1096 318 1126 l 242 1179 q 315 1229 271 1213 q 401 1244 358 1246 q 485 1228 449 1244 q 541 1183 521 1211 q 561 1118 561 1156 z "},"Ỡ":{"ha":764,"x_min":28,"x_max":751,"o":"m 385 -17 q 188 36 268 -17 q 68 190 108 89 q 28 433 28 290 q 68 673 28 574 q 188 826 108 772 q 385 879 268 879 q 581 826 501 879 q 701 673 660 772 q 743 433 743 574 q 701 189 743 290 q 581 35 660 88 q 385 -17 501 -17 m 385 126 q 482 160 442 126 q 544 261 522 193 q 567 435 567 329 q 544 599 567 532 q 482 701 522 667 q 385 736 442 736 q 287 701 328 736 q 225 599 246 667 q 204 435 204 532 q 225 261 204 329 q 287 160 246 193 q 385 126 328 126 m 617 690 l 601 803 q 630 817 621 803 q 642 860 639 831 q 644 933 644 889 l 751 933 q 742 806 751 861 q 705 721 733 751 q 617 690 676 690 z "},"Ő":{"ha":764,"x_min":28,"x_max":743,"o":"m 385 -17 q 188 36 268 -17 q 68 190 108 89 q 28 433 28 290 q 68 673 28 574 q 188 826 108 772 q 385 879 268 879 q 581 826 501 879 q 701 673 660 772 q 743 433 743 574 q 701 189 743 290 q 581 35 660 88 q 385 -17 501 -17 m 385 126 q 482 160 442 126 q 544 261 522 193 q 567 435 567 329 q 544 599 567 532 q 482 701 522 667 q 385 736 442 736 q 287 701 328 736 q 225 599 246 667 q 204 435 204 532 q 225 261 204 329 q 287 160 246 193 q 385 126 328 126 z "},"Ȏ":{"ha":764,"x_min":28,"x_max":743,"o":"m 385 -17 q 188 36 268 -17 q 68 190 108 89 q 28 433 28 290 q 68 673 28 574 q 188 826 108 772 q 385 879 268 879 q 581 826 501 879 q 701 673 660 772 q 743 433 743 574 q 701 189 743 290 q 581 35 660 88 q 385 -17 501 -17 m 385 126 q 482 160 442 126 q 544 261 522 193 q 567 435 567 329 q 544 599 567 532 q 482 701 522 667 q 385 736 442 736 q 287 701 328 736 q 225 599 246 667 q 204 435 204 532 q 225 261 204 329 q 287 160 246 193 q 385 126 328 126 m 258 944 l 156 996 q 252 1107 193 1068 q 386 1146 311 1146 q 520 1107 461 1146 q 617 994 579 1068 l 514 943 q 457 1019 488 994 q 386 1044 426 1044 q 335 1034 360 1044 q 292 1001 311 1024 q 258 944 274 979 z "},"Ō":{"ha":764,"x_min":28,"x_max":743,"o":"m 385 -17 q 188 36 268 -17 q 68 190 108 89 q 28 433 28 290 q 68 673 28 574 q 188 826 108 772 q 385 879 268 879 q 581 826 501 879 q 701 673 660 772 q 743 433 743 574 q 701 189 743 290 q 581 35 660 88 q 385 -17 501 -17 m 385 126 q 482 160 442 126 q 544 261 522 193 q 567 435 567 329 q 544 599 567 532 q 482 701 522 667 q 385 736 442 736 q 287 701 328 736 q 225 599 246 667 q 204 435 204 532 q 225 261 204 329 q 287 160 246 193 q 385 126 328 126 z "},"Ṓ":{"ha":764,"x_min":28,"x_max":743,"o":"m 385 -17 q 188 36 268 -17 q 68 190 108 89 q 28 433 28 290 q 68 673 28 574 q 188 826 108 772 q 385 879 268 879 q 581 826 501 879 q 701 673 660 772 q 743 433 743 574 q 701 189 743 290 q 581 35 660 88 q 385 -17 501 -17 m 385 126 q 482 160 442 126 q 544 261 522 193 q 567 435 567 329 q 544 599 567 532 q 482 701 522 667 q 385 736 442 736 q 287 701 328 736 q 225 599 246 667 q 204 435 204 532 q 225 261 204 329 q 287 160 246 193 q 385 126 328 126 z "},"Ṑ":{"ha":764,"x_min":28,"x_max":743,"o":"m 385 -17 q 188 36 268 -17 q 68 190 108 89 q 28 433 28 290 q 68 673 28 574 q 188 826 108 772 q 385 879 268 879 q 581 826 501 879 q 701 673 660 772 q 743 433 743 574 q 701 189 743 290 q 581 35 660 88 q 385 -17 501 -17 m 385 126 q 482 160 442 126 q 544 261 522 193 q 567 435 567 329 q 544 599 567 532 q 482 701 522 667 q 385 736 442 736 q 287 701 328 736 q 225 599 246 667 q 204 435 204 532 q 225 261 204 329 q 287 160 246 193 q 385 126 328 126 z "},"Ǫ":{"ha":764,"x_min":28,"x_max":743,"o":"m 385 -17 q 188 36 268 -17 q 68 190 108 89 q 28 433 28 290 q 68 673 28 574 q 188 826 108 772 q 385 879 268 879 q 581 826 501 879 q 701 673 660 772 q 743 433 743 574 q 701 189 743 290 q 581 35 660 88 q 385 -17 501 -17 m 385 126 q 482 160 442 126 q 544 261 522 193 q 567 435 567 329 q 544 599 567 532 q 482 701 522 667 q 385 736 442 736 q 287 701 328 736 q 225 599 246 667 q 204 435 204 532 q 225 261 204 329 q 287 160 246 193 q 385 126 328 126 m 550 -174 l 479 -311 q 362 -267 407 -293 q 295 -211 317 -242 q 274 -149 274 -181 q 299 -77 274 -114 q 372 -4 324 -40 q 486 65 419 32 l 554 22 q 499 -25 522 -3 q 463 -66 475 -47 q 450 -101 450 -85 q 476 -144 450 -126 q 550 -174 501 -161 z "},"Ø":{"ha":764,"x_min":28,"x_max":743,"o":"m 133 -82 l 47 -32 l 622 947 l 707 897 l 133 -82 m 385 -17 q 188 36 268 -17 q 68 190 108 89 q 28 433 28 290 q 68 673 28 574 q 188 826 108 772 q 385 879 268 879 q 581 826 501 879 q 701 673 660 772 q 743 433 743 574 q 701 189 743 290 q 581 35 660 88 q 385 -17 501 -17 m 385 126 q 482 160 442 126 q 544 261 522 193 q 567 435 567 329 q 544 599 567 532 q 482 701 522 667 q 385 736 442 736 q 287 701 328 736 q 225 599 246 667 q 204 435 204 532 q 225 261 204 329 q 287 160 246 193 q 385 126 328 126 z "},"Ǿ":{"ha":764,"x_min":28,"x_max":743,"o":"m 133 -82 l 47 -32 l 622 947 l 707 897 l 133 -82 m 385 -17 q 188 36 268 -17 q 68 190 108 89 q 28 433 28 290 q 68 673 28 574 q 188 826 108 772 q 385 879 268 879 q 581 826 501 879 q 701 673 660 772 q 743 433 743 574 q 701 189 743 290 q 581 35 660 88 q 385 -17 501 -17 m 385 126 q 482 160 442 126 q 544 261 522 193 q 567 435 567 329 q 544 599 567 532 q 482 701 522 667 q 385 736 442 736 q 287 701 328 736 q 225 599 246 667 q 204 435 204 532 q 225 261 204 329 q 287 160 246 193 q 385 126 328 126 z "},"Õ":{"ha":764,"x_min":28,"x_max":743,"o":"m 385 -17 q 188 36 268 -17 q 68 190 108 89 q 28 433 28 290 q 68 673 28 574 q 188 826 108 772 q 385 879 268 879 q 581 826 501 879 q 701 673 660 772 q 743 433 743 574 q 701 189 743 290 q 581 35 660 88 q 385 -17 501 -17 m 385 126 q 482 160 442 126 q 544 261 522 193 q 567 435 567 329 q 544 599 567 532 q 482 701 522 667 q 385 736 442 736 q 287 701 328 736 q 225 599 246 667 q 204 435 204 532 q 225 261 204 329 q 287 160 246 193 q 385 126 328 126 z "},"Ṍ":{"ha":764,"x_min":28,"x_max":743,"o":"m 385 -17 q 188 36 268 -17 q 68 190 108 89 q 28 433 28 290 q 68 673 28 574 q 188 826 108 772 q 385 879 268 879 q 581 826 501 879 q 701 673 660 772 q 743 433 743 574 q 701 189 743 290 q 581 35 660 88 q 385 -17 501 -17 m 385 126 q 482 160 442 126 q 544 261 522 193 q 567 435 567 329 q 544 599 567 532 q 482 701 522 667 q 385 736 442 736 q 287 701 328 736 q 225 599 246 667 q 204 435 204 532 q 225 261 204 329 q 287 160 246 193 q 385 126 328 126 z "},"Ṏ":{"ha":764,"x_min":28,"x_max":743,"o":"m 385 -17 q 188 36 268 -17 q 68 190 108 89 q 28 433 28 290 q 68 673 28 574 q 188 826 108 772 q 385 879 268 879 q 581 826 501 879 q 701 673 660 772 q 743 433 743 574 q 701 189 743 290 q 581 35 660 88 q 385 -17 501 -17 m 385 126 q 482 160 442 126 q 544 261 522 193 q 567 435 567 329 q 544 599 567 532 q 482 701 522 667 q 385 736 442 736 q 287 701 328 736 q 225 599 246 667 q 204 435 204 532 q 225 261 204 329 q 287 160 246 193 q 385 126 328 126 z "},"Ȭ":{"ha":764,"x_min":28,"x_max":743,"o":"m 385 -17 q 188 36 268 -17 q 68 190 108 89 q 28 433 28 290 q 68 673 28 574 q 188 826 108 772 q 385 879 268 879 q 581 826 501 879 q 701 673 660 772 q 743 433 743 574 q 701 189 743 290 q 581 35 660 88 q 385 -17 501 -17 m 385 126 q 482 160 442 126 q 544 261 522 193 q 567 435 567 329 q 544 599 567 532 q 482 701 522 667 q 385 736 442 736 q 287 701 328 736 q 225 599 246 667 q 204 435 204 532 q 225 261 204 329 q 287 160 246 193 q 385 126 328 126 m 526 1160 l 610 1115 q 549 1035 583 1061 q 475 1008 514 1008 q 419 1019 443 1008 q 377 1045 396 1031 q 342 1072 358 1060 q 308 1083 326 1083 q 271 1068 288 1083 q 243 1028 254 1053 l 158 1071 q 218 1150 179 1121 q 296 1179 257 1179 q 351 1168 326 1179 q 397 1142 376 1157 q 433 1117 417 1128 q 467 1106 450 1106 q 497 1117 483 1106 q 526 1160 511 1129 z "},"Œ":{"ha":764,"x_min":4,"x_max":754,"o":"m 269 -10 q 162 17 211 -10 q 77 98 113 43 q 23 236 42 153 q 4 433 4 319 q 36 679 4 581 q 130 828 68 778 q 276 878 192 878 q 320 870 297 878 q 363 850 343 863 l 363 867 l 754 867 l 754 725 l 521 725 l 521 521 l 718 521 l 718 381 l 521 381 l 521 140 l 751 140 l 751 0 l 361 0 l 361 18 q 316 -1 342 7 q 269 -10 290 -10 m 289 140 q 331 158 315 140 q 351 208 347 176 l 351 658 q 326 712 344 692 q 278 732 308 732 q 237 717 256 732 q 204 668 218 703 q 183 576 190 633 q 175 435 175 519 q 187 276 175 342 q 224 175 199 210 q 289 140 250 140 z "},"P":{"ha":764,"x_min":69,"x_max":722,"o":"m 69 0 l 69 865 l 403 865 q 583 831 513 865 q 688 738 654 796 q 722 608 722 679 q 702 508 722 554 q 643 428 682 463 q 546 375 604 394 q 411 356 488 356 l 251 356 l 251 0 l 69 0 m 251 501 l 399 501 q 475 515 443 501 q 524 552 507 528 q 540 608 540 576 q 523 665 540 642 q 475 701 506 689 q 400 714 444 714 l 251 714 l 251 501 z "},"Þ":{"ha":764,"x_min":72,"x_max":722,"o":"m 72 0 l 72 865 l 264 865 q 267 862 267 863 q 267 858 267 861 q 262 847 267 853 q 256 818 257 842 l 256 718 l 397 718 q 583 683 511 718 q 688 588 654 647 q 722 457 722 529 q 690 325 722 383 q 587 233 657 267 q 406 199 517 199 l 253 199 l 253 0 l 72 0 m 253 339 l 392 339 q 478 353 444 339 q 527 394 511 368 q 543 453 543 421 q 526 511 543 483 q 477 557 510 539 q 394 575 444 575 l 256 575 l 253 339 z "},"Q":{"ha":764,"x_min":28,"x_max":742,"o":"m 575 -203 q 452 -195 503 -204 q 369 -164 401 -186 q 320 -103 336 -142 q 301 -7 304 -65 q 156 69 217 11 q 61 219 94 126 q 28 433 28 311 q 55 635 28 550 q 130 774 82 719 q 243 854 178 828 q 385 881 308 881 q 528 853 463 881 q 642 770 594 825 q 716 631 690 715 q 740 433 742 547 q 721 253 740 331 q 667 124 701 176 q 583 39 632 71 q 472 -6 533 7 q 483 -39 475 -25 q 508 -60 492 -53 q 554 -67 525 -67 l 679 -60 l 675 -203 l 575 -203 m 388 128 q 456 145 424 128 q 513 199 489 163 q 551 292 538 235 q 565 426 565 349 q 552 567 565 508 q 514 664 539 626 q 457 719 489 701 q 386 738 425 738 q 310 718 343 738 q 253 660 276 699 q 216 569 229 622 q 203 444 203 515 q 226 268 203 339 q 290 163 249 197 q 388 128 332 128 z "},"R":{"ha":764,"x_min":65,"x_max":735,"o":"m 65 0 l 65 865 l 382 865 q 566 833 493 865 q 674 744 639 801 q 708 608 708 686 q 687 510 708 558 q 625 426 665 463 q 531 371 585 389 l 735 0 l 546 0 l 353 351 l 247 351 l 247 0 l 65 0 m 247 497 l 392 497 q 492 526 458 497 q 526 604 526 556 q 511 660 526 635 q 466 699 496 685 q 390 714 436 714 l 247 714 l 247 497 z "},"Ŕ":{"ha":764,"x_min":65,"x_max":735,"o":"m 65 0 l 65 865 l 382 865 q 566 833 493 865 q 674 744 639 801 q 708 608 708 686 q 687 510 708 558 q 625 426 665 463 q 531 371 585 389 l 735 0 l 546 0 l 353 351 l 247 351 l 247 0 l 65 0 m 247 497 l 392 497 q 492 526 458 497 q 526 604 526 556 q 511 660 526 635 q 466 699 496 685 q 390 714 436 714 l 247 714 l 247 497 z "},"Ř":{"ha":764,"x_min":65,"x_max":735,"o":"m 65 0 l 65 865 l 382 865 q 566 833 493 865 q 674 744 639 801 q 708 608 708 686 q 687 510 708 558 q 625 426 665 463 q 531 371 585 389 l 735 0 l 546 0 l 353 351 l 247 351 l 247 0 l 65 0 m 247 497 l 392 497 q 492 526 458 497 q 526 604 526 556 q 511 660 526 635 q 466 699 496 685 q 390 714 436 714 l 247 714 l 247 497 z "},"Ŗ":{"ha":764,"x_min":65,"x_max":735,"o":"m 65 0 l 65 865 l 382 865 q 566 833 493 865 q 674 744 639 801 q 708 608 708 686 q 687 510 708 558 q 625 426 665 463 q 531 371 585 389 l 735 0 l 546 0 l 353 351 l 247 351 l 247 0 l 65 0 m 247 497 l 392 497 q 492 526 458 497 q 526 604 526 556 q 511 660 526 635 q 466 699 496 685 q 390 714 436 714 l 247 714 l 247 497 m 358 -415 l 271 -340 q 325 -278 307 -308 q 343 -228 343 -249 q 329 -192 343 -208 q 301 -156 315 -176 q 288 -104 288 -135 q 319 -35 288 -60 q 393 -11 351 -11 q 478 -48 447 -11 q 508 -143 508 -85 q 491 -229 508 -185 q 440 -320 474 -274 q 358 -415 407 -367 z "},"Ȑ":{"ha":764,"x_min":65,"x_max":735,"o":"m 65 0 l 65 865 l 382 865 q 566 833 493 865 q 674 744 639 801 q 708 608 708 686 q 687 510 708 558 q 625 426 665 463 q 531 371 585 389 l 735 0 l 546 0 l 353 351 l 247 351 l 247 0 l 65 0 m 247 497 l 392 497 q 492 526 458 497 q 526 604 526 556 q 511 660 526 635 q 466 699 496 685 q 390 714 436 714 l 247 714 l 247 497 z "},"Ṛ":{"ha":764,"x_min":65,"x_max":735,"o":"m 65 0 l 65 865 l 382 865 q 566 833 493 865 q 674 744 639 801 q 708 608 708 686 q 687 510 708 558 q 625 426 665 463 q 531 371 585 389 l 735 0 l 546 0 l 353 351 l 247 351 l 247 0 l 65 0 m 247 497 l 392 497 q 492 526 458 497 q 526 604 526 556 q 511 660 526 635 q 466 699 496 685 q 390 714 436 714 l 247 714 l 247 497 z "},"Ȓ":{"ha":764,"x_min":65,"x_max":735,"o":"m 65 0 l 65 865 l 382 865 q 566 833 493 865 q 674 744 639 801 q 708 608 708 686 q 687 510 708 558 q 625 426 665 463 q 531 371 585 389 l 735 0 l 546 0 l 353 351 l 247 351 l 247 0 l 65 0 m 247 497 l 392 497 q 492 526 458 497 q 526 604 526 556 q 511 660 526 635 q 466 699 496 685 q 390 714 436 714 l 247 714 l 247 497 m 257 940 l 154 992 q 251 1103 192 1064 q 385 1142 310 1142 q 519 1103 460 1142 q 615 990 578 1064 l 513 939 q 456 1015 486 990 q 385 1040 425 1040 q 334 1030 358 1040 q 291 997 310 1019 q 257 940 272 975 z "},"Ṟ":{"ha":764,"x_min":65,"x_max":735,"o":"m 65 0 l 65 865 l 382 865 q 566 833 493 865 q 674 744 639 801 q 708 608 708 686 q 687 510 708 558 q 625 426 665 463 q 531 371 585 389 l 735 0 l 546 0 l 353 351 l 247 351 l 247 0 l 65 0 m 247 497 l 392 497 q 492 526 458 497 q 526 604 526 556 q 511 660 526 635 q 466 699 496 685 q 390 714 436 714 l 247 714 l 247 497 z "},"S":{"ha":764,"x_min":50,"x_max":710,"o":"m 369 -15 q 189 10 274 -15 q 50 88 104 35 l 136 229 l 143 240 l 156 233 q 163 213 158 224 q 186 188 168 203 q 272 147 225 163 q 374 131 319 131 q 439 136 410 131 q 489 153 468 142 q 522 185 510 165 q 533 229 533 204 q 528 259 533 244 q 513 287 524 274 q 480 314 501 300 q 426 345 458 328 q 347 381 394 363 q 191 461 249 422 q 109 547 133 500 q 85 656 85 593 q 124 772 85 721 q 234 851 164 822 q 390 881 304 881 q 504 868 451 881 q 602 831 557 856 q 685 768 647 806 l 581 651 l 572 640 l 561 650 q 556 672 560 661 q 538 697 553 682 q 473 728 507 719 q 394 736 439 736 q 340 730 364 736 q 297 713 315 724 q 270 690 279 703 q 261 660 261 676 q 265 633 261 646 q 281 608 269 621 q 314 582 292 596 q 371 552 336 568 q 457 515 406 536 q 578 454 529 483 q 656 393 628 425 q 697 324 685 361 q 710 238 710 286 q 674 115 710 174 q 563 21 639 57 q 369 -15 488 -15 l 369 -15 z "},"Ś":{"ha":764,"x_min":50,"x_max":710,"o":"m 369 -15 q 189 10 274 -15 q 50 88 104 35 l 136 229 l 143 240 l 156 233 q 163 213 158 224 q 186 188 168 203 q 272 147 225 163 q 374 131 319 131 q 439 136 410 131 q 489 153 468 142 q 522 185 510 165 q 533 229 533 204 q 528 259 533 244 q 513 287 524 274 q 480 314 501 300 q 426 345 458 328 q 347 381 394 363 q 191 461 249 422 q 109 547 133 500 q 85 656 85 593 q 124 772 85 721 q 234 851 164 822 q 390 881 304 881 q 504 868 451 881 q 602 831 557 856 q 685 768 647 806 l 581 651 l 572 640 l 561 650 q 556 672 560 661 q 538 697 553 682 q 473 728 507 719 q 394 736 439 736 q 340 730 364 736 q 297 713 315 724 q 270 690 279 703 q 261 660 261 676 q 265 633 261 646 q 281 608 269 621 q 314 582 292 596 q 371 552 336 568 q 457 515 406 536 q 578 454 529 483 q 656 393 628 425 q 697 324 685 361 q 710 238 710 286 q 674 115 710 174 q 563 21 639 57 q 369 -15 488 -15 l 369 -15 z "},"Ṥ":{"ha":764,"x_min":50,"x_max":710,"o":"m 369 -15 q 189 10 274 -15 q 50 88 104 35 l 136 229 l 143 240 l 156 233 q 163 213 158 224 q 186 188 168 203 q 272 147 225 163 q 374 131 319 131 q 439 136 410 131 q 489 153 468 142 q 522 185 510 165 q 533 229 533 204 q 528 259 533 244 q 513 287 524 274 q 480 314 501 300 q 426 345 458 328 q 347 381 394 363 q 191 461 249 422 q 109 547 133 500 q 85 656 85 593 q 124 772 85 721 q 234 851 164 822 q 390 881 304 881 q 504 868 451 881 q 602 831 557 856 q 685 768 647 806 l 581 651 l 572 640 l 561 650 q 556 672 560 661 q 538 697 553 682 q 473 728 507 719 q 394 736 439 736 q 340 730 364 736 q 297 713 315 724 q 270 690 279 703 q 261 660 261 676 q 265 633 261 646 q 281 608 269 621 q 314 582 292 596 q 371 552 336 568 q 457 515 406 536 q 578 454 529 483 q 656 393 628 425 q 697 324 685 361 q 710 238 710 286 q 674 115 710 174 q 563 21 639 57 q 369 -15 488 -15 l 369 -15 z "},"Š":{"ha":764,"x_min":50,"x_max":710,"o":"m 369 -15 q 189 10 274 -15 q 50 88 104 35 l 136 229 l 143 240 l 156 233 q 163 213 158 224 q 186 188 168 203 q 272 147 225 163 q 374 131 319 131 q 439 136 410 131 q 489 153 468 142 q 522 185 510 165 q 533 229 533 204 q 528 259 533 244 q 513 287 524 274 q 480 314 501 300 q 426 345 458 328 q 347 381 394 363 q 191 461 249 422 q 109 547 133 500 q 85 656 85 593 q 124 772 85 721 q 234 851 164 822 q 390 881 304 881 q 504 868 451 881 q 602 831 557 856 q 685 768 647 806 l 581 651 l 572 640 l 561 650 q 556 672 560 661 q 538 697 553 682 q 473 728 507 719 q 394 736 439 736 q 340 730 364 736 q 297 713 315 724 q 270 690 279 703 q 261 660 261 676 q 265 633 261 646 q 281 608 269 621 q 314 582 292 596 q 371 552 336 568 q 457 515 406 536 q 578 454 529 483 q 656 393 628 425 q 697 324 685 361 q 710 238 710 286 q 674 115 710 174 q 563 21 639 57 q 369 -15 488 -15 l 369 -15 z "},"Ṧ":{"ha":764,"x_min":50,"x_max":710,"o":"m 369 -15 q 189 10 274 -15 q 50 88 104 35 l 136 229 l 143 240 l 156 233 q 163 213 158 224 q 186 188 168 203 q 272 147 225 163 q 374 131 319 131 q 439 136 410 131 q 489 153 468 142 q 522 185 510 165 q 533 229 533 204 q 528 259 533 244 q 513 287 524 274 q 480 314 501 300 q 426 345 458 328 q 347 381 394 363 q 191 461 249 422 q 109 547 133 500 q 85 656 85 593 q 124 772 85 721 q 234 851 164 822 q 390 881 304 881 q 504 868 451 881 q 602 831 557 856 q 685 768 647 806 l 581 651 l 572 640 l 561 650 q 556 672 560 661 q 538 697 553 682 q 473 728 507 719 q 394 736 439 736 q 340 730 364 736 q 297 713 315 724 q 270 690 279 703 q 261 660 261 676 q 265 633 261 646 q 281 608 269 621 q 314 582 292 596 q 371 552 336 568 q 457 515 406 536 q 578 454 529 483 q 656 393 628 425 q 697 324 685 361 q 710 238 710 286 q 674 115 710 174 q 563 21 639 57 q 369 -15 488 -15 l 369 -15 z "},"Ş":{"ha":764,"x_min":50,"x_max":710,"o":"m 369 -15 q 189 10 274 -15 q 50 88 104 35 l 136 229 l 143 240 l 156 233 q 163 213 158 224 q 186 188 168 203 q 272 147 225 163 q 374 131 319 131 q 439 136 410 131 q 489 153 468 142 q 522 185 510 165 q 533 229 533 204 q 528 259 533 244 q 513 287 524 274 q 480 314 501 300 q 426 345 458 328 q 347 381 394 363 q 191 461 249 422 q 109 547 133 500 q 85 656 85 593 q 124 772 85 721 q 234 851 164 822 q 390 881 304 881 q 504 868 451 881 q 602 831 557 856 q 685 768 647 806 l 581 651 l 572 640 l 561 650 q 556 672 560 661 q 538 697 553 682 q 473 728 507 719 q 394 736 439 736 q 340 730 364 736 q 297 713 315 724 q 270 690 279 703 q 261 660 261 676 q 265 633 261 646 q 281 608 269 621 q 314 582 292 596 q 371 552 336 568 q 457 515 406 536 q 578 454 529 483 q 656 393 628 425 q 697 324 685 361 q 710 238 710 286 q 674 115 710 174 q 563 21 639 57 q 369 -15 488 -15 l 369 -15 z "},"Ŝ":{"ha":764,"x_min":50,"x_max":710,"o":"m 369 -15 q 189 10 274 -15 q 50 88 104 35 l 136 229 l 143 240 l 156 233 q 163 213 158 224 q 186 188 168 203 q 272 147 225 163 q 374 131 319 131 q 439 136 410 131 q 489 153 468 142 q 522 185 510 165 q 533 229 533 204 q 528 259 533 244 q 513 287 524 274 q 480 314 501 300 q 426 345 458 328 q 347 381 394 363 q 191 461 249 422 q 109 547 133 500 q 85 656 85 593 q 124 772 85 721 q 234 851 164 822 q 390 881 304 881 q 504 868 451 881 q 602 831 557 856 q 685 768 647 806 l 581 651 l 572 640 l 561 650 q 556 672 560 661 q 538 697 553 682 q 473 728 507 719 q 394 736 439 736 q 340 730 364 736 q 297 713 315 724 q 270 690 279 703 q 261 660 261 676 q 265 633 261 646 q 281 608 269 621 q 314 582 292 596 q 371 552 336 568 q 457 515 406 536 q 578 454 529 483 q 656 393 628 425 q 697 324 685 361 q 710 238 710 286 q 674 115 710 174 q 563 21 639 57 q 369 -15 488 -15 l 369 -15 m 164 897 l 111 983 l 364 1115 l 417 1115 l 658 986 l 601 897 l 390 988 l 164 897 z "},"Ș":{"ha":764,"x_min":50,"x_max":710,"o":"m 369 -15 q 189 10 274 -15 q 50 88 104 35 l 136 229 l 143 240 l 156 233 q 163 213 158 224 q 186 188 168 203 q 272 147 225 163 q 374 131 319 131 q 439 136 410 131 q 489 153 468 142 q 522 185 510 165 q 533 229 533 204 q 528 259 533 244 q 513 287 524 274 q 480 314 501 300 q 426 345 458 328 q 347 381 394 363 q 191 461 249 422 q 109 547 133 500 q 85 656 85 593 q 124 772 85 721 q 234 851 164 822 q 390 881 304 881 q 504 868 451 881 q 602 831 557 856 q 685 768 647 806 l 581 651 l 572 640 l 561 650 q 556 672 560 661 q 538 697 553 682 q 473 728 507 719 q 394 736 439 736 q 340 730 364 736 q 297 713 315 724 q 270 690 279 703 q 261 660 261 676 q 265 633 261 646 q 281 608 269 621 q 314 582 292 596 q 371 552 336 568 q 457 515 406 536 q 578 454 529 483 q 656 393 628 425 q 697 324 685 361 q 710 238 710 286 q 674 115 710 174 q 563 21 639 57 q 369 -15 488 -15 l 369 -15 m 364 -415 l 276 -340 q 331 -278 313 -308 q 349 -228 349 -249 q 335 -192 349 -208 q 307 -156 321 -176 q 293 -104 293 -135 q 325 -35 293 -60 q 399 -11 357 -11 q 483 -48 453 -11 q 514 -143 514 -85 q 497 -229 514 -185 q 446 -320 479 -274 q 364 -415 413 -367 z "},"Ṡ":{"ha":764,"x_min":50,"x_max":710,"o":"m 369 -15 q 189 10 274 -15 q 50 88 104 35 l 136 229 l 143 240 l 156 233 q 163 213 158 224 q 186 188 168 203 q 272 147 225 163 q 374 131 319 131 q 439 136 410 131 q 489 153 468 142 q 522 185 510 165 q 533 229 533 204 q 528 259 533 244 q 513 287 524 274 q 480 314 501 300 q 426 345 458 328 q 347 381 394 363 q 191 461 249 422 q 109 547 133 500 q 85 656 85 593 q 124 772 85 721 q 234 851 164 822 q 390 881 304 881 q 504 868 451 881 q 602 831 557 856 q 685 768 647 806 l 581 651 l 572 640 l 561 650 q 556 672 560 661 q 538 697 553 682 q 473 728 507 719 q 394 736 439 736 q 340 730 364 736 q 297 713 315 724 q 270 690 279 703 q 261 660 261 676 q 265 633 261 646 q 281 608 269 621 q 314 582 292 596 q 371 552 336 568 q 457 515 406 536 q 578 454 529 483 q 656 393 628 425 q 697 324 685 361 q 710 238 710 286 q 674 115 710 174 q 563 21 639 57 q 369 -15 488 -15 l 369 -15 z "},"Ṣ":{"ha":764,"x_min":50,"x_max":710,"o":"m 369 -15 q 189 10 274 -15 q 50 88 104 35 l 136 229 l 143 240 l 156 233 q 163 213 158 224 q 186 188 168 203 q 272 147 225 163 q 374 131 319 131 q 439 136 410 131 q 489 153 468 142 q 522 185 510 165 q 533 229 533 204 q 528 259 533 244 q 513 287 524 274 q 480 314 501 300 q 426 345 458 328 q 347 381 394 363 q 191 461 249 422 q 109 547 133 500 q 85 656 85 593 q 124 772 85 721 q 234 851 164 822 q 390 881 304 881 q 504 868 451 881 q 602 831 557 856 q 685 768 647 806 l 581 651 l 572 640 l 561 650 q 556 672 560 661 q 538 697 553 682 q 473 728 507 719 q 394 736 439 736 q 340 730 364 736 q 297 713 315 724 q 270 690 279 703 q 261 660 261 676 q 265 633 261 646 q 281 608 269 621 q 314 582 292 596 q 371 552 336 568 q 457 515 406 536 q 578 454 529 483 q 656 393 628 425 q 697 324 685 361 q 710 238 710 286 q 674 115 710 174 q 563 21 639 57 q 369 -15 488 -15 l 369 -15 z "},"Ṩ":{"ha":764,"x_min":50,"x_max":710,"o":"m 369 -15 q 189 10 274 -15 q 50 88 104 35 l 136 229 l 143 240 l 156 233 q 163 213 158 224 q 186 188 168 203 q 272 147 225 163 q 374 131 319 131 q 439 136 410 131 q 489 153 468 142 q 522 185 510 165 q 533 229 533 204 q 528 259 533 244 q 513 287 524 274 q 480 314 501 300 q 426 345 458 328 q 347 381 394 363 q 191 461 249 422 q 109 547 133 500 q 85 656 85 593 q 124 772 85 721 q 234 851 164 822 q 390 881 304 881 q 504 868 451 881 q 602 831 557 856 q 685 768 647 806 l 581 651 l 572 640 l 561 650 q 556 672 560 661 q 538 697 553 682 q 473 728 507 719 q 394 736 439 736 q 340 730 364 736 q 297 713 315 724 q 270 690 279 703 q 261 660 261 676 q 265 633 261 646 q 281 608 269 621 q 314 582 292 596 q 371 552 336 568 q 457 515 406 536 q 578 454 529 483 q 656 393 628 425 q 697 324 685 361 q 710 238 710 286 q 674 115 710 174 q 563 21 639 57 q 369 -15 488 -15 l 369 -15 z "},"ẞ":{"ha":764,"x_min":60,"x_max":717,"o":"m 446 -19 q 356 -7 397 -19 q 285 24 315 6 l 344 157 q 369 141 356 147 q 396 131 382 135 q 425 128 410 128 q 469 138 449 128 q 507 165 490 147 q 533 207 524 183 q 542 258 542 231 q 524 331 542 297 q 466 387 506 365 q 363 408 426 408 l 317 408 l 317 546 l 482 689 q 467 745 479 722 q 431 781 454 768 q 372 794 408 794 q 322 784 346 794 q 280 753 299 774 q 250 702 261 732 q 239 633 239 672 l 239 0 l 60 0 l 60 614 q 84 757 60 696 q 151 857 108 818 q 249 915 193 896 q 368 935 304 935 q 522 899 458 935 q 619 801 586 863 q 651 664 651 739 l 401 446 l 368 546 q 563 506 486 546 q 678 400 639 467 q 717 254 717 333 q 697 144 717 193 q 643 58 678 94 q 558 1 608 21 q 446 -19 508 -19 z "},"Ə":{"ha":764,"x_min":28,"x_max":743,"o":"m 385 -17 q 188 36 268 -17 q 68 190 108 89 q 28 433 28 290 q 68 673 28 574 q 188 826 108 772 q 385 879 268 879 q 581 826 501 879 q 701 673 660 772 q 743 433 743 574 q 701 189 743 290 q 581 35 660 88 q 385 -17 501 -17 m 385 126 q 482 160 442 126 q 544 261 522 193 q 567 435 567 329 q 544 599 567 532 q 482 701 522 667 q 385 736 442 736 q 287 701 328 736 q 225 599 246 667 q 204 435 204 532 q 225 261 204 329 q 287 160 246 193 q 385 126 328 126 z "},"T":{"ha":764,"x_min":32,"x_max":731,"o":"m 289 0 l 289 718 l 32 718 l 32 865 l 731 865 l 731 718 l 460 718 l 460 0 l 289 0 z "},"Ŧ":{"ha":764,"x_min":32,"x_max":731,"o":"m 289 0 l 289 718 l 32 718 l 32 865 l 731 865 l 731 718 l 460 718 l 460 0 l 289 0 m 103 382 l 103 492 l 638 492 l 638 382 l 103 382 z "},"Ť":{"ha":764,"x_min":32,"x_max":731,"o":"m 289 0 l 289 718 l 32 718 l 32 865 l 731 865 l 731 718 l 460 718 l 460 0 l 289 0 z "},"Ţ":{"ha":764,"x_min":32,"x_max":731,"o":"m 289 0 l 289 718 l 32 718 l 32 865 l 731 865 l 731 718 l 460 718 l 460 0 l 289 0 z "},"Ț":{"ha":764,"x_min":32,"x_max":731,"o":"m 289 0 l 289 718 l 32 718 l 32 865 l 731 865 l 731 718 l 460 718 l 460 0 l 289 0 m 358 -415 l 271 -340 q 325 -278 307 -308 q 343 -228 343 -249 q 329 -192 343 -208 q 301 -156 315 -176 q 288 -104 288 -135 q 319 -35 288 -60 q 393 -11 351 -11 q 478 -48 447 -11 q 508 -143 508 -85 q 491 -229 508 -185 q 440 -320 474 -274 q 358 -415 407 -367 z "},"Ṭ":{"ha":764,"x_min":32,"x_max":731,"o":"m 289 0 l 289 718 l 32 718 l 32 865 l 731 865 l 731 718 l 460 718 l 460 0 l 289 0 z "},"Ṯ":{"ha":764,"x_min":32,"x_max":731,"o":"m 289 0 l 289 718 l 32 718 l 32 865 l 731 865 l 731 718 l 460 718 l 460 0 l 289 0 z "},"U":{"ha":764,"x_min":53,"x_max":714,"o":"m 382 -18 q 139 69 225 -18 q 53 310 53 156 l 53 865 l 229 865 l 243 865 l 243 851 q 233 833 235 843 q 231 800 231 824 l 231 308 q 265 174 231 224 q 383 125 300 125 q 503 174 469 125 q 538 313 538 224 l 538 865 l 714 865 l 714 314 q 672 126 714 200 q 554 17 629 53 q 382 -18 479 -18 l 382 -18 z "},"Ú":{"ha":764,"x_min":53,"x_max":714,"o":"m 382 -18 q 139 69 225 -18 q 53 310 53 156 l 53 865 l 229 865 l 243 865 l 243 851 q 233 833 235 843 q 231 800 231 824 l 231 308 q 265 174 231 224 q 383 125 300 125 q 503 174 469 125 q 538 313 538 224 l 538 865 l 714 865 l 714 314 q 672 126 714 200 q 554 17 629 53 q 382 -18 479 -18 l 382 -18 z "},"Ŭ":{"ha":764,"x_min":53,"x_max":714,"o":"m 382 -18 q 139 69 225 -18 q 53 310 53 156 l 53 865 l 229 865 l 243 865 l 243 851 q 233 833 235 843 q 231 800 231 824 l 231 308 q 265 174 231 224 q 383 125 300 125 q 503 174 469 125 q 538 313 538 224 l 538 865 l 714 865 l 714 314 q 672 126 714 200 q 554 17 629 53 q 382 -18 479 -18 l 382 -18 z "},"Û":{"ha":764,"x_min":53,"x_max":714,"o":"m 382 -18 q 139 69 225 -18 q 53 310 53 156 l 53 865 l 229 865 l 243 865 l 243 851 q 233 833 235 843 q 231 800 231 824 l 231 308 q 265 174 231 224 q 383 125 300 125 q 503 174 469 125 q 538 313 538 224 l 538 865 l 714 865 l 714 314 q 672 126 714 200 q 554 17 629 53 q 382 -18 479 -18 l 382 -18 m 158 897 l 106 983 l 358 1115 l 411 1115 l 653 986 l 596 897 l 385 988 l 158 897 z "},"Ȕ":{"ha":764,"x_min":53,"x_max":714,"o":"m 382 -18 q 139 69 225 -18 q 53 310 53 156 l 53 865 l 229 865 l 243 865 l 243 851 q 233 833 235 843 q 231 800 231 824 l 231 308 q 265 174 231 224 q 383 125 300 125 q 503 174 469 125 q 538 313 538 224 l 538 865 l 714 865 l 714 314 q 672 126 714 200 q 554 17 629 53 q 382 -18 479 -18 l 382 -18 z "},"Ü":{"ha":764,"x_min":53,"x_max":714,"o":"m 382 -18 q 139 69 225 -18 q 53 310 53 156 l 53 865 l 229 865 l 243 865 l 243 851 q 233 833 235 843 q 231 800 231 824 l 231 308 q 265 174 231 224 q 383 125 300 125 q 503 174 469 125 q 538 313 538 224 l 538 865 l 714 865 l 714 314 q 672 126 714 200 q 554 17 629 53 q 382 -18 479 -18 l 382 -18 z "},"Ụ":{"ha":764,"x_min":53,"x_max":714,"o":"m 382 -18 q 139 69 225 -18 q 53 310 53 156 l 53 865 l 229 865 l 243 865 l 243 851 q 233 833 235 843 q 231 800 231 824 l 231 308 q 265 174 231 224 q 383 125 300 125 q 503 174 469 125 q 538 313 538 224 l 538 865 l 714 865 l 714 314 q 672 126 714 200 q 554 17 629 53 q 382 -18 479 -18 l 382 -18 z "},"Ù":{"ha":764,"x_min":53,"x_max":714,"o":"m 382 -18 q 139 69 225 -18 q 53 310 53 156 l 53 865 l 229 865 l 243 865 l 243 851 q 233 833 235 843 q 231 800 231 824 l 231 308 q 265 174 231 224 q 383 125 300 125 q 503 174 469 125 q 538 313 538 224 l 538 865 l 714 865 l 714 314 q 672 126 714 200 q 554 17 629 53 q 382 -18 479 -18 l 382 -18 z "},"Ủ":{"ha":764,"x_min":53,"x_max":714,"o":"m 382 -18 q 139 69 225 -18 q 53 310 53 156 l 53 865 l 229 865 l 243 865 l 243 851 q 233 833 235 843 q 231 800 231 824 l 231 308 q 265 174 231 224 q 383 125 300 125 q 503 174 469 125 q 538 313 538 224 l 538 865 l 714 865 l 714 314 q 672 126 714 200 q 554 17 629 53 q 382 -18 479 -18 l 382 -18 m 560 1113 q 544 1062 560 1083 q 507 1023 528 1040 q 470 989 486 1006 q 454 951 454 972 l 454 940 l 342 940 l 342 978 q 357 1018 342 1000 q 392 1051 372 1036 q 427 1078 413 1065 q 442 1106 442 1092 q 427 1134 442 1124 q 392 1144 413 1144 q 340 1133 363 1144 q 301 1090 317 1121 l 240 1174 q 313 1224 269 1207 q 400 1239 357 1240 q 483 1222 447 1239 q 540 1178 519 1206 q 560 1113 560 1150 z "},"Ư":{"ha":764,"x_min":47,"x_max":760,"o":"m 343 -18 q 124 69 201 -18 q 47 310 47 156 l 47 865 l 207 865 l 218 865 l 218 851 q 210 833 213 843 q 208 800 208 824 l 208 308 q 239 174 208 224 q 344 125 269 125 q 453 174 422 125 q 485 313 485 224 l 485 865 l 643 865 l 643 314 q 605 126 643 200 q 499 17 567 53 q 343 -18 432 -18 l 343 -18 m 625 753 l 610 865 q 638 879 629 865 q 650 922 647 893 q 653 996 653 951 l 760 996 q 751 869 760 924 q 713 783 742 814 q 625 753 685 753 z "},"Ứ":{"ha":764,"x_min":47,"x_max":760,"o":"m 343 -18 q 124 69 201 -18 q 47 310 47 156 l 47 865 l 207 865 l 218 865 l 218 851 q 210 833 213 843 q 208 800 208 824 l 208 308 q 239 174 208 224 q 344 125 269 125 q 453 174 422 125 q 485 313 485 224 l 485 865 l 643 865 l 643 314 q 605 126 643 200 q 499 17 567 53 q 343 -18 432 -18 l 343 -18 m 625 753 l 610 865 q 638 879 629 865 q 650 922 647 893 q 653 996 653 951 l 760 996 q 751 869 760 924 q 713 783 742 814 q 625 753 685 753 z "},"Ự":{"ha":764,"x_min":47,"x_max":760,"o":"m 343 -18 q 124 69 201 -18 q 47 310 47 156 l 47 865 l 207 865 l 218 865 l 218 851 q 210 833 213 843 q 208 800 208 824 l 208 308 q 239 174 208 224 q 344 125 269 125 q 453 174 422 125 q 485 313 485 224 l 485 865 l 643 865 l 643 314 q 605 126 643 200 q 499 17 567 53 q 343 -18 432 -18 l 343 -18 m 625 753 l 610 865 q 638 879 629 865 q 650 922 647 893 q 653 996 653 951 l 760 996 q 751 869 760 924 q 713 783 742 814 q 625 753 685 753 z "},"Ừ":{"ha":764,"x_min":47,"x_max":760,"o":"m 343 -18 q 124 69 201 -18 q 47 310 47 156 l 47 865 l 207 865 l 218 865 l 218 851 q 210 833 213 843 q 208 800 208 824 l 208 308 q 239 174 208 224 q 344 125 269 125 q 453 174 422 125 q 485 313 485 224 l 485 865 l 643 865 l 643 314 q 605 126 643 200 q 499 17 567 53 q 343 -18 432 -18 l 343 -18 m 625 753 l 610 865 q 638 879 629 865 q 650 922 647 893 q 653 996 653 951 l 760 996 q 751 869 760 924 q 713 783 742 814 q 625 753 685 753 z "},"Ử":{"ha":764,"x_min":47,"x_max":760,"o":"m 343 -18 q 124 69 201 -18 q 47 310 47 156 l 47 865 l 207 865 l 218 865 l 218 851 q 210 833 213 843 q 208 800 208 824 l 208 308 q 239 174 208 224 q 344 125 269 125 q 453 174 422 125 q 485 313 485 224 l 485 865 l 643 865 l 643 314 q 605 126 643 200 q 499 17 567 53 q 343 -18 432 -18 l 343 -18 m 625 753 l 610 865 q 638 879 629 865 q 650 922 647 893 q 653 996 653 951 l 760 996 q 751 869 760 924 q 713 783 742 814 q 625 753 685 753 m 525 1113 q 509 1062 525 1083 q 472 1023 493 1040 q 435 989 451 1006 q 419 951 419 972 l 419 940 l 307 940 l 307 978 q 322 1018 307 1000 q 358 1051 338 1036 q 392 1078 378 1065 q 407 1106 407 1092 q 392 1134 407 1124 q 357 1144 378 1144 q 305 1133 328 1144 q 267 1090 282 1121 l 206 1174 q 278 1224 235 1207 q 365 1239 322 1240 q 449 1222 413 1239 q 505 1178 485 1206 q 525 1113 525 1150 z "},"Ữ":{"ha":764,"x_min":47,"x_max":760,"o":"m 343 -18 q 124 69 201 -18 q 47 310 47 156 l 47 865 l 207 865 l 218 865 l 218 851 q 210 833 213 843 q 208 800 208 824 l 208 308 q 239 174 208 224 q 344 125 269 125 q 453 174 422 125 q 485 313 485 224 l 485 865 l 643 865 l 643 314 q 605 126 643 200 q 499 17 567 53 q 343 -18 432 -18 l 343 -18 m 625 753 l 610 865 q 638 879 629 865 q 650 922 647 893 q 653 996 653 951 l 760 996 q 751 869 760 924 q 713 783 742 814 q 625 753 685 753 z "},"Ű":{"ha":764,"x_min":53,"x_max":714,"o":"m 382 -18 q 139 69 225 -18 q 53 310 53 156 l 53 865 l 229 865 l 243 865 l 243 851 q 233 833 235 843 q 231 800 231 824 l 231 308 q 265 174 231 224 q 383 125 300 125 q 503 174 469 125 q 538 313 538 224 l 538 865 l 714 865 l 714 314 q 672 126 714 200 q 554 17 629 53 q 382 -18 479 -18 l 382 -18 z "},"Ȗ":{"ha":764,"x_min":53,"x_max":714,"o":"m 382 -18 q 139 69 225 -18 q 53 310 53 156 l 53 865 l 229 865 l 243 865 l 243 851 q 233 833 235 843 q 231 800 231 824 l 231 308 q 265 174 231 224 q 383 125 300 125 q 503 174 469 125 q 538 313 538 224 l 538 865 l 714 865 l 714 314 q 672 126 714 200 q 554 17 629 53 q 382 -18 479 -18 l 382 -18 m 257 940 l 154 992 q 251 1103 192 1064 q 385 1142 310 1142 q 519 1103 460 1142 q 615 990 578 1064 l 513 939 q 456 1015 486 990 q 385 1040 425 1040 q 334 1030 358 1040 q 291 997 310 1019 q 257 940 272 975 z "},"Ū":{"ha":764,"x_min":53,"x_max":714,"o":"m 382 -18 q 139 69 225 -18 q 53 310 53 156 l 53 865 l 229 865 l 243 865 l 243 851 q 233 833 235 843 q 231 800 231 824 l 231 308 q 265 174 231 224 q 383 125 300 125 q 503 174 469 125 q 538 313 538 224 l 538 865 l 714 865 l 714 314 q 672 126 714 200 q 554 17 629 53 q 382 -18 479 -18 l 382 -18 z "},"Ṻ":{"ha":764,"x_min":53,"x_max":714,"o":"m 382 -18 q 139 69 225 -18 q 53 310 53 156 l 53 865 l 229 865 l 243 865 l 243 851 q 233 833 235 843 q 231 800 231 824 l 231 308 q 265 174 231 224 q 383 125 300 125 q 503 174 469 125 q 538 313 538 224 l 538 865 l 714 865 l 714 314 q 672 126 714 200 q 554 17 629 53 q 382 -18 479 -18 l 382 -18 z "},"Ų":{"ha":764,"x_min":53,"x_max":714,"o":"m 382 -18 q 139 69 225 -18 q 53 310 53 156 l 53 865 l 229 865 l 243 865 l 243 851 q 233 833 235 843 q 231 800 231 824 l 231 308 q 265 174 231 224 q 383 125 300 125 q 503 174 469 125 q 538 313 538 224 l 538 865 l 714 865 l 714 314 q 672 126 714 200 q 554 17 629 53 q 382 -18 479 -18 l 382 -18 m 551 -182 l 481 -319 q 363 -276 408 -301 q 297 -219 318 -250 q 275 -157 275 -189 q 300 -85 275 -122 q 373 -12 325 -49 q 488 57 421 24 l 556 14 q 500 -33 524 -11 q 464 -74 476 -56 q 451 -110 451 -93 q 477 -152 451 -135 q 551 -182 503 -169 z "},"Ů":{"ha":764,"x_min":53,"x_max":714,"o":"m 382 -18 q 139 69 225 -18 q 53 310 53 156 l 53 865 l 229 865 l 243 865 l 243 851 q 233 833 235 843 q 231 800 231 824 l 231 308 q 265 174 231 224 q 383 125 300 125 q 503 174 469 125 q 538 313 538 224 l 538 865 l 714 865 l 714 314 q 672 126 714 200 q 554 17 629 53 q 382 -18 479 -18 l 382 -18 z "},"Ũ":{"ha":764,"x_min":53,"x_max":714,"o":"m 382 -18 q 139 69 225 -18 q 53 310 53 156 l 53 865 l 229 865 l 243 865 l 243 851 q 233 833 235 843 q 231 800 231 824 l 231 308 q 265 174 231 224 q 383 125 300 125 q 503 174 469 125 q 538 313 538 224 l 538 865 l 714 865 l 714 314 q 672 126 714 200 q 554 17 629 53 q 382 -18 479 -18 l 382 -18 z "},"Ṹ":{"ha":764,"x_min":53,"x_max":714,"o":"m 382 -18 q 139 69 225 -18 q 53 310 53 156 l 53 865 l 229 865 l 243 865 l 243 851 q 233 833 235 843 q 231 800 231 824 l 231 308 q 265 174 231 224 q 383 125 300 125 q 503 174 469 125 q 538 313 538 224 l 538 865 l 714 865 l 714 314 q 672 126 714 200 q 554 17 629 53 q 382 -18 479 -18 l 382 -18 z "},"V":{"ha":764,"x_min":21,"x_max":751,"o":"m 322 -1 l 21 865 l 200 865 l 394 265 l 578 865 l 751 865 l 454 -1 l 322 -1 z "},"W":{"ha":764,"x_min":14,"x_max":758,"o":"m 138 0 l 14 865 l 169 865 l 229 331 l 347 796 l 447 796 l 563 332 l 610 865 l 758 865 l 636 0 l 518 0 l 390 525 l 258 0 l 138 0 z "},"Ẃ":{"ha":764,"x_min":14,"x_max":758,"o":"m 138 0 l 14 865 l 169 865 l 229 331 l 347 796 l 447 796 l 563 332 l 610 865 l 758 865 l 636 0 l 518 0 l 390 525 l 258 0 l 138 0 z "},"Ŵ":{"ha":764,"x_min":14,"x_max":758,"o":"m 138 0 l 14 865 l 169 865 l 229 331 l 347 796 l 447 796 l 563 332 l 610 865 l 758 865 l 636 0 l 518 0 l 390 525 l 258 0 l 138 0 m 168 897 l 115 983 l 368 1115 l 421 1115 l 663 986 l 606 897 l 394 988 l 168 897 z "},"Ẅ":{"ha":764,"x_min":14,"x_max":758,"o":"m 138 0 l 14 865 l 169 865 l 229 331 l 347 796 l 447 796 l 563 332 l 610 865 l 758 865 l 636 0 l 518 0 l 390 525 l 258 0 l 138 0 z "},"Ẁ":{"ha":764,"x_min":14,"x_max":758,"o":"m 138 0 l 14 865 l 169 865 l 229 331 l 347 796 l 447 796 l 563 332 l 610 865 l 758 865 l 636 0 l 518 0 l 390 525 l 258 0 l 138 0 z "},"X":{"ha":764,"x_min":40,"x_max":743,"o":"m 40 0 l 288 442 l 43 865 l 229 865 l 385 590 l 535 865 l 714 865 l 485 444 l 743 0 l 551 0 l 386 290 l 226 0 l 40 0 z "},"Y":{"ha":764,"x_min":21,"x_max":749,"o":"m 308 0 l 308 339 l 21 865 l 207 865 l 400 518 l 571 865 l 749 865 l 485 339 l 485 0 l 308 0 z "},"Ý":{"ha":764,"x_min":21,"x_max":749,"o":"m 308 0 l 308 339 l 21 865 l 207 865 l 400 518 l 571 865 l 749 865 l 485 339 l 485 0 l 308 0 z "},"Ŷ":{"ha":764,"x_min":21,"x_max":749,"o":"m 308 0 l 308 339 l 21 865 l 207 865 l 400 518 l 571 865 l 749 865 l 485 339 l 485 0 l 308 0 m 158 897 l 106 983 l 358 1115 l 411 1115 l 653 986 l 596 897 l 385 988 l 158 897 z "},"Ÿ":{"ha":764,"x_min":21,"x_max":749,"o":"m 308 0 l 308 339 l 21 865 l 207 865 l 400 518 l 571 865 l 749 865 l 485 339 l 485 0 l 308 0 z "},"Ẏ":{"ha":764,"x_min":21,"x_max":749,"o":"m 308 0 l 308 339 l 21 865 l 207 865 l 400 518 l 571 865 l 749 865 l 485 339 l 485 0 l 308 0 z "},"Ỵ":{"ha":764,"x_min":21,"x_max":749,"o":"m 308 0 l 308 339 l 21 865 l 207 865 l 400 518 l 571 865 l 749 865 l 485 339 l 485 0 l 308 0 z "},"Ỳ":{"ha":764,"x_min":21,"x_max":749,"o":"m 308 0 l 308 339 l 21 865 l 207 865 l 400 518 l 571 865 l 749 865 l 485 339 l 485 0 l 308 0 z "},"Ỷ":{"ha":764,"x_min":21,"x_max":749,"o":"m 308 0 l 308 339 l 21 865 l 207 865 l 400 518 l 571 865 l 749 865 l 485 339 l 485 0 l 308 0 m 560 1113 q 544 1062 560 1083 q 507 1023 528 1040 q 470 989 486 1006 q 454 951 454 972 l 454 940 l 342 940 l 342 978 q 357 1018 342 1000 q 392 1051 372 1036 q 427 1078 413 1065 q 442 1106 442 1092 q 427 1134 442 1124 q 392 1144 413 1144 q 340 1133 363 1144 q 301 1090 317 1121 l 240 1174 q 313 1224 269 1207 q 400 1239 357 1240 q 483 1222 447 1239 q 540 1178 519 1206 q 560 1113 560 1150 z "},"Ȳ":{"ha":764,"x_min":21,"x_max":749,"o":"m 308 0 l 308 339 l 21 865 l 207 865 l 400 518 l 571 865 l 749 865 l 485 339 l 485 0 l 308 0 z "},"Ỹ":{"ha":764,"x_min":21,"x_max":749,"o":"m 308 0 l 308 339 l 21 865 l 207 865 l 400 518 l 571 865 l 749 865 l 485 339 l 485 0 l 308 0 z "},"Z":{"ha":764,"x_min":57,"x_max":732,"o":"m 57 111 l 489 717 l 74 717 l 74 865 l 708 865 l 708 754 l 281 147 l 667 147 q 700 149 690 147 q 718 160 710 151 l 732 160 l 732 147 l 732 0 l 57 0 l 57 111 z "},"Ź":{"ha":764,"x_min":57,"x_max":732,"o":"m 57 111 l 489 717 l 74 717 l 74 865 l 708 865 l 708 754 l 281 147 l 667 147 q 700 149 690 147 q 718 160 710 151 l 732 160 l 732 147 l 732 0 l 57 0 l 57 111 z "},"Ž":{"ha":764,"x_min":57,"x_max":732,"o":"m 57 111 l 489 717 l 74 717 l 74 865 l 708 865 l 708 754 l 281 147 l 667 147 q 700 149 690 147 q 718 160 710 151 l 732 160 l 732 147 l 732 0 l 57 0 l 57 111 z "},"Ż":{"ha":764,"x_min":57,"x_max":732,"o":"m 57 111 l 489 717 l 74 717 l 74 865 l 708 865 l 708 754 l 281 147 l 667 147 q 700 149 690 147 q 718 160 710 151 l 732 160 l 732 147 l 732 0 l 57 0 l 57 111 z "},"Ẓ":{"ha":764,"x_min":57,"x_max":732,"o":"m 57 111 l 489 717 l 74 717 l 74 865 l 708 865 l 708 754 l 281 147 l 667 147 q 700 149 690 147 q 718 160 710 151 l 732 160 l 732 147 l 732 0 l 57 0 l 57 111 z "},"a":{"ha":764,"x_min":51,"x_max":692,"o":"m 301 -17 q 117 33 182 -17 q 51 167 51 83 q 76 264 51 219 q 150 341 100 308 q 276 392 200 374 q 454 410 351 410 q 485 410 467 410 q 524 408 503 410 q 563 407 544 407 l 567 286 q 530 287 551 286 q 487 288 508 288 q 451 288 465 288 q 343 280 386 288 q 276 258 300 272 q 240 227 251 244 q 229 190 229 210 q 237 158 229 172 q 258 137 244 144 q 292 125 272 129 q 336 121 313 121 q 414 133 381 121 q 470 172 447 144 q 504 240 493 199 q 515 340 515 282 q 497 458 515 417 q 446 513 479 499 q 364 528 413 528 q 268 515 311 528 q 182 461 225 501 l 82 565 q 218 642 144 619 q 371 665 292 665 q 495 651 438 665 q 597 606 553 638 q 667 518 642 574 q 692 379 692 463 l 692 0 l 510 0 l 510 63 q 466 26 489 42 q 417 2 443 11 q 363 -12 392 -7 q 301 -17 333 -17 z "},"á":{"ha":764,"x_min":51,"x_max":692,"o":"m 301 -17 q 117 33 182 -17 q 51 167 51 83 q 76 264 51 219 q 150 341 100 308 q 276 392 200 374 q 454 410 351 410 q 485 410 467 410 q 524 408 503 410 q 563 407 544 407 l 567 286 q 530 287 551 286 q 487 288 508 288 q 451 288 465 288 q 343 280 386 288 q 276 258 300 272 q 240 227 251 244 q 229 190 229 210 q 237 158 229 172 q 258 137 244 144 q 292 125 272 129 q 336 121 313 121 q 414 133 381 121 q 470 172 447 144 q 504 240 493 199 q 515 340 515 282 q 497 458 515 417 q 446 513 479 499 q 364 528 413 528 q 268 515 311 528 q 182 461 225 501 l 82 565 q 218 642 144 619 q 371 665 292 665 q 495 651 438 665 q 597 606 553 638 q 667 518 642 574 q 692 379 692 463 l 692 0 l 510 0 l 510 63 q 466 26 489 42 q 417 2 443 11 q 363 -12 392 -7 q 301 -17 333 -17 z "},"ă":{"ha":764,"x_min":51,"x_max":692,"o":"m 301 -17 q 117 33 182 -17 q 51 167 51 83 q 76 264 51 219 q 150 341 100 308 q 276 392 200 374 q 454 410 351 410 q 485 410 467 410 q 524 408 503 410 q 563 407 544 407 l 567 286 q 530 287 551 286 q 487 288 508 288 q 451 288 465 288 q 343 280 386 288 q 276 258 300 272 q 240 227 251 244 q 229 190 229 210 q 237 158 229 172 q 258 137 244 144 q 292 125 272 129 q 336 121 313 121 q 414 133 381 121 q 470 172 447 144 q 504 240 493 199 q 515 340 515 282 q 497 458 515 417 q 446 513 479 499 q 364 528 413 528 q 268 515 311 528 q 182 461 225 501 l 82 565 q 218 642 144 619 q 371 665 292 665 q 495 651 438 665 q 597 606 553 638 q 667 518 642 574 q 692 379 692 463 l 692 0 l 510 0 l 510 63 q 466 26 489 42 q 417 2 443 11 q 363 -12 392 -7 q 301 -17 333 -17 m 500 935 l 604 882 q 507 772 567 811 q 374 732 447 732 q 240 772 299 732 q 143 883 181 811 l 246 936 q 301 859 271 885 q 374 833 332 833 q 424 844 401 833 q 467 877 447 854 q 500 935 488 900 z "},"ắ":{"ha":764,"x_min":51,"x_max":692,"o":"m 301 -17 q 117 33 182 -17 q 51 167 51 83 q 76 264 51 219 q 150 341 100 308 q 276 392 200 374 q 454 410 351 410 q 485 410 467 410 q 524 408 503 410 q 563 407 544 407 l 567 286 q 530 287 551 286 q 487 288 508 288 q 451 288 465 288 q 343 280 386 288 q 276 258 300 272 q 240 227 251 244 q 229 190 229 210 q 237 158 229 172 q 258 137 244 144 q 292 125 272 129 q 336 121 313 121 q 414 133 381 121 q 470 172 447 144 q 504 240 493 199 q 515 340 515 282 q 497 458 515 417 q 446 513 479 499 q 364 528 413 528 q 268 515 311 528 q 182 461 225 501 l 82 565 q 218 642 144 619 q 371 665 292 665 q 495 651 438 665 q 597 606 553 638 q 667 518 642 574 q 692 379 692 463 l 692 0 l 510 0 l 510 63 q 466 26 489 42 q 417 2 443 11 q 363 -12 392 -7 q 301 -17 333 -17 z "},"ặ":{"ha":764,"x_min":51,"x_max":692,"o":"m 301 -17 q 117 33 182 -17 q 51 167 51 83 q 76 264 51 219 q 150 341 100 308 q 276 392 200 374 q 454 410 351 410 q 485 410 467 410 q 524 408 503 410 q 563 407 544 407 l 567 286 q 530 287 551 286 q 487 288 508 288 q 451 288 465 288 q 343 280 386 288 q 276 258 300 272 q 240 227 251 244 q 229 190 229 210 q 237 158 229 172 q 258 137 244 144 q 292 125 272 129 q 336 121 313 121 q 414 133 381 121 q 470 172 447 144 q 504 240 493 199 q 515 340 515 282 q 497 458 515 417 q 446 513 479 499 q 364 528 413 528 q 268 515 311 528 q 182 461 225 501 l 82 565 q 218 642 144 619 q 371 665 292 665 q 495 651 438 665 q 597 606 553 638 q 667 518 642 574 q 692 379 692 463 l 692 0 l 510 0 l 510 63 q 466 26 489 42 q 417 2 443 11 q 363 -12 392 -7 q 301 -17 333 -17 m 500 935 l 604 882 q 507 772 567 811 q 374 732 447 732 q 240 772 299 732 q 143 883 181 811 l 246 936 q 301 859 271 885 q 374 833 332 833 q 424 844 401 833 q 467 877 447 854 q 500 935 488 900 z "},"ằ":{"ha":764,"x_min":51,"x_max":692,"o":"m 301 -17 q 117 33 182 -17 q 51 167 51 83 q 76 264 51 219 q 150 341 100 308 q 276 392 200 374 q 454 410 351 410 q 485 410 467 410 q 524 408 503 410 q 563 407 544 407 l 567 286 q 530 287 551 286 q 487 288 508 288 q 451 288 465 288 q 343 280 386 288 q 276 258 300 272 q 240 227 251 244 q 229 190 229 210 q 237 158 229 172 q 258 137 244 144 q 292 125 272 129 q 336 121 313 121 q 414 133 381 121 q 470 172 447 144 q 504 240 493 199 q 515 340 515 282 q 497 458 515 417 q 446 513 479 499 q 364 528 413 528 q 268 515 311 528 q 182 461 225 501 l 82 565 q 218 642 144 619 q 371 665 292 665 q 495 651 438 665 q 597 606 553 638 q 667 518 642 574 q 692 379 692 463 l 692 0 l 510 0 l 510 63 q 466 26 489 42 q 417 2 443 11 q 363 -12 392 -7 q 301 -17 333 -17 z "},"ẳ":{"ha":764,"x_min":51,"x_max":692,"o":"m 301 -17 q 117 33 182 -17 q 51 167 51 83 q 76 264 51 219 q 150 341 100 308 q 276 392 200 374 q 454 410 351 410 q 485 410 467 410 q 524 408 503 410 q 563 407 544 407 l 567 286 q 530 287 551 286 q 487 288 508 288 q 451 288 465 288 q 343 280 386 288 q 276 258 300 272 q 240 227 251 244 q 229 190 229 210 q 237 158 229 172 q 258 137 244 144 q 292 125 272 129 q 336 121 313 121 q 414 133 381 121 q 470 172 447 144 q 504 240 493 199 q 515 340 515 282 q 497 458 515 417 q 446 513 479 499 q 364 528 413 528 q 268 515 311 528 q 182 461 225 501 l 82 565 q 218 642 144 619 q 371 665 292 665 q 495 651 438 665 q 597 606 553 638 q 667 518 642 574 q 692 379 692 463 l 692 0 l 510 0 l 510 63 q 466 26 489 42 q 417 2 443 11 q 363 -12 392 -7 q 301 -17 333 -17 z "},"ẵ":{"ha":764,"x_min":51,"x_max":692,"o":"m 301 -17 q 117 33 182 -17 q 51 167 51 83 q 76 264 51 219 q 150 341 100 308 q 276 392 200 374 q 454 410 351 410 q 485 410 467 410 q 524 408 503 410 q 563 407 544 407 l 567 286 q 530 287 551 286 q 487 288 508 288 q 451 288 465 288 q 343 280 386 288 q 276 258 300 272 q 240 227 251 244 q 229 190 229 210 q 237 158 229 172 q 258 137 244 144 q 292 125 272 129 q 336 121 313 121 q 414 133 381 121 q 470 172 447 144 q 504 240 493 199 q 515 340 515 282 q 497 458 515 417 q 446 513 479 499 q 364 528 413 528 q 268 515 311 528 q 182 461 225 501 l 82 565 q 218 642 144 619 q 371 665 292 665 q 495 651 438 665 q 597 606 553 638 q 667 518 642 574 q 692 379 692 463 l 692 0 l 510 0 l 510 63 q 466 26 489 42 q 417 2 443 11 q 363 -12 392 -7 q 301 -17 333 -17 z "},"â":{"ha":764,"x_min":51,"x_max":692,"o":"m 301 -17 q 117 33 182 -17 q 51 167 51 83 q 76 264 51 219 q 150 341 100 308 q 276 392 200 374 q 454 410 351 410 q 485 410 467 410 q 524 408 503 410 q 563 407 544 407 l 567 286 q 530 287 551 286 q 487 288 508 288 q 451 288 465 288 q 343 280 386 288 q 276 258 300 272 q 240 227 251 244 q 229 190 229 210 q 237 158 229 172 q 258 137 244 144 q 292 125 272 129 q 336 121 313 121 q 414 133 381 121 q 470 172 447 144 q 504 240 493 199 q 515 340 515 282 q 497 458 515 417 q 446 513 479 499 q 364 528 413 528 q 268 515 311 528 q 182 461 225 501 l 82 565 q 218 642 144 619 q 371 665 292 665 q 495 651 438 665 q 597 606 553 638 q 667 518 642 574 q 692 379 692 463 l 692 0 l 510 0 l 510 63 q 466 26 489 42 q 417 2 443 11 q 363 -12 392 -7 q 301 -17 333 -17 m 200 689 l 118 765 l 340 953 l 401 953 l 624 765 l 543 689 l 371 825 l 200 689 z "},"ấ":{"ha":764,"x_min":51,"x_max":761,"o":"m 301 -17 q 117 33 182 -17 q 51 167 51 83 q 76 264 51 219 q 150 341 100 308 q 276 392 200 374 q 454 410 351 410 q 485 410 467 410 q 524 408 503 410 q 563 407 544 407 l 567 286 q 530 287 551 286 q 487 288 508 288 q 451 288 465 288 q 343 280 386 288 q 276 258 300 272 q 240 227 251 244 q 229 190 229 210 q 237 158 229 172 q 258 137 244 144 q 292 125 272 129 q 336 121 313 121 q 414 133 381 121 q 470 172 447 144 q 504 240 493 199 q 515 340 515 282 q 497 458 515 417 q 446 513 479 499 q 364 528 413 528 q 268 515 311 528 q 182 461 225 501 l 82 565 q 218 642 144 619 q 371 665 292 665 q 495 651 438 665 q 597 606 553 638 q 667 518 642 574 q 692 379 692 463 l 692 0 l 510 0 l 510 63 q 466 26 489 42 q 417 2 443 11 q 363 -12 392 -7 q 301 -17 333 -17 z "},"ậ":{"ha":764,"x_min":51,"x_max":692,"o":"m 301 -17 q 117 33 182 -17 q 51 167 51 83 q 76 264 51 219 q 150 341 100 308 q 276 392 200 374 q 454 410 351 410 q 485 410 467 410 q 524 408 503 410 q 563 407 544 407 l 567 286 q 530 287 551 286 q 487 288 508 288 q 451 288 465 288 q 343 280 386 288 q 276 258 300 272 q 240 227 251 244 q 229 190 229 210 q 237 158 229 172 q 258 137 244 144 q 292 125 272 129 q 336 121 313 121 q 414 133 381 121 q 470 172 447 144 q 504 240 493 199 q 515 340 515 282 q 497 458 515 417 q 446 513 479 499 q 364 528 413 528 q 268 515 311 528 q 182 461 225 501 l 82 565 q 218 642 144 619 q 371 665 292 665 q 495 651 438 665 q 597 606 553 638 q 667 518 642 574 q 692 379 692 463 l 692 0 l 510 0 l 510 63 q 466 26 489 42 q 417 2 443 11 q 363 -12 392 -7 q 301 -17 333 -17 m 200 689 l 118 765 l 340 953 l 401 953 l 624 765 l 543 689 l 371 825 l 200 689 z "},"ầ":{"ha":764,"x_min":51,"x_max":692,"o":"m 301 -17 q 117 33 182 -17 q 51 167 51 83 q 76 264 51 219 q 150 341 100 308 q 276 392 200 374 q 454 410 351 410 q 485 410 467 410 q 524 408 503 410 q 563 407 544 407 l 567 286 q 530 287 551 286 q 487 288 508 288 q 451 288 465 288 q 343 280 386 288 q 276 258 300 272 q 240 227 251 244 q 229 190 229 210 q 237 158 229 172 q 258 137 244 144 q 292 125 272 129 q 336 121 313 121 q 414 133 381 121 q 470 172 447 144 q 504 240 493 199 q 515 340 515 282 q 497 458 515 417 q 446 513 479 499 q 364 528 413 528 q 268 515 311 528 q 182 461 225 501 l 82 565 q 218 642 144 619 q 371 665 292 665 q 495 651 438 665 q 597 606 553 638 q 667 518 642 574 q 692 379 692 463 l 692 0 l 510 0 l 510 63 q 466 26 489 42 q 417 2 443 11 q 363 -12 392 -7 q 301 -17 333 -17 z "},"ẩ":{"ha":764,"x_min":51,"x_max":750,"o":"m 301 -17 q 117 33 182 -17 q 51 167 51 83 q 76 264 51 219 q 150 341 100 308 q 276 392 200 374 q 454 410 351 410 q 485 410 467 410 q 524 408 503 410 q 563 407 544 407 l 567 286 q 530 287 551 286 q 487 288 508 288 q 451 288 465 288 q 343 280 386 288 q 276 258 300 272 q 240 227 251 244 q 229 190 229 210 q 237 158 229 172 q 258 137 244 144 q 292 125 272 129 q 336 121 313 121 q 414 133 381 121 q 470 172 447 144 q 504 240 493 199 q 515 340 515 282 q 497 458 515 417 q 446 513 479 499 q 364 528 413 528 q 268 515 311 528 q 182 461 225 501 l 82 565 q 218 642 144 619 q 371 665 292 665 q 495 651 438 665 q 597 606 553 638 q 667 518 642 574 q 692 379 692 463 l 692 0 l 510 0 l 510 63 q 466 26 489 42 q 417 2 443 11 q 363 -12 392 -7 q 301 -17 333 -17 z "},"ẫ":{"ha":764,"x_min":51,"x_max":692,"o":"m 301 -17 q 117 33 182 -17 q 51 167 51 83 q 76 264 51 219 q 150 341 100 308 q 276 392 200 374 q 454 410 351 410 q 485 410 467 410 q 524 408 503 410 q 563 407 544 407 l 567 286 q 530 287 551 286 q 487 288 508 288 q 451 288 465 288 q 343 280 386 288 q 276 258 300 272 q 240 227 251 244 q 229 190 229 210 q 237 158 229 172 q 258 137 244 144 q 292 125 272 129 q 336 121 313 121 q 414 133 381 121 q 470 172 447 144 q 504 240 493 199 q 515 340 515 282 q 497 458 515 417 q 446 513 479 499 q 364 528 413 528 q 268 515 311 528 q 182 461 225 501 l 82 565 q 218 642 144 619 q 371 665 292 665 q 495 651 438 665 q 597 606 553 638 q 667 518 642 574 q 692 379 692 463 l 692 0 l 510 0 l 510 63 q 466 26 489 42 q 417 2 443 11 q 363 -12 392 -7 q 301 -17 333 -17 z "},"ȁ":{"ha":764,"x_min":51,"x_max":692,"o":"m 301 -17 q 117 33 182 -17 q 51 167 51 83 q 76 264 51 219 q 150 341 100 308 q 276 392 200 374 q 454 410 351 410 q 485 410 467 410 q 524 408 503 410 q 563 407 544 407 l 567 286 q 530 287 551 286 q 487 288 508 288 q 451 288 465 288 q 343 280 386 288 q 276 258 300 272 q 240 227 251 244 q 229 190 229 210 q 237 158 229 172 q 258 137 244 144 q 292 125 272 129 q 336 121 313 121 q 414 133 381 121 q 470 172 447 144 q 504 240 493 199 q 515 340 515 282 q 497 458 515 417 q 446 513 479 499 q 364 528 413 528 q 268 515 311 528 q 182 461 225 501 l 82 565 q 218 642 144 619 q 371 665 292 665 q 495 651 438 665 q 597 606 553 638 q 667 518 642 574 q 692 379 692 463 l 692 0 l 510 0 l 510 63 q 466 26 489 42 q 417 2 443 11 q 363 -12 392 -7 q 301 -17 333 -17 z "},"ä":{"ha":764,"x_min":51,"x_max":692,"o":"m 301 -17 q 117 33 182 -17 q 51 167 51 83 q 76 264 51 219 q 150 341 100 308 q 276 392 200 374 q 454 410 351 410 q 485 410 467 410 q 524 408 503 410 q 563 407 544 407 l 567 286 q 530 287 551 286 q 487 288 508 288 q 451 288 465 288 q 343 280 386 288 q 276 258 300 272 q 240 227 251 244 q 229 190 229 210 q 237 158 229 172 q 258 137 244 144 q 292 125 272 129 q 336 121 313 121 q 414 133 381 121 q 470 172 447 144 q 504 240 493 199 q 515 340 515 282 q 497 458 515 417 q 446 513 479 499 q 364 528 413 528 q 268 515 311 528 q 182 461 225 501 l 82 565 q 218 642 144 619 q 371 665 292 665 q 495 651 438 665 q 597 606 553 638 q 667 518 642 574 q 692 379 692 463 l 692 0 l 510 0 l 510 63 q 466 26 489 42 q 417 2 443 11 q 363 -12 392 -7 q 301 -17 333 -17 z "},"ạ":{"ha":764,"x_min":51,"x_max":692,"o":"m 301 -17 q 117 33 182 -17 q 51 167 51 83 q 76 264 51 219 q 150 341 100 308 q 276 392 200 374 q 454 410 351 410 q 485 410 467 410 q 524 408 503 410 q 563 407 544 407 l 567 286 q 530 287 551 286 q 487 288 508 288 q 451 288 465 288 q 343 280 386 288 q 276 258 300 272 q 240 227 251 244 q 229 190 229 210 q 237 158 229 172 q 258 137 244 144 q 292 125 272 129 q 336 121 313 121 q 414 133 381 121 q 470 172 447 144 q 504 240 493 199 q 515 340 515 282 q 497 458 515 417 q 446 513 479 499 q 364 528 413 528 q 268 515 311 528 q 182 461 225 501 l 82 565 q 218 642 144 619 q 371 665 292 665 q 495 651 438 665 q 597 606 553 638 q 667 518 642 574 q 692 379 692 463 l 692 0 l 510 0 l 510 63 q 466 26 489 42 q 417 2 443 11 q 363 -12 392 -7 q 301 -17 333 -17 z "},"à":{"ha":764,"x_min":51,"x_max":692,"o":"m 301 -17 q 117 33 182 -17 q 51 167 51 83 q 76 264 51 219 q 150 341 100 308 q 276 392 200 374 q 454 410 351 410 q 485 410 467 410 q 524 408 503 410 q 563 407 544 407 l 567 286 q 530 287 551 286 q 487 288 508 288 q 451 288 465 288 q 343 280 386 288 q 276 258 300 272 q 240 227 251 244 q 229 190 229 210 q 237 158 229 172 q 258 137 244 144 q 292 125 272 129 q 336 121 313 121 q 414 133 381 121 q 470 172 447 144 q 504 240 493 199 q 515 340 515 282 q 497 458 515 417 q 446 513 479 499 q 364 528 413 528 q 268 515 311 528 q 182 461 225 501 l 82 565 q 218 642 144 619 q 371 665 292 665 q 495 651 438 665 q 597 606 553 638 q 667 518 642 574 q 692 379 692 463 l 692 0 l 510 0 l 510 63 q 466 26 489 42 q 417 2 443 11 q 363 -12 392 -7 q 301 -17 333 -17 z "},"ả":{"ha":764,"x_min":51,"x_max":692,"o":"m 301 -17 q 117 33 182 -17 q 51 167 51 83 q 76 264 51 219 q 150 341 100 308 q 276 392 200 374 q 454 410 351 410 q 485 410 467 410 q 524 408 503 410 q 563 407 544 407 l 567 286 q 530 287 551 286 q 487 288 508 288 q 451 288 465 288 q 343 280 386 288 q 276 258 300 272 q 240 227 251 244 q 229 190 229 210 q 237 158 229 172 q 258 137 244 144 q 292 125 272 129 q 336 121 313 121 q 414 133 381 121 q 470 172 447 144 q 504 240 493 199 q 515 340 515 282 q 497 458 515 417 q 446 513 479 499 q 364 528 413 528 q 268 515 311 528 q 182 461 225 501 l 82 565 q 218 642 144 619 q 371 665 292 665 q 495 651 438 665 q 597 606 553 638 q 667 518 642 574 q 692 379 692 463 l 692 0 l 510 0 l 510 63 q 466 26 489 42 q 417 2 443 11 q 363 -12 392 -7 q 301 -17 333 -17 m 550 893 q 534 842 550 864 q 497 803 518 821 q 460 769 476 786 q 444 732 444 753 l 444 721 l 332 721 l 332 758 q 347 799 332 781 q 383 831 363 817 q 417 859 403 846 q 432 886 432 872 q 417 915 432 904 q 382 925 403 925 q 330 913 353 925 q 292 871 307 901 l 231 954 q 303 1004 260 988 q 390 1019 347 1021 q 474 1003 438 1019 q 530 958 510 986 q 550 893 550 931 z "},"ȃ":{"ha":764,"x_min":51,"x_max":692,"o":"m 301 -17 q 117 33 182 -17 q 51 167 51 83 q 76 264 51 219 q 150 341 100 308 q 276 392 200 374 q 454 410 351 410 q 485 410 467 410 q 524 408 503 410 q 563 407 544 407 l 567 286 q 530 287 551 286 q 487 288 508 288 q 451 288 465 288 q 343 280 386 288 q 276 258 300 272 q 240 227 251 244 q 229 190 229 210 q 237 158 229 172 q 258 137 244 144 q 292 125 272 129 q 336 121 313 121 q 414 133 381 121 q 470 172 447 144 q 504 240 493 199 q 515 340 515 282 q 497 458 515 417 q 446 513 479 499 q 364 528 413 528 q 268 515 311 528 q 182 461 225 501 l 82 565 q 218 642 144 619 q 371 665 292 665 q 495 651 438 665 q 597 606 553 638 q 667 518 642 574 q 692 379 692 463 l 692 0 l 510 0 l 510 63 q 466 26 489 42 q 417 2 443 11 q 363 -12 392 -7 q 301 -17 333 -17 m 249 721 l 146 772 q 242 883 183 844 q 376 922 301 922 q 510 883 451 922 q 607 771 569 844 l 504 719 q 447 796 478 771 q 376 821 417 821 q 326 810 350 821 q 283 778 301 800 q 249 721 264 756 z "},"ā":{"ha":764,"x_min":51,"x_max":692,"o":"m 301 -17 q 117 33 182 -17 q 51 167 51 83 q 76 264 51 219 q 150 341 100 308 q 276 392 200 374 q 454 410 351 410 q 485 410 467 410 q 524 408 503 410 q 563 407 544 407 l 567 286 q 530 287 551 286 q 487 288 508 288 q 451 288 465 288 q 343 280 386 288 q 276 258 300 272 q 240 227 251 244 q 229 190 229 210 q 237 158 229 172 q 258 137 244 144 q 292 125 272 129 q 336 121 313 121 q 414 133 381 121 q 470 172 447 144 q 504 240 493 199 q 515 340 515 282 q 497 458 515 417 q 446 513 479 499 q 364 528 413 528 q 268 515 311 528 q 182 461 225 501 l 82 565 q 218 642 144 619 q 371 665 292 665 q 495 651 438 665 q 597 606 553 638 q 667 518 642 574 q 692 379 692 463 l 692 0 l 510 0 l 510 63 q 466 26 489 42 q 417 2 443 11 q 363 -12 392 -7 q 301 -17 333 -17 z "},"ą":{"ha":764,"x_min":51,"x_max":692,"o":"m 301 -17 q 117 33 182 -17 q 51 167 51 83 q 76 264 51 219 q 150 341 100 308 q 276 392 200 374 q 454 410 351 410 q 485 410 467 410 q 524 408 503 410 q 563 407 544 407 l 567 286 q 530 287 551 286 q 487 288 508 288 q 451 288 465 288 q 343 280 386 288 q 276 258 300 272 q 240 227 251 244 q 229 190 229 210 q 237 158 229 172 q 258 137 244 144 q 292 125 272 129 q 336 121 313 121 q 414 133 381 121 q 470 172 447 144 q 504 240 493 199 q 515 340 515 282 q 497 458 515 417 q 446 513 479 499 q 364 528 413 528 q 268 515 311 528 q 182 461 225 501 l 82 565 q 218 642 144 619 q 371 665 292 665 q 495 651 438 665 q 597 606 553 638 q 667 518 642 574 q 692 379 692 463 l 692 0 l 510 0 l 510 63 q 466 26 489 42 q 417 2 443 11 q 363 -12 392 -7 q 301 -17 333 -17 m 604 -196 l 533 -333 q 416 -290 461 -315 q 349 -233 371 -264 q 328 -171 328 -203 q 353 -99 328 -136 q 426 -26 378 -62 q 540 43 474 10 l 610 0 q 553 -47 576 -25 q 517 -88 529 -69 q 504 -124 504 -107 q 530 -166 504 -149 q 604 -196 556 -183 z "},"å":{"ha":764,"x_min":51,"x_max":692,"o":"m 301 -17 q 117 33 182 -17 q 51 167 51 83 q 76 264 51 219 q 150 341 100 308 q 276 392 200 374 q 454 410 351 410 q 485 410 467 410 q 524 408 503 410 q 563 407 544 407 l 567 286 q 530 287 551 286 q 487 288 508 288 q 451 288 465 288 q 343 280 386 288 q 276 258 300 272 q 240 227 251 244 q 229 190 229 210 q 237 158 229 172 q 258 137 244 144 q 292 125 272 129 q 336 121 313 121 q 414 133 381 121 q 470 172 447 144 q 504 240 493 199 q 515 340 515 282 q 497 458 515 417 q 446 513 479 499 q 364 528 413 528 q 268 515 311 528 q 182 461 225 501 l 82 565 q 218 642 144 619 q 371 665 292 665 q 495 651 438 665 q 597 606 553 638 q 667 518 642 574 q 692 379 692 463 l 692 0 l 510 0 l 510 63 q 466 26 489 42 q 417 2 443 11 q 363 -12 392 -7 q 301 -17 333 -17 z "},"ǻ":{"ha":764,"x_min":51,"x_max":692,"o":"m 301 -17 q 117 33 182 -17 q 51 167 51 83 q 76 264 51 219 q 150 341 100 308 q 276 392 200 374 q 454 410 351 410 q 485 410 467 410 q 524 408 503 410 q 563 407 544 407 l 567 286 q 530 287 551 286 q 487 288 508 288 q 451 288 465 288 q 343 280 386 288 q 276 258 300 272 q 240 227 251 244 q 229 190 229 210 q 237 158 229 172 q 258 137 244 144 q 292 125 272 129 q 336 121 313 121 q 414 133 381 121 q 470 172 447 144 q 504 240 493 199 q 515 340 515 282 q 497 458 515 417 q 446 513 479 499 q 364 528 413 528 q 268 515 311 528 q 182 461 225 501 l 82 565 q 218 642 144 619 q 371 665 292 665 q 495 651 438 665 q 597 606 553 638 q 667 518 642 574 q 692 379 692 463 l 692 0 l 510 0 l 510 63 q 466 26 489 42 q 417 2 443 11 q 363 -12 392 -7 q 301 -17 333 -17 z "},"ã":{"ha":764,"x_min":51,"x_max":692,"o":"m 301 -17 q 117 33 182 -17 q 51 167 51 83 q 76 264 51 219 q 150 341 100 308 q 276 392 200 374 q 454 410 351 410 q 485 410 467 410 q 524 408 503 410 q 563 407 544 407 l 567 286 q 530 287 551 286 q 487 288 508 288 q 451 288 465 288 q 343 280 386 288 q 276 258 300 272 q 240 227 251 244 q 229 190 229 210 q 237 158 229 172 q 258 137 244 144 q 292 125 272 129 q 336 121 313 121 q 414 133 381 121 q 470 172 447 144 q 504 240 493 199 q 515 340 515 282 q 497 458 515 417 q 446 513 479 499 q 364 528 413 528 q 268 515 311 528 q 182 461 225 501 l 82 565 q 218 642 144 619 q 371 665 292 665 q 495 651 438 665 q 597 606 553 638 q 667 518 642 574 q 692 379 692 463 l 692 0 l 510 0 l 510 63 q 466 26 489 42 q 417 2 443 11 q 363 -12 392 -7 q 301 -17 333 -17 m 540 931 l 632 881 q 565 794 603 821 q 481 767 528 767 q 406 780 435 767 q 356 811 376 793 q 318 842 335 829 q 279 856 301 856 q 233 837 254 856 q 196 786 213 818 l 103 835 q 170 928 129 899 q 274 958 211 958 q 342 946 314 958 q 390 916 369 933 q 429 886 410 899 q 471 874 449 874 q 511 889 496 874 q 540 931 526 904 z "},"æ":{"ha":764,"x_min":3,"x_max":765,"o":"m 222 -17 q 114 5 164 -17 q 33 71 64 26 q 3 181 3 115 q 23 272 3 231 q 83 343 43 313 q 181 391 124 374 q 310 410 238 408 q 297 477 310 450 q 262 520 283 504 q 214 536 240 536 q 157 519 186 536 q 106 471 128 501 l 25 571 q 117 641 64 618 q 232 664 171 664 q 297 653 265 664 q 355 624 329 642 q 394 586 381 606 q 433 625 411 607 q 483 653 456 643 q 538 664 511 664 q 662 628 614 664 q 733 527 710 592 q 756 376 756 463 l 756 307 l 454 294 l 454 249 q 463 192 454 217 q 485 148 471 167 q 522 119 500 129 q 569 110 543 110 q 612 116 590 110 q 653 138 633 122 q 688 174 672 153 l 765 76 q 672 8 724 32 q 561 -17 619 -17 q 497 -7 528 -17 q 438 22 465 3 q 390 67 411 40 q 347 22 374 42 q 288 -7 319 3 q 222 -17 256 -17 m 228 113 q 275 127 256 113 q 304 180 294 142 q 314 289 314 218 q 220 271 256 288 q 169 231 185 254 q 154 183 154 207 q 163 145 154 161 q 188 121 171 129 q 228 113 204 113 m 454 415 l 629 419 q 618 483 629 457 q 588 522 607 508 q 543 536 569 536 q 498 521 518 536 q 466 478 478 506 q 454 415 454 451 z "},"ǽ":{"ha":764,"x_min":3,"x_max":765,"o":"m 222 -17 q 114 5 164 -17 q 33 71 64 26 q 3 181 3 115 q 23 272 3 231 q 83 343 43 313 q 181 391 124 374 q 310 410 238 408 q 297 477 310 450 q 262 520 283 504 q 214 536 240 536 q 157 519 186 536 q 106 471 128 501 l 25 571 q 117 641 64 618 q 232 664 171 664 q 297 653 265 664 q 355 624 329 642 q 394 586 381 606 q 433 625 411 607 q 483 653 456 643 q 538 664 511 664 q 662 628 614 664 q 733 527 710 592 q 756 376 756 463 l 756 307 l 454 294 l 454 249 q 463 192 454 217 q 485 148 471 167 q 522 119 500 129 q 569 110 543 110 q 612 116 590 110 q 653 138 633 122 q 688 174 672 153 l 765 76 q 672 8 724 32 q 561 -17 619 -17 q 497 -7 528 -17 q 438 22 465 3 q 390 67 411 40 q 347 22 374 42 q 288 -7 319 3 q 222 -17 256 -17 m 228 113 q 275 127 256 113 q 304 180 294 142 q 314 289 314 218 q 220 271 256 288 q 169 231 185 254 q 154 183 154 207 q 163 145 154 161 q 188 121 171 129 q 228 113 204 113 m 454 415 l 629 419 q 618 483 629 457 q 588 522 607 508 q 543 536 569 536 q 498 521 518 536 q 466 478 478 506 q 454 415 454 451 z "},"b":{"ha":764,"x_min":67,"x_max":729,"o":"m 428 -17 q 351 -7 388 -17 q 285 22 315 3 q 231 69 254 42 l 201 0 l 67 0 l 67 933 l 246 933 l 258 933 l 258 919 q 249 901 251 911 q 247 868 247 892 l 247 582 q 283 617 263 601 q 329 643 304 632 q 381 660 354 654 q 436 665 408 665 q 555 643 501 664 q 647 581 608 622 q 708 479 686 540 q 729 336 729 418 q 705 179 729 246 q 640 69 681 113 q 544 5 599 26 q 428 -17 489 -17 l 428 -17 m 392 119 q 453 130 425 119 q 504 164 482 140 q 539 226 526 188 q 551 319 551 265 q 540 409 551 369 q 510 476 529 449 q 461 519 490 504 q 396 533 432 533 q 317 510 350 533 q 266 441 283 486 q 249 329 249 396 q 257 238 249 278 q 283 172 265 199 q 328 133 301 146 q 392 119 356 119 l 392 119 z "},"ʘ":{"ha":764,"x_min":28,"x_max":743,"o":"m 385 -17 q 188 36 268 -17 q 68 190 108 89 q 28 433 28 290 q 68 673 28 574 q 188 826 108 772 q 385 879 268 879 q 581 826 501 879 q 701 673 660 772 q 743 433 743 574 q 701 189 743 290 q 581 35 660 88 q 385 -17 501 -17 m 385 126 q 482 160 442 126 q 544 261 522 193 q 567 435 567 329 q 544 599 567 532 q 482 701 522 667 q 385 736 442 736 q 287 701 328 736 q 225 599 246 667 q 204 435 204 532 q 225 261 204 329 q 287 160 246 193 q 385 126 328 126 m 381 358 q 320 382 344 358 q 296 439 296 406 q 319 496 296 474 q 381 518 343 518 q 438 494 413 518 q 464 439 464 471 q 438 382 464 406 q 381 358 413 358 z "},"c":{"ha":764,"x_min":56,"x_max":715,"o":"m 424 -17 q 278 8 346 -17 q 161 77 211 32 q 83 183 111 122 q 56 318 56 244 q 83 455 56 392 q 161 565 111 518 q 278 638 211 611 q 425 665 346 665 q 597 632 524 665 q 715 539 671 599 l 619 431 l 610 419 l 599 429 q 596 451 599 440 q 578 481 593 463 q 511 515 549 506 q 428 524 474 524 q 356 510 390 524 q 295 472 322 497 q 253 408 268 446 q 238 318 238 369 q 253 238 238 274 q 296 177 269 201 q 358 140 322 153 q 431 126 393 126 q 495 133 464 126 q 556 158 526 140 q 613 206 586 175 l 708 92 q 576 8 651 33 q 424 -17 500 -17 l 424 -17 z "},"ć":{"ha":764,"x_min":56,"x_max":715,"o":"m 424 -17 q 278 8 346 -17 q 161 77 211 32 q 83 183 111 122 q 56 318 56 244 q 83 455 56 392 q 161 565 111 518 q 278 638 211 611 q 425 665 346 665 q 597 632 524 665 q 715 539 671 599 l 619 431 l 610 419 l 599 429 q 596 451 599 440 q 578 481 593 463 q 511 515 549 506 q 428 524 474 524 q 356 510 390 524 q 295 472 322 497 q 253 408 268 446 q 238 318 238 369 q 253 238 238 274 q 296 177 269 201 q 358 140 322 153 q 431 126 393 126 q 495 133 464 126 q 556 158 526 140 q 613 206 586 175 l 708 92 q 576 8 651 33 q 424 -17 500 -17 l 424 -17 z "},"č":{"ha":764,"x_min":56,"x_max":715,"o":"m 424 -17 q 278 8 346 -17 q 161 77 211 32 q 83 183 111 122 q 56 318 56 244 q 83 455 56 392 q 161 565 111 518 q 278 638 211 611 q 425 665 346 665 q 597 632 524 665 q 715 539 671 599 l 619 431 l 610 419 l 599 429 q 596 451 599 440 q 578 481 593 463 q 511 515 549 506 q 428 524 474 524 q 356 510 390 524 q 295 472 322 497 q 253 408 268 446 q 238 318 238 369 q 253 238 238 274 q 296 177 269 201 q 358 140 322 153 q 431 126 393 126 q 495 133 464 126 q 556 158 526 140 q 613 206 586 175 l 708 92 q 576 8 651 33 q 424 -17 500 -17 l 424 -17 m 243 983 l 414 846 l 586 983 l 668 906 l 446 719 l 385 719 l 163 906 l 243 983 z "},"ç":{"ha":764,"x_min":56,"x_max":715,"o":"m 424 -17 q 278 8 346 -17 q 161 77 211 32 q 83 183 111 122 q 56 318 56 244 q 83 455 56 392 q 161 565 111 518 q 278 638 211 611 q 425 665 346 665 q 597 632 524 665 q 715 539 671 599 l 619 431 l 610 419 l 599 429 q 596 451 599 440 q 578 481 593 463 q 511 515 549 506 q 428 524 474 524 q 356 510 390 524 q 295 472 322 497 q 253 408 268 446 q 238 318 238 369 q 253 238 238 274 q 296 177 269 201 q 358 140 322 153 q 431 126 393 126 q 495 133 464 126 q 556 158 526 140 q 613 206 586 175 l 708 92 q 576 8 651 33 q 424 -17 500 -17 l 424 -17 z "},"ḉ":{"ha":764,"x_min":56,"x_max":715,"o":"m 424 -17 q 278 8 346 -17 q 161 77 211 32 q 83 183 111 122 q 56 318 56 244 q 83 455 56 392 q 161 565 111 518 q 278 638 211 611 q 425 665 346 665 q 597 632 524 665 q 715 539 671 599 l 619 431 l 610 419 l 599 429 q 596 451 599 440 q 578 481 593 463 q 511 515 549 506 q 428 524 474 524 q 356 510 390 524 q 295 472 322 497 q 253 408 268 446 q 238 318 238 369 q 253 238 238 274 q 296 177 269 201 q 358 140 322 153 q 431 126 393 126 q 495 133 464 126 q 556 158 526 140 q 613 206 586 175 l 708 92 q 576 8 651 33 q 424 -17 500 -17 l 424 -17 z "},"ĉ":{"ha":764,"x_min":56,"x_max":715,"o":"m 424 -17 q 278 8 346 -17 q 161 77 211 32 q 83 183 111 122 q 56 318 56 244 q 83 455 56 392 q 161 565 111 518 q 278 638 211 611 q 425 665 346 665 q 597 632 524 665 q 715 539 671 599 l 619 431 l 610 419 l 599 429 q 596 451 599 440 q 578 481 593 463 q 511 515 549 506 q 428 524 474 524 q 356 510 390 524 q 295 472 322 497 q 253 408 268 446 q 238 318 238 369 q 253 238 238 274 q 296 177 269 201 q 358 140 322 153 q 431 126 393 126 q 495 133 464 126 q 556 158 526 140 q 613 206 586 175 l 708 92 q 576 8 651 33 q 424 -17 500 -17 l 424 -17 m 247 689 l 165 765 l 388 953 l 449 953 l 671 765 l 590 689 l 418 825 l 247 689 z "},"ċ":{"ha":764,"x_min":56,"x_max":715,"o":"m 424 -17 q 278 8 346 -17 q 161 77 211 32 q 83 183 111 122 q 56 318 56 244 q 83 455 56 392 q 161 565 111 518 q 278 638 211 611 q 425 665 346 665 q 597 632 524 665 q 715 539 671 599 l 619 431 l 610 419 l 599 429 q 596 451 599 440 q 578 481 593 463 q 511 515 549 506 q 428 524 474 524 q 356 510 390 524 q 295 472 322 497 q 253 408 268 446 q 238 318 238 369 q 253 238 238 274 q 296 177 269 201 q 358 140 322 153 q 431 126 393 126 q 495 133 464 126 q 556 158 526 140 q 613 206 586 175 l 708 92 q 576 8 651 33 q 424 -17 500 -17 l 424 -17 z "},"d":{"ha":764,"x_min":44,"x_max":710,"o":"m 343 -15 q 226 6 281 -15 q 131 70 172 28 q 67 177 90 113 q 44 326 44 242 q 67 474 44 411 q 129 581 89 538 q 225 644 169 624 q 343 665 281 665 q 414 658 381 665 q 474 636 447 651 q 517 594 500 621 l 517 933 l 694 933 l 707 933 l 707 919 q 697 901 700 911 q 696 868 694 892 l 694 83 q 697 42 694 63 q 710 0 700 21 l 533 0 q 524 23 526 14 q 520 41 521 32 q 519 64 519 50 q 474 18 501 36 q 413 -8 447 0 q 343 -15 379 -17 l 343 -15 m 374 125 q 435 137 408 125 q 480 172 463 149 q 506 235 497 196 q 515 326 515 274 q 499 442 515 397 q 451 507 483 486 q 369 528 418 528 q 306 514 333 528 q 258 474 278 500 q 229 411 239 449 q 219 326 219 374 q 241 217 219 263 q 297 149 263 172 q 374 125 332 125 l 374 125 z "},"ð":{"ha":764,"x_min":51,"x_max":719,"o":"m 390 -21 q 255 2 317 -21 q 147 67 193 25 q 76 169 101 110 q 51 304 51 229 q 75 443 51 379 q 140 554 99 507 q 235 628 181 601 q 351 654 289 654 q 409 649 382 654 q 458 634 436 644 q 497 608 481 624 q 453 676 478 643 q 397 732 428 710 l 233 690 l 193 806 l 296 829 q 257 856 275 843 q 217 882 239 869 q 165 903 196 894 l 354 946 q 410 913 385 928 q 464 876 436 899 l 640 921 l 681 807 l 575 776 q 635 690 608 738 q 681 588 663 643 q 710 473 700 533 q 719 350 719 413 q 698 199 719 267 q 635 82 676 131 q 532 6 593 33 q 390 -21 471 -21 m 393 122 q 451 135 425 122 q 499 172 478 147 q 531 233 519 197 q 543 317 543 269 q 534 388 543 357 q 510 441 525 418 q 476 479 496 464 q 435 502 457 494 q 389 510 413 510 q 333 497 361 510 q 281 460 304 485 q 245 400 258 436 q 232 317 232 364 q 245 238 232 274 q 281 176 258 201 q 332 136 303 150 q 393 122 361 122 z "},"ď":{"ha":764,"x_min":33,"x_max":751,"o":"m 267 -15 q 176 3 218 -15 q 101 63 133 22 q 51 168 69 103 q 33 326 33 233 q 50 481 33 417 q 98 587 67 546 q 172 647 129 628 q 267 667 215 667 q 349 650 313 667 q 403 592 385 633 l 403 931 l 560 931 l 572 931 l 572 917 q 563 899 565 908 q 561 865 560 889 l 560 88 q 562 44 560 65 q 572 0 564 22 l 417 0 q 408 22 411 13 q 405 40 406 31 q 404 64 404 50 q 368 19 390 38 q 320 -7 346 1 q 267 -15 294 -15 l 267 -15 m 296 121 q 355 143 332 121 q 390 210 378 165 q 403 325 403 256 q 391 446 403 400 q 356 513 379 492 q 297 535 332 535 q 251 522 271 535 q 217 485 232 510 q 196 422 203 461 q 189 329 189 383 q 197 237 189 276 q 221 172 206 197 q 256 133 236 146 q 296 121 275 121 l 296 121 m 663 929 q 728 905 704 929 q 751 836 751 881 q 740 766 751 800 q 708 697 729 732 q 657 622 686 663 l 575 678 q 606 713 593 697 q 624 744 618 729 q 631 774 631 758 q 619 795 631 786 q 596 819 608 804 q 583 861 583 833 q 607 910 583 890 q 663 929 631 929 z "},"đ":{"ha":764,"x_min":44,"x_max":761,"o":"m 343 -15 q 226 6 281 -15 q 131 70 172 28 q 67 177 90 113 q 44 326 44 242 q 67 474 44 411 q 129 581 89 538 q 225 644 169 624 q 343 665 281 665 q 414 658 381 665 q 474 636 447 651 q 517 594 500 621 l 517 933 l 694 933 l 707 933 l 707 919 q 697 901 700 911 q 696 868 694 892 l 694 83 q 697 42 694 63 q 710 0 700 21 l 533 0 q 524 23 526 14 q 520 41 521 32 q 519 64 519 50 q 474 18 501 36 q 413 -8 447 0 q 343 -15 379 -17 l 343 -15 m 374 125 q 435 137 408 125 q 480 172 463 149 q 506 235 497 196 q 515 326 515 274 q 499 442 515 397 q 451 507 483 486 q 369 528 418 528 q 306 514 333 528 q 258 474 278 500 q 229 411 239 449 q 219 326 219 374 q 241 217 219 263 q 297 149 263 172 q 374 125 332 125 l 374 125 m 339 725 l 339 836 l 761 836 l 761 725 l 339 725 z "},"ḍ":{"ha":764,"x_min":44,"x_max":710,"o":"m 343 -15 q 226 6 281 -15 q 131 70 172 28 q 67 177 90 113 q 44 326 44 242 q 67 474 44 411 q 129 581 89 538 q 225 644 169 624 q 343 665 281 665 q 414 658 381 665 q 474 636 447 651 q 517 594 500 621 l 517 933 l 694 933 l 707 933 l 707 919 q 697 901 700 911 q 696 868 694 892 l 694 83 q 697 42 694 63 q 710 0 700 21 l 533 0 q 524 23 526 14 q 520 41 521 32 q 519 64 519 50 q 474 18 501 36 q 413 -8 447 0 q 343 -15 379 -17 l 343 -15 m 374 125 q 435 137 408 125 q 480 172 463 149 q 506 235 497 196 q 515 326 515 274 q 499 442 515 397 q 451 507 483 486 q 369 528 418 528 q 306 514 333 528 q 258 474 278 500 q 229 411 239 449 q 219 326 219 374 q 241 217 219 263 q 297 149 263 172 q 374 125 332 125 l 374 125 z "},"ḏ":{"ha":764,"x_min":44,"x_max":710,"o":"m 343 -15 q 226 6 281 -15 q 131 70 172 28 q 67 177 90 113 q 44 326 44 242 q 67 474 44 411 q 129 581 89 538 q 225 644 169 624 q 343 665 281 665 q 414 658 381 665 q 474 636 447 651 q 517 594 500 621 l 517 933 l 694 933 l 707 933 l 707 919 q 697 901 700 911 q 696 868 694 892 l 694 83 q 697 42 694 63 q 710 0 700 21 l 533 0 q 524 23 526 14 q 520 41 521 32 q 519 64 519 50 q 474 18 501 36 q 413 -8 447 0 q 343 -15 379 -17 l 343 -15 m 374 125 q 435 137 408 125 q 480 172 463 149 q 506 235 497 196 q 515 326 515 274 q 499 442 515 397 q 451 507 483 486 q 369 528 418 528 q 306 514 333 528 q 258 474 278 500 q 229 411 239 449 q 219 326 219 374 q 241 217 219 263 q 297 149 263 172 q 374 125 332 125 l 374 125 z "},"e":{"ha":764,"x_min":54,"x_max":706,"o":"m 414 -15 q 272 7 338 -15 q 157 72 206 29 q 81 177 108 114 q 54 319 54 240 q 81 464 54 400 q 153 573 107 528 q 260 642 199 618 q 394 665 322 665 q 515 644 458 665 q 614 583 571 624 q 681 482 657 542 q 706 344 706 422 q 705 308 706 329 q 703 272 704 286 l 226 272 q 247 205 229 233 q 291 158 264 176 q 351 131 318 140 q 422 122 385 122 q 485 127 454 122 q 543 144 515 132 q 593 179 571 157 l 685 92 q 608 30 651 54 q 516 -5 565 6 q 414 -15 467 -15 m 228 404 l 535 404 q 523 458 533 435 q 494 497 513 481 q 448 520 475 513 q 388 528 421 528 q 328 520 356 528 q 281 497 301 513 q 246 459 260 482 q 228 404 232 436 z "},"é":{"ha":764,"x_min":54,"x_max":706,"o":"m 414 -15 q 272 7 338 -15 q 157 72 206 29 q 81 177 108 114 q 54 319 54 240 q 81 464 54 400 q 153 573 107 528 q 260 642 199 618 q 394 665 322 665 q 515 644 458 665 q 614 583 571 624 q 681 482 657 542 q 706 344 706 422 q 705 308 706 329 q 703 272 704 286 l 226 272 q 247 205 229 233 q 291 158 264 176 q 351 131 318 140 q 422 122 385 122 q 485 127 454 122 q 543 144 515 132 q 593 179 571 157 l 685 92 q 608 30 651 54 q 516 -5 565 6 q 414 -15 467 -15 m 228 404 l 535 404 q 523 458 533 435 q 494 497 513 481 q 448 520 475 513 q 388 528 421 528 q 328 520 356 528 q 281 497 301 513 q 246 459 260 482 q 228 404 232 436 z "},"ĕ":{"ha":764,"x_min":54,"x_max":706,"o":"m 414 -15 q 272 7 338 -15 q 157 72 206 29 q 81 177 108 114 q 54 319 54 240 q 81 464 54 400 q 153 573 107 528 q 260 642 199 618 q 394 665 322 665 q 515 644 458 665 q 614 583 571 624 q 681 482 657 542 q 706 344 706 422 q 705 308 706 329 q 703 272 704 286 l 226 272 q 247 205 229 233 q 291 158 264 176 q 351 131 318 140 q 422 122 385 122 q 485 127 454 122 q 543 144 515 132 q 593 179 571 157 l 685 92 q 608 30 651 54 q 516 -5 565 6 q 414 -15 467 -15 m 228 404 l 535 404 q 523 458 533 435 q 494 497 513 481 q 448 520 475 513 q 388 528 421 528 q 328 520 356 528 q 281 497 301 513 q 246 459 260 482 q 228 404 232 436 m 522 933 l 626 881 q 529 770 589 810 q 396 731 469 731 q 262 770 321 731 q 165 882 203 810 l 268 935 q 324 858 293 883 q 396 832 354 832 q 447 842 424 832 q 490 876 469 853 q 522 933 510 899 z "},"ě":{"ha":764,"x_min":54,"x_max":706,"o":"m 414 -15 q 272 7 338 -15 q 157 72 206 29 q 81 177 108 114 q 54 319 54 240 q 81 464 54 400 q 153 573 107 528 q 260 642 199 618 q 394 665 322 665 q 515 644 458 665 q 614 583 571 624 q 681 482 657 542 q 706 344 706 422 q 705 308 706 329 q 703 272 704 286 l 226 272 q 247 205 229 233 q 291 158 264 176 q 351 131 318 140 q 422 122 385 122 q 485 127 454 122 q 543 144 515 132 q 593 179 571 157 l 685 92 q 608 30 651 54 q 516 -5 565 6 q 414 -15 467 -15 m 228 404 l 535 404 q 523 458 533 435 q 494 497 513 481 q 448 520 475 513 q 388 528 421 528 q 328 520 356 528 q 281 497 301 513 q 246 459 260 482 q 228 404 232 436 m 218 982 l 389 844 l 561 982 l 643 904 l 421 718 l 360 718 l 138 904 l 218 982 z "},"ḝ":{"ha":764,"x_min":54,"x_max":706,"o":"m 414 -15 q 272 7 338 -15 q 157 72 206 29 q 81 177 108 114 q 54 319 54 240 q 81 464 54 400 q 153 573 107 528 q 260 642 199 618 q 394 665 322 665 q 515 644 458 665 q 614 583 571 624 q 681 482 657 542 q 706 344 706 422 q 705 308 706 329 q 703 272 704 286 l 226 272 q 247 205 229 233 q 291 158 264 176 q 351 131 318 140 q 422 122 385 122 q 485 127 454 122 q 543 144 515 132 q 593 179 571 157 l 685 92 q 608 30 651 54 q 516 -5 565 6 q 414 -15 467 -15 m 228 404 l 535 404 q 523 458 533 435 q 494 497 513 481 q 448 520 475 513 q 388 528 421 528 q 328 520 356 528 q 281 497 301 513 q 246 459 260 482 q 228 404 232 436 m 522 933 l 626 881 q 529 770 589 810 q 396 731 469 731 q 262 770 321 731 q 165 882 203 810 l 268 935 q 324 858 293 883 q 396 832 354 832 q 447 842 424 832 q 490 876 469 853 q 522 933 510 899 z "},"ê":{"ha":764,"x_min":54,"x_max":706,"o":"m 414 -15 q 272 7 338 -15 q 157 72 206 29 q 81 177 108 114 q 54 319 54 240 q 81 464 54 400 q 153 573 107 528 q 260 642 199 618 q 394 665 322 665 q 515 644 458 665 q 614 583 571 624 q 681 482 657 542 q 706 344 706 422 q 705 308 706 329 q 703 272 704 286 l 226 272 q 247 205 229 233 q 291 158 264 176 q 351 131 318 140 q 422 122 385 122 q 485 127 454 122 q 543 144 515 132 q 593 179 571 157 l 685 92 q 608 30 651 54 q 516 -5 565 6 q 414 -15 467 -15 m 228 404 l 535 404 q 523 458 533 435 q 494 497 513 481 q 448 520 475 513 q 388 528 421 528 q 328 520 356 528 q 281 497 301 513 q 246 459 260 482 q 228 404 232 436 m 222 688 l 140 764 l 363 951 l 424 951 l 646 764 l 565 688 l 393 824 l 222 688 z "},"ế":{"ha":764,"x_min":54,"x_max":783,"o":"m 414 -15 q 272 7 338 -15 q 157 72 206 29 q 81 177 108 114 q 54 319 54 240 q 81 464 54 400 q 153 573 107 528 q 260 642 199 618 q 394 665 322 665 q 515 644 458 665 q 614 583 571 624 q 681 482 657 542 q 706 344 706 422 q 705 308 706 329 q 703 272 704 286 l 226 272 q 247 205 229 233 q 291 158 264 176 q 351 131 318 140 q 422 122 385 122 q 485 127 454 122 q 543 144 515 132 q 593 179 571 157 l 685 92 q 608 30 651 54 q 516 -5 565 6 q 414 -15 467 -15 m 228 404 l 535 404 q 523 458 533 435 q 494 497 513 481 q 448 520 475 513 q 388 528 421 528 q 328 520 356 528 q 281 497 301 513 q 246 459 260 482 q 228 404 232 436 z "},"ệ":{"ha":764,"x_min":54,"x_max":706,"o":"m 414 -15 q 272 7 338 -15 q 157 72 206 29 q 81 177 108 114 q 54 319 54 240 q 81 464 54 400 q 153 573 107 528 q 260 642 199 618 q 394 665 322 665 q 515 644 458 665 q 614 583 571 624 q 681 482 657 542 q 706 344 706 422 q 705 308 706 329 q 703 272 704 286 l 226 272 q 247 205 229 233 q 291 158 264 176 q 351 131 318 140 q 422 122 385 122 q 485 127 454 122 q 543 144 515 132 q 593 179 571 157 l 685 92 q 608 30 651 54 q 516 -5 565 6 q 414 -15 467 -15 m 228 404 l 535 404 q 523 458 533 435 q 494 497 513 481 q 448 520 475 513 q 388 528 421 528 q 328 520 356 528 q 281 497 301 513 q 246 459 260 482 q 228 404 232 436 m 222 688 l 140 764 l 363 951 l 424 951 l 646 764 l 565 688 l 393 824 l 222 688 z "},"ề":{"ha":764,"x_min":54,"x_max":706,"o":"m 414 -15 q 272 7 338 -15 q 157 72 206 29 q 81 177 108 114 q 54 319 54 240 q 81 464 54 400 q 153 573 107 528 q 260 642 199 618 q 394 665 322 665 q 515 644 458 665 q 614 583 571 624 q 681 482 657 542 q 706 344 706 422 q 705 308 706 329 q 703 272 704 286 l 226 272 q 247 205 229 233 q 291 158 264 176 q 351 131 318 140 q 422 122 385 122 q 485 127 454 122 q 543 144 515 132 q 593 179 571 157 l 685 92 q 608 30 651 54 q 516 -5 565 6 q 414 -15 467 -15 m 228 404 l 535 404 q 523 458 533 435 q 494 497 513 481 q 448 520 475 513 q 388 528 421 528 q 328 520 356 528 q 281 497 301 513 q 246 459 260 482 q 228 404 232 436 z "},"ể":{"ha":764,"x_min":54,"x_max":772,"o":"m 414 -15 q 272 7 338 -15 q 157 72 206 29 q 81 177 108 114 q 54 319 54 240 q 81 464 54 400 q 153 573 107 528 q 260 642 199 618 q 394 665 322 665 q 515 644 458 665 q 614 583 571 624 q 681 482 657 542 q 706 344 706 422 q 705 308 706 329 q 703 272 704 286 l 226 272 q 247 205 229 233 q 291 158 264 176 q 351 131 318 140 q 422 122 385 122 q 485 127 454 122 q 543 144 515 132 q 593 179 571 157 l 685 92 q 608 30 651 54 q 516 -5 565 6 q 414 -15 467 -15 m 228 404 l 535 404 q 523 458 533 435 q 494 497 513 481 q 448 520 475 513 q 388 528 421 528 q 328 520 356 528 q 281 497 301 513 q 246 459 260 482 q 228 404 232 436 z "},"ễ":{"ha":764,"x_min":54,"x_max":706,"o":"m 414 -15 q 272 7 338 -15 q 157 72 206 29 q 81 177 108 114 q 54 319 54 240 q 81 464 54 400 q 153 573 107 528 q 260 642 199 618 q 394 665 322 665 q 515 644 458 665 q 614 583 571 624 q 681 482 657 542 q 706 344 706 422 q 705 308 706 329 q 703 272 704 286 l 226 272 q 247 205 229 233 q 291 158 264 176 q 351 131 318 140 q 422 122 385 122 q 485 127 454 122 q 543 144 515 132 q 593 179 571 157 l 685 92 q 608 30 651 54 q 516 -5 565 6 q 414 -15 467 -15 m 228 404 l 535 404 q 523 458 533 435 q 494 497 513 481 q 448 520 475 513 q 388 528 421 528 q 328 520 356 528 q 281 497 301 513 q 246 459 260 482 q 228 404 232 436 z "},"ȅ":{"ha":764,"x_min":54,"x_max":706,"o":"m 414 -15 q 272 7 338 -15 q 157 72 206 29 q 81 177 108 114 q 54 319 54 240 q 81 464 54 400 q 153 573 107 528 q 260 642 199 618 q 394 665 322 665 q 515 644 458 665 q 614 583 571 624 q 681 482 657 542 q 706 344 706 422 q 705 308 706 329 q 703 272 704 286 l 226 272 q 247 205 229 233 q 291 158 264 176 q 351 131 318 140 q 422 122 385 122 q 485 127 454 122 q 543 144 515 132 q 593 179 571 157 l 685 92 q 608 30 651 54 q 516 -5 565 6 q 414 -15 467 -15 m 228 404 l 535 404 q 523 458 533 435 q 494 497 513 481 q 448 520 475 513 q 388 528 421 528 q 328 520 356 528 q 281 497 301 513 q 246 459 260 482 q 228 404 232 436 z "},"ë":{"ha":764,"x_min":54,"x_max":706,"o":"m 414 -15 q 272 7 338 -15 q 157 72 206 29 q 81 177 108 114 q 54 319 54 240 q 81 464 54 400 q 153 573 107 528 q 260 642 199 618 q 394 665 322 665 q 515 644 458 665 q 614 583 571 624 q 681 482 657 542 q 706 344 706 422 q 705 308 706 329 q 703 272 704 286 l 226 272 q 247 205 229 233 q 291 158 264 176 q 351 131 318 140 q 422 122 385 122 q 485 127 454 122 q 543 144 515 132 q 593 179 571 157 l 685 92 q 608 30 651 54 q 516 -5 565 6 q 414 -15 467 -15 m 228 404 l 535 404 q 523 458 533 435 q 494 497 513 481 q 448 520 475 513 q 388 528 421 528 q 328 520 356 528 q 281 497 301 513 q 246 459 260 482 q 228 404 232 436 z "},"ė":{"ha":764,"x_min":54,"x_max":706,"o":"m 414 -15 q 272 7 338 -15 q 157 72 206 29 q 81 177 108 114 q 54 319 54 240 q 81 464 54 400 q 153 573 107 528 q 260 642 199 618 q 394 665 322 665 q 515 644 458 665 q 614 583 571 624 q 681 482 657 542 q 706 344 706 422 q 705 308 706 329 q 703 272 704 286 l 226 272 q 247 205 229 233 q 291 158 264 176 q 351 131 318 140 q 422 122 385 122 q 485 127 454 122 q 543 144 515 132 q 593 179 571 157 l 685 92 q 608 30 651 54 q 516 -5 565 6 q 414 -15 467 -15 m 228 404 l 535 404 q 523 458 533 435 q 494 497 513 481 q 448 520 475 513 q 388 528 421 528 q 328 520 356 528 q 281 497 301 513 q 246 459 260 482 q 228 404 232 436 z "},"ẹ":{"ha":764,"x_min":54,"x_max":706,"o":"m 414 -15 q 272 7 338 -15 q 157 72 206 29 q 81 177 108 114 q 54 319 54 240 q 81 464 54 400 q 153 573 107 528 q 260 642 199 618 q 394 665 322 665 q 515 644 458 665 q 614 583 571 624 q 681 482 657 542 q 706 344 706 422 q 705 308 706 329 q 703 272 704 286 l 226 272 q 247 205 229 233 q 291 158 264 176 q 351 131 318 140 q 422 122 385 122 q 485 127 454 122 q 543 144 515 132 q 593 179 571 157 l 685 92 q 608 30 651 54 q 516 -5 565 6 q 414 -15 467 -15 m 228 404 l 535 404 q 523 458 533 435 q 494 497 513 481 q 448 520 475 513 q 388 528 421 528 q 328 520 356 528 q 281 497 301 513 q 246 459 260 482 q 228 404 232 436 z "},"è":{"ha":764,"x_min":54,"x_max":706,"o":"m 414 -15 q 272 7 338 -15 q 157 72 206 29 q 81 177 108 114 q 54 319 54 240 q 81 464 54 400 q 153 573 107 528 q 260 642 199 618 q 394 665 322 665 q 515 644 458 665 q 614 583 571 624 q 681 482 657 542 q 706 344 706 422 q 705 308 706 329 q 703 272 704 286 l 226 272 q 247 205 229 233 q 291 158 264 176 q 351 131 318 140 q 422 122 385 122 q 485 127 454 122 q 543 144 515 132 q 593 179 571 157 l 685 92 q 608 30 651 54 q 516 -5 565 6 q 414 -15 467 -15 m 228 404 l 535 404 q 523 458 533 435 q 494 497 513 481 q 448 520 475 513 q 388 528 421 528 q 328 520 356 528 q 281 497 301 513 q 246 459 260 482 q 228 404 232 436 z "},"ẻ":{"ha":764,"x_min":54,"x_max":706,"o":"m 414 -15 q 272 7 338 -15 q 157 72 206 29 q 81 177 108 114 q 54 319 54 240 q 81 464 54 400 q 153 573 107 528 q 260 642 199 618 q 394 665 322 665 q 515 644 458 665 q 614 583 571 624 q 681 482 657 542 q 706 344 706 422 q 705 308 706 329 q 703 272 704 286 l 226 272 q 247 205 229 233 q 291 158 264 176 q 351 131 318 140 q 422 122 385 122 q 485 127 454 122 q 543 144 515 132 q 593 179 571 157 l 685 92 q 608 30 651 54 q 516 -5 565 6 q 414 -15 467 -15 m 228 404 l 535 404 q 523 458 533 435 q 494 497 513 481 q 448 520 475 513 q 388 528 421 528 q 328 520 356 528 q 281 497 301 513 q 246 459 260 482 q 228 404 232 436 m 572 892 q 556 841 572 863 q 519 802 540 819 q 483 768 499 785 q 467 731 467 751 l 467 719 l 354 719 l 354 757 q 369 797 354 779 q 405 830 385 815 q 440 858 425 844 q 454 885 454 871 q 440 913 454 903 q 404 924 425 924 q 352 912 375 924 q 314 869 329 900 l 253 953 q 326 1003 282 986 q 413 1018 369 1019 q 496 1001 460 1018 q 552 957 532 985 q 572 892 572 929 z "},"ȇ":{"ha":764,"x_min":54,"x_max":706,"o":"m 414 -15 q 272 7 338 -15 q 157 72 206 29 q 81 177 108 114 q 54 319 54 240 q 81 464 54 400 q 153 573 107 528 q 260 642 199 618 q 394 665 322 665 q 515 644 458 665 q 614 583 571 624 q 681 482 657 542 q 706 344 706 422 q 705 308 706 329 q 703 272 704 286 l 226 272 q 247 205 229 233 q 291 158 264 176 q 351 131 318 140 q 422 122 385 122 q 485 127 454 122 q 543 144 515 132 q 593 179 571 157 l 685 92 q 608 30 651 54 q 516 -5 565 6 q 414 -15 467 -15 m 228 404 l 535 404 q 523 458 533 435 q 494 497 513 481 q 448 520 475 513 q 388 528 421 528 q 328 520 356 528 q 281 497 301 513 q 246 459 260 482 q 228 404 232 436 m 271 719 l 168 771 q 265 882 206 843 q 399 921 324 921 q 533 882 474 921 q 629 769 592 843 l 526 718 q 469 794 500 769 q 399 819 439 819 q 348 809 372 819 q 305 776 324 799 q 271 719 286 754 z "},"ē":{"ha":764,"x_min":54,"x_max":706,"o":"m 414 -15 q 272 7 338 -15 q 157 72 206 29 q 81 177 108 114 q 54 319 54 240 q 81 464 54 400 q 153 573 107 528 q 260 642 199 618 q 394 665 322 665 q 515 644 458 665 q 614 583 571 624 q 681 482 657 542 q 706 344 706 422 q 705 308 706 329 q 703 272 704 286 l 226 272 q 247 205 229 233 q 291 158 264 176 q 351 131 318 140 q 422 122 385 122 q 485 127 454 122 q 543 144 515 132 q 593 179 571 157 l 685 92 q 608 30 651 54 q 516 -5 565 6 q 414 -15 467 -15 m 228 404 l 535 404 q 523 458 533 435 q 494 497 513 481 q 448 520 475 513 q 388 528 421 528 q 328 520 356 528 q 281 497 301 513 q 246 459 260 482 q 228 404 232 436 z "},"ḗ":{"ha":764,"x_min":54,"x_max":706,"o":"m 414 -15 q 272 7 338 -15 q 157 72 206 29 q 81 177 108 114 q 54 319 54 240 q 81 464 54 400 q 153 573 107 528 q 260 642 199 618 q 394 665 322 665 q 515 644 458 665 q 614 583 571 624 q 681 482 657 542 q 706 344 706 422 q 705 308 706 329 q 703 272 704 286 l 226 272 q 247 205 229 233 q 291 158 264 176 q 351 131 318 140 q 422 122 385 122 q 485 127 454 122 q 543 144 515 132 q 593 179 571 157 l 685 92 q 608 30 651 54 q 516 -5 565 6 q 414 -15 467 -15 m 228 404 l 535 404 q 523 458 533 435 q 494 497 513 481 q 448 520 475 513 q 388 528 421 528 q 328 520 356 528 q 281 497 301 513 q 246 459 260 482 q 228 404 232 436 z "},"ḕ":{"ha":764,"x_min":54,"x_max":706,"o":"m 414 -15 q 272 7 338 -15 q 157 72 206 29 q 81 177 108 114 q 54 319 54 240 q 81 464 54 400 q 153 573 107 528 q 260 642 199 618 q 394 665 322 665 q 515 644 458 665 q 614 583 571 624 q 681 482 657 542 q 706 344 706 422 q 705 308 706 329 q 703 272 704 286 l 226 272 q 247 205 229 233 q 291 158 264 176 q 351 131 318 140 q 422 122 385 122 q 485 127 454 122 q 543 144 515 132 q 593 179 571 157 l 685 92 q 608 30 651 54 q 516 -5 565 6 q 414 -15 467 -15 m 228 404 l 535 404 q 523 458 533 435 q 494 497 513 481 q 448 520 475 513 q 388 528 421 528 q 328 520 356 528 q 281 497 301 513 q 246 459 260 482 q 228 404 232 436 z "},"ę":{"ha":764,"x_min":54,"x_max":706,"o":"m 414 -15 q 272 7 338 -15 q 157 72 206 29 q 81 177 108 114 q 54 319 54 240 q 81 464 54 400 q 153 573 107 528 q 260 642 199 618 q 394 665 322 665 q 515 644 458 665 q 614 583 571 624 q 681 482 657 542 q 706 344 706 422 q 705 308 706 329 q 703 272 704 286 l 226 272 q 247 205 229 233 q 291 158 264 176 q 351 131 318 140 q 422 122 385 122 q 485 127 454 122 q 543 144 515 132 q 593 179 571 157 l 685 92 q 608 30 651 54 q 516 -5 565 6 q 414 -15 467 -15 m 228 404 l 535 404 q 523 458 533 435 q 494 497 513 481 q 448 520 475 513 q 388 528 421 528 q 328 520 356 528 q 281 497 301 513 q 246 459 260 482 q 228 404 232 436 m 575 -176 l 504 -314 q 387 -270 432 -296 q 320 -214 342 -244 q 299 -151 299 -183 q 324 -80 299 -117 q 397 -7 349 -43 q 511 63 444 29 l 581 19 q 524 -28 547 -6 q 488 -69 500 -50 q 475 -104 475 -87 q 501 -147 475 -129 q 575 -176 526 -164 z "},"ʚ":{"ha":764,"x_min":40,"x_max":721,"o":"m 350 -26 q 176 -1 244 -26 q 74 71 107 25 q 40 175 40 117 q 57 246 40 215 q 101 300 74 276 q 167 340 129 324 q 92 406 117 367 q 68 494 68 446 q 101 577 68 538 q 197 643 133 617 q 347 669 260 669 q 553 626 469 669 q 678 506 636 583 q 721 325 721 429 q 678 138 721 217 q 551 17 635 60 q 350 -26 468 -25 m 354 117 q 465 139 422 117 q 530 206 508 161 q 551 324 551 251 q 534 432 551 388 q 476 500 517 476 q 367 524 436 524 q 294 513 322 524 q 254 488 267 503 q 242 453 242 472 q 253 422 242 438 q 288 397 264 407 q 356 388 313 388 q 387 388 375 388 q 419 392 399 389 l 419 267 q 390 268 399 268 q 374 268 382 268 q 349 268 367 268 q 284 262 311 268 q 240 246 257 256 q 217 224 224 236 q 210 200 210 213 q 225 161 210 181 q 272 129 240 142 q 354 117 304 117 z "},"ẽ":{"ha":764,"x_min":54,"x_max":706,"o":"m 414 -15 q 272 7 338 -15 q 157 72 206 29 q 81 177 108 114 q 54 319 54 240 q 81 464 54 400 q 153 573 107 528 q 260 642 199 618 q 394 665 322 665 q 515 644 458 665 q 614 583 571 624 q 681 482 657 542 q 706 344 706 422 q 705 308 706 329 q 703 272 704 286 l 226 272 q 247 205 229 233 q 291 158 264 176 q 351 131 318 140 q 422 122 385 122 q 485 127 454 122 q 543 144 515 132 q 593 179 571 157 l 685 92 q 608 30 651 54 q 516 -5 565 6 q 414 -15 467 -15 m 228 404 l 535 404 q 523 458 533 435 q 494 497 513 481 q 448 520 475 513 q 388 528 421 528 q 328 520 356 528 q 281 497 301 513 q 246 459 260 482 q 228 404 232 436 m 563 929 l 654 879 q 588 792 625 819 q 503 765 550 765 q 428 778 457 765 q 378 810 399 792 q 340 841 357 828 q 301 854 324 854 q 256 835 276 854 q 218 785 235 817 l 125 833 q 192 927 151 897 q 296 957 233 957 q 364 944 336 957 q 412 915 392 932 q 451 885 432 897 q 493 872 471 872 q 533 888 518 872 q 563 929 549 903 z "},"ə":{"ha":764,"x_min":58,"x_max":710,"o":"m 350 667 q 492 644 426 667 q 607 578 558 621 q 683 473 656 536 q 710 331 710 410 q 683 186 710 250 q 611 78 657 122 q 503 9 565 33 q 369 -15 442 -15 q 249 6 306 -15 q 150 67 193 26 q 83 169 107 108 q 58 307 58 229 q 59 342 58 321 q 61 378 60 364 l 538 378 q 517 446 535 418 q 473 492 500 474 q 413 519 446 510 q 342 528 379 528 q 280 523 311 528 q 221 506 249 518 q 171 471 193 493 l 79 558 q 156 621 113 597 q 248 656 199 644 q 350 667 297 667 m 536 246 l 229 246 q 241 192 231 215 q 270 154 251 169 q 316 131 289 139 q 376 124 343 124 q 435 131 408 124 q 483 153 463 138 q 518 191 504 168 q 536 246 532 214 z "},"ƹ":{"ha":764,"x_min":74,"x_max":701,"o":"m 413 -249 q 235 -212 311 -249 q 117 -115 160 -176 q 74 21 74 -54 q 103 149 74 93 q 185 242 132 204 q 310 300 238 281 q 469 319 382 319 l 517 319 l 517 178 q 388 169 440 181 q 306 136 336 157 q 263 88 275 115 q 250 29 250 60 q 274 -42 250 -14 q 338 -84 299 -71 q 424 -97 378 -97 q 521 -86 479 -97 q 594 -49 563 -75 q 614 -22 610 -31 q 617 -1 618 -12 l 626 10 l 636 1 l 701 -135 q 576 -221 646 -193 q 413 -249 506 -249 l 413 -249 m 103 518 l 103 644 l 643 644 l 643 493 l 333 493 l 517 319 l 367 269 l 103 518 z "},"f":{"ha":764,"x_min":46,"x_max":738,"o":"m 196 511 l 46 511 l 46 650 l 196 650 l 196 685 q 238 829 196 772 q 348 915 279 886 q 497 944 417 944 q 632 921 569 944 q 738 854 694 897 l 672 736 l 665 724 l 654 731 q 645 751 650 742 q 621 775 640 761 q 568 800 594 793 q 507 807 542 807 q 434 792 464 807 q 389 751 404 778 q 374 686 374 725 l 374 650 l 590 650 l 590 511 l 374 511 l 374 0 l 196 0 l 196 511 z "},"g":{"ha":764,"x_min":38,"x_max":742,"o":"m 363 -250 q 227 -237 288 -250 q 124 -203 167 -225 q 60 -149 82 -181 q 38 -79 38 -117 q 56 -17 38 -46 q 105 33 74 11 q 174 68 136 56 l 263 36 q 220 12 242 24 q 185 -15 199 0 q 172 -50 172 -29 q 188 -78 172 -67 q 230 -98 203 -90 q 294 -109 257 -106 q 378 -112 332 -112 q 476 -105 435 -112 q 538 -81 517 -97 q 560 -46 560 -65 q 547 -17 560 -28 q 501 -1 533 -6 q 414 4 469 4 q 316 8 364 4 q 226 21 268 11 q 150 47 183 31 q 98 88 117 64 q 79 147 79 113 q 111 228 79 194 q 186 289 143 263 l 272 247 q 245 228 258 236 q 223 213 232 221 q 214 192 214 206 q 240 167 214 178 q 319 152 265 157 q 463 147 374 147 q 576 133 529 147 q 651 94 622 119 q 692 38 679 69 q 706 -29 706 7 q 685 -110 706 -71 q 624 -181 665 -150 q 517 -231 582 -212 q 363 -250 451 -250 m 350 219 q 213 249 274 219 q 116 329 151 279 q 81 442 81 379 q 116 556 81 504 q 213 637 151 607 q 350 667 274 667 q 489 638 428 667 q 585 557 550 608 q 619 442 619 506 q 584 328 619 378 q 488 249 549 278 q 350 219 428 219 m 350 346 q 411 358 385 346 q 453 391 438 369 q 468 442 468 413 q 453 491 468 471 q 410 523 438 511 q 350 535 383 535 q 293 523 319 535 q 250 490 267 511 q 233 442 233 469 q 249 393 233 415 q 292 358 265 371 q 350 346 318 346 m 576 522 l 506 607 q 606 652 550 636 q 725 664 661 668 l 742 549 q 652 550 696 557 q 576 522 608 543 z "},"ğ":{"ha":764,"x_min":38,"x_max":742,"o":"m 363 -250 q 227 -237 288 -250 q 124 -203 167 -225 q 60 -149 82 -181 q 38 -79 38 -117 q 56 -17 38 -46 q 105 33 74 11 q 174 68 136 56 l 263 36 q 220 12 242 24 q 185 -15 199 0 q 172 -50 172 -29 q 188 -78 172 -67 q 230 -98 203 -90 q 294 -109 257 -106 q 378 -112 332 -112 q 476 -105 435 -112 q 538 -81 517 -97 q 560 -46 560 -65 q 547 -17 560 -28 q 501 -1 533 -6 q 414 4 469 4 q 316 8 364 4 q 226 21 268 11 q 150 47 183 31 q 98 88 117 64 q 79 147 79 113 q 111 228 79 194 q 186 289 143 263 l 272 247 q 245 228 258 236 q 223 213 232 221 q 214 192 214 206 q 240 167 214 178 q 319 152 265 157 q 463 147 374 147 q 576 133 529 147 q 651 94 622 119 q 692 38 679 69 q 706 -29 706 7 q 685 -110 706 -71 q 624 -181 665 -150 q 517 -231 582 -212 q 363 -250 451 -250 m 350 219 q 213 249 274 219 q 116 329 151 279 q 81 442 81 379 q 116 556 81 504 q 213 637 151 607 q 350 667 274 667 q 489 638 428 667 q 585 557 550 608 q 619 442 619 506 q 584 328 619 378 q 488 249 549 278 q 350 219 428 219 m 350 346 q 411 358 385 346 q 453 391 438 369 q 468 442 468 413 q 453 491 468 471 q 410 523 438 511 q 350 535 383 535 q 293 523 319 535 q 250 490 267 511 q 233 442 233 469 q 249 393 233 415 q 292 358 265 371 q 350 346 318 346 m 576 522 l 506 607 q 606 652 550 636 q 725 664 661 668 l 742 549 q 652 550 696 557 q 576 522 608 543 m 394 717 q 272 744 338 717 q 135 835 206 771 l 242 950 q 319 875 275 897 q 401 853 363 853 q 483 873 440 853 q 565 950 526 893 l 649 836 q 571 771 614 797 q 483 731 528 744 q 394 717 438 717 z "},"ǧ":{"ha":764,"x_min":38,"x_max":742,"o":"m 363 -250 q 227 -237 288 -250 q 124 -203 167 -225 q 60 -149 82 -181 q 38 -79 38 -117 q 56 -17 38 -46 q 105 33 74 11 q 174 68 136 56 l 263 36 q 220 12 242 24 q 185 -15 199 0 q 172 -50 172 -29 q 188 -78 172 -67 q 230 -98 203 -90 q 294 -109 257 -106 q 378 -112 332 -112 q 476 -105 435 -112 q 538 -81 517 -97 q 560 -46 560 -65 q 547 -17 560 -28 q 501 -1 533 -6 q 414 4 469 4 q 316 8 364 4 q 226 21 268 11 q 150 47 183 31 q 98 88 117 64 q 79 147 79 113 q 111 228 79 194 q 186 289 143 263 l 272 247 q 245 228 258 236 q 223 213 232 221 q 214 192 214 206 q 240 167 214 178 q 319 152 265 157 q 463 147 374 147 q 576 133 529 147 q 651 94 622 119 q 692 38 679 69 q 706 -29 706 7 q 685 -110 706 -71 q 624 -181 665 -150 q 517 -231 582 -212 q 363 -250 451 -250 m 350 219 q 213 249 274 219 q 116 329 151 279 q 81 442 81 379 q 116 556 81 504 q 213 637 151 607 q 350 667 274 667 q 489 638 428 667 q 585 557 550 608 q 619 442 619 506 q 584 328 619 378 q 488 249 549 278 q 350 219 428 219 m 350 346 q 411 358 385 346 q 453 391 438 369 q 468 442 468 413 q 453 491 468 471 q 410 523 438 511 q 350 535 383 535 q 293 523 319 535 q 250 490 267 511 q 233 442 233 469 q 249 393 233 415 q 292 358 265 371 q 350 346 318 346 m 576 522 l 506 607 q 606 652 550 636 q 725 664 661 668 l 742 549 q 652 550 696 557 q 576 522 608 543 m 181 982 l 351 844 l 524 982 l 606 904 l 383 718 l 322 718 l 100 904 l 181 982 z "},"ĝ":{"ha":764,"x_min":38,"x_max":742,"o":"m 363 -250 q 227 -237 288 -250 q 124 -203 167 -225 q 60 -149 82 -181 q 38 -79 38 -117 q 56 -17 38 -46 q 105 33 74 11 q 174 68 136 56 l 263 36 q 220 12 242 24 q 185 -15 199 0 q 172 -50 172 -29 q 188 -78 172 -67 q 230 -98 203 -90 q 294 -109 257 -106 q 378 -112 332 -112 q 476 -105 435 -112 q 538 -81 517 -97 q 560 -46 560 -65 q 547 -17 560 -28 q 501 -1 533 -6 q 414 4 469 4 q 316 8 364 4 q 226 21 268 11 q 150 47 183 31 q 98 88 117 64 q 79 147 79 113 q 111 228 79 194 q 186 289 143 263 l 272 247 q 245 228 258 236 q 223 213 232 221 q 214 192 214 206 q 240 167 214 178 q 319 152 265 157 q 463 147 374 147 q 576 133 529 147 q 651 94 622 119 q 692 38 679 69 q 706 -29 706 7 q 685 -110 706 -71 q 624 -181 665 -150 q 517 -231 582 -212 q 363 -250 451 -250 m 350 219 q 213 249 274 219 q 116 329 151 279 q 81 442 81 379 q 116 556 81 504 q 213 637 151 607 q 350 667 274 667 q 489 638 428 667 q 585 557 550 608 q 619 442 619 506 q 584 328 619 378 q 488 249 549 278 q 350 219 428 219 m 350 346 q 411 358 385 346 q 453 391 438 369 q 468 442 468 413 q 453 491 468 471 q 410 523 438 511 q 350 535 383 535 q 293 523 319 535 q 250 490 267 511 q 233 442 233 469 q 249 393 233 415 q 292 358 265 371 q 350 346 318 346 m 576 522 l 506 607 q 606 652 550 636 q 725 664 661 668 l 742 549 q 652 550 696 557 q 576 522 608 543 m 185 688 l 103 764 l 325 951 l 386 951 l 608 764 l 528 688 l 356 824 l 185 688 z "},"ģ":{"ha":764,"x_min":38,"x_max":742,"o":"m 363 -250 q 227 -237 288 -250 q 124 -203 167 -225 q 60 -149 82 -181 q 38 -79 38 -117 q 56 -17 38 -46 q 105 33 74 11 q 174 68 136 56 l 263 36 q 220 12 242 24 q 185 -15 199 0 q 172 -50 172 -29 q 188 -78 172 -67 q 230 -98 203 -90 q 294 -109 257 -106 q 378 -112 332 -112 q 476 -105 435 -112 q 538 -81 517 -97 q 560 -46 560 -65 q 547 -17 560 -28 q 501 -1 533 -6 q 414 4 469 4 q 316 8 364 4 q 226 21 268 11 q 150 47 183 31 q 98 88 117 64 q 79 147 79 113 q 111 228 79 194 q 186 289 143 263 l 272 247 q 245 228 258 236 q 223 213 232 221 q 214 192 214 206 q 240 167 214 178 q 319 152 265 157 q 463 147 374 147 q 576 133 529 147 q 651 94 622 119 q 692 38 679 69 q 706 -29 706 7 q 685 -110 706 -71 q 624 -181 665 -150 q 517 -231 582 -212 q 363 -250 451 -250 m 350 219 q 213 249 274 219 q 116 329 151 279 q 81 442 81 379 q 116 556 81 504 q 213 637 151 607 q 350 667 274 667 q 489 638 428 667 q 585 557 550 608 q 619 442 619 506 q 584 328 619 378 q 488 249 549 278 q 350 219 428 219 m 350 346 q 411 358 385 346 q 453 391 438 369 q 468 442 468 413 q 453 491 468 471 q 410 523 438 511 q 350 535 383 535 q 293 523 319 535 q 250 490 267 511 q 233 442 233 469 q 249 393 233 415 q 292 358 265 371 q 350 346 318 346 m 576 522 l 506 607 q 606 652 550 636 q 725 664 661 668 l 742 549 q 652 550 696 557 q 576 522 608 543 m 389 1140 l 486 1057 q 424 988 444 1021 q 404 931 404 954 q 413 901 404 915 q 435 873 422 888 q 457 840 447 858 q 467 793 467 821 q 432 718 467 744 q 349 692 397 692 q 256 732 290 692 q 221 836 221 772 q 232 908 221 872 q 264 983 243 944 q 316 1060 285 1021 q 389 1140 347 1100 z "},"ġ":{"ha":764,"x_min":38,"x_max":742,"o":"m 363 -250 q 227 -237 288 -250 q 124 -203 167 -225 q 60 -149 82 -181 q 38 -79 38 -117 q 56 -17 38 -46 q 105 33 74 11 q 174 68 136 56 l 263 36 q 220 12 242 24 q 185 -15 199 0 q 172 -50 172 -29 q 188 -78 172 -67 q 230 -98 203 -90 q 294 -109 257 -106 q 378 -112 332 -112 q 476 -105 435 -112 q 538 -81 517 -97 q 560 -46 560 -65 q 547 -17 560 -28 q 501 -1 533 -6 q 414 4 469 4 q 316 8 364 4 q 226 21 268 11 q 150 47 183 31 q 98 88 117 64 q 79 147 79 113 q 111 228 79 194 q 186 289 143 263 l 272 247 q 245 228 258 236 q 223 213 232 221 q 214 192 214 206 q 240 167 214 178 q 319 152 265 157 q 463 147 374 147 q 576 133 529 147 q 651 94 622 119 q 692 38 679 69 q 706 -29 706 7 q 685 -110 706 -71 q 624 -181 665 -150 q 517 -231 582 -212 q 363 -250 451 -250 m 350 219 q 213 249 274 219 q 116 329 151 279 q 81 442 81 379 q 116 556 81 504 q 213 637 151 607 q 350 667 274 667 q 489 638 428 667 q 585 557 550 608 q 619 442 619 506 q 584 328 619 378 q 488 249 549 278 q 350 219 428 219 m 350 346 q 411 358 385 346 q 453 391 438 369 q 468 442 468 413 q 453 491 468 471 q 410 523 438 511 q 350 535 383 535 q 293 523 319 535 q 250 490 267 511 q 233 442 233 469 q 249 393 233 415 q 292 358 265 371 q 350 346 318 346 m 576 522 l 506 607 q 606 652 550 636 q 725 664 661 668 l 742 549 q 652 550 696 557 q 576 522 608 543 z "},"ḡ":{"ha":764,"x_min":38,"x_max":742,"o":"m 363 -250 q 227 -237 288 -250 q 124 -203 167 -225 q 60 -149 82 -181 q 38 -79 38 -117 q 56 -17 38 -46 q 105 33 74 11 q 174 68 136 56 l 263 36 q 220 12 242 24 q 185 -15 199 0 q 172 -50 172 -29 q 188 -78 172 -67 q 230 -98 203 -90 q 294 -109 257 -106 q 378 -112 332 -112 q 476 -105 435 -112 q 538 -81 517 -97 q 560 -46 560 -65 q 547 -17 560 -28 q 501 -1 533 -6 q 414 4 469 4 q 316 8 364 4 q 226 21 268 11 q 150 47 183 31 q 98 88 117 64 q 79 147 79 113 q 111 228 79 194 q 186 289 143 263 l 272 247 q 245 228 258 236 q 223 213 232 221 q 214 192 214 206 q 240 167 214 178 q 319 152 265 157 q 463 147 374 147 q 576 133 529 147 q 651 94 622 119 q 692 38 679 69 q 706 -29 706 7 q 685 -110 706 -71 q 624 -181 665 -150 q 517 -231 582 -212 q 363 -250 451 -250 m 350 219 q 213 249 274 219 q 116 329 151 279 q 81 442 81 379 q 116 556 81 504 q 213 637 151 607 q 350 667 274 667 q 489 638 428 667 q 585 557 550 608 q 619 442 619 506 q 584 328 619 378 q 488 249 549 278 q 350 219 428 219 m 350 346 q 411 358 385 346 q 453 391 438 369 q 468 442 468 413 q 453 491 468 471 q 410 523 438 511 q 350 535 383 535 q 293 523 319 535 q 250 490 267 511 q 233 442 233 469 q 249 393 233 415 q 292 358 265 371 q 350 346 318 346 m 576 522 l 506 607 q 606 652 550 636 q 725 664 661 668 l 742 549 q 652 550 696 557 q 576 522 608 543 z "},"h":{"ha":764,"x_min":76,"x_max":701,"o":"m 76 933 l 256 933 l 268 933 l 268 919 q 259 901 261 911 q 257 868 257 892 l 257 569 q 315 624 282 604 q 388 655 349 644 q 467 665 426 665 q 591 636 539 665 q 672 545 643 607 q 701 386 701 483 l 701 0 l 522 0 l 522 383 q 510 470 522 438 q 474 517 497 503 q 419 531 451 531 q 369 524 393 531 q 324 503 344 517 q 289 470 304 490 q 265 425 274 450 q 257 369 257 400 l 257 0 l 76 0 l 76 933 z "},"ħ":{"ha":764,"x_min":-15,"x_max":701,"o":"m 76 933 l 256 933 l 268 933 l 268 919 q 259 901 261 911 q 257 868 257 892 l 257 569 q 315 624 282 604 q 388 655 349 644 q 467 665 426 665 q 591 636 539 665 q 672 545 643 607 q 701 386 701 483 l 701 0 l 522 0 l 522 383 q 510 470 522 438 q 474 517 497 503 q 419 531 451 531 q 369 524 393 531 q 324 503 344 517 q 289 470 304 490 q 265 425 274 450 q 257 369 257 400 l 257 0 l 76 0 l 76 933 m -15 715 l -15 826 l 407 826 l 407 715 l -15 715 z "},"ḫ":{"ha":764,"x_min":76,"x_max":701,"o":"m 76 933 l 256 933 l 268 933 l 268 919 q 259 901 261 911 q 257 868 257 892 l 257 569 q 315 624 282 604 q 388 655 349 644 q 467 665 426 665 q 591 636 539 665 q 672 545 643 607 q 701 386 701 483 l 701 0 l 522 0 l 522 383 q 510 470 522 438 q 474 517 497 503 q 419 531 451 531 q 369 524 393 531 q 324 503 344 517 q 289 470 304 490 q 265 425 274 450 q 257 369 257 400 l 257 0 l 76 0 l 76 933 z "},"ĥ":{"ha":764,"x_min":-103,"x_max":701,"o":"m 76 933 l 256 933 l 268 933 l 268 919 q 259 901 261 911 q 257 868 257 892 l 257 569 q 315 624 282 604 q 388 655 349 644 q 467 665 426 665 q 591 636 539 665 q 672 545 643 607 q 701 386 701 483 l 701 0 l 522 0 l 522 383 q 510 470 522 438 q 474 517 497 503 q 419 531 451 531 q 369 524 393 531 q 324 503 344 517 q 289 470 304 490 q 265 425 274 450 q 257 369 257 400 l 257 0 l 76 0 l 76 933 m -50 965 l -103 1051 l 150 1183 l 203 1183 l 444 1054 l 388 965 l 176 1056 l -50 965 z "},"ḥ":{"ha":764,"x_min":76,"x_max":701,"o":"m 76 933 l 256 933 l 268 933 l 268 919 q 259 901 261 911 q 257 868 257 892 l 257 569 q 315 624 282 604 q 388 655 349 644 q 467 665 426 665 q 591 636 539 665 q 672 545 643 607 q 701 386 701 483 l 701 0 l 522 0 l 522 383 q 510 470 522 438 q 474 517 497 503 q 419 531 451 531 q 369 524 393 531 q 324 503 344 517 q 289 470 304 490 q 265 425 274 450 q 257 369 257 400 l 257 0 l 76 0 l 76 933 z "},"i":{"ha":764,"x_min":124,"x_max":643,"o":"m 124 0 l 124 140 l 301 140 l 301 510 l 132 510 l 132 650 l 481 650 l 481 140 l 643 140 l 643 0 l 124 0 z "},"ı":{"ha":764,"x_min":124,"x_max":643,"o":"m 124 0 l 124 140 l 301 140 l 301 510 l 132 510 l 132 650 l 481 650 l 481 140 l 643 140 l 643 0 l 124 0 z "},"í":{"ha":764,"x_min":124,"x_max":643,"o":"m 124 0 l 124 140 l 301 140 l 301 510 l 132 510 l 132 650 l 481 650 l 481 140 l 643 140 l 643 0 l 124 0 m 372 700 l 285 753 l 418 986 l 547 897 l 372 700 z "},"ĭ":{"ha":764,"x_min":124,"x_max":643,"o":"m 124 0 l 124 140 l 301 140 l 301 510 l 132 510 l 132 650 l 481 650 l 481 140 l 643 140 l 643 0 l 124 0 m 510 935 l 614 882 q 517 772 576 811 q 383 732 457 732 q 249 772 308 732 q 153 883 190 811 l 256 936 q 311 859 281 885 q 383 833 342 833 q 434 844 411 833 q 477 877 457 854 q 510 935 497 900 z "},"î":{"ha":764,"x_min":124,"x_max":643,"o":"m 124 0 l 124 140 l 301 140 l 301 510 l 132 510 l 132 650 l 481 650 l 481 140 l 643 140 l 643 0 l 124 0 m 210 689 l 128 765 l 350 953 l 411 953 l 633 765 l 553 689 l 381 825 l 210 689 z "},"ȉ":{"ha":764,"x_min":115,"x_max":643,"o":"m 124 0 l 124 140 l 301 140 l 301 510 l 132 510 l 132 650 l 481 650 l 481 140 l 643 140 l 643 0 l 124 0 z "},"ï":{"ha":764,"x_min":124,"x_max":643,"o":"m 124 0 l 124 140 l 301 140 l 301 510 l 132 510 l 132 650 l 481 650 l 481 140 l 643 140 l 643 0 l 124 0 m 229 754 q 158 782 188 754 q 128 850 128 810 q 158 918 128 889 q 229 947 188 947 q 302 917 274 947 q 331 850 331 886 q 300 782 331 810 q 229 754 269 754 m 514 754 q 442 781 472 754 q 413 850 413 808 q 442 919 413 890 q 513 947 472 947 q 586 916 560 947 q 613 850 613 885 q 583 782 613 810 q 514 754 554 754 z "},"ḯ":{"ha":764,"x_min":124,"x_max":643,"o":"m 124 0 l 124 140 l 301 140 l 301 510 l 132 510 l 132 650 l 481 650 l 481 140 l 643 140 l 643 0 l 124 0 z "},"ị":{"ha":764,"x_min":124,"x_max":643,"o":"m 124 0 l 124 140 l 301 140 l 301 510 l 132 510 l 132 650 l 481 650 l 481 140 l 643 140 l 643 0 l 124 0 z "},"ì":{"ha":764,"x_min":124,"x_max":643,"o":"m 124 0 l 124 140 l 301 140 l 301 510 l 132 510 l 132 650 l 481 650 l 481 140 l 643 140 l 643 0 l 124 0 z "},"ỉ":{"ha":764,"x_min":124,"x_max":643,"o":"m 124 0 l 124 140 l 301 140 l 301 510 l 132 510 l 132 650 l 481 650 l 481 140 l 643 140 l 643 0 l 124 0 m 560 893 q 544 842 560 864 q 507 803 528 821 q 470 769 486 786 q 454 732 454 753 l 454 721 l 342 721 l 342 758 q 357 799 342 781 q 392 831 372 817 q 427 859 413 846 q 442 886 442 872 q 427 915 442 904 q 392 925 413 925 q 340 913 363 925 q 301 871 317 901 l 240 954 q 313 1004 269 988 q 400 1019 357 1021 q 483 1003 447 1019 q 540 958 519 986 q 560 893 560 931 z "},"ȋ":{"ha":764,"x_min":124,"x_max":643,"o":"m 124 0 l 124 140 l 301 140 l 301 510 l 132 510 l 132 650 l 481 650 l 481 140 l 643 140 l 643 0 l 124 0 m 257 721 l 154 772 q 251 883 192 844 q 385 922 310 922 q 519 883 460 922 q 615 771 578 844 l 513 719 q 456 796 486 771 q 385 821 425 821 q 334 810 358 821 q 291 778 310 800 q 257 721 272 756 z "},"ī":{"ha":764,"x_min":124,"x_max":643,"o":"m 124 0 l 124 140 l 301 140 l 301 510 l 132 510 l 132 650 l 481 650 l 481 140 l 643 140 l 643 0 l 124 0 z "},"į":{"ha":764,"x_min":124,"x_max":650,"o":"m 124 0 l 124 140 l 301 140 l 301 510 l 132 510 l 132 650 l 481 650 l 481 140 l 643 140 l 643 0 l 124 0 m 646 -196 l 575 -333 q 458 -290 503 -315 q 391 -233 413 -264 q 369 -171 369 -203 q 394 -99 369 -136 q 467 -26 419 -62 q 582 43 515 10 l 650 0 q 594 -47 618 -25 q 558 -88 571 -69 q 546 -124 546 -107 q 572 -166 546 -149 q 646 -196 597 -183 z "},"ĩ":{"ha":764,"x_min":124,"x_max":643,"o":"m 124 0 l 124 140 l 301 140 l 301 510 l 132 510 l 132 650 l 481 650 l 481 140 l 643 140 l 643 0 l 124 0 m 526 936 l 610 892 q 549 811 583 838 q 475 785 514 785 q 419 796 443 785 q 377 822 396 807 q 342 848 358 836 q 308 860 326 860 q 271 844 288 860 q 243 804 254 829 l 158 847 q 218 926 179 897 q 296 956 257 956 q 351 944 326 956 q 397 919 376 933 q 433 893 417 904 q 467 882 450 882 q 497 894 483 882 q 526 936 511 906 z "},"j":{"ha":764,"x_min":54,"x_max":590,"o":"m 293 -244 q 160 -218 221 -244 q 54 -143 100 -192 l 151 -15 l 160 -6 l 171 -12 q 176 -35 174 -24 q 193 -64 179 -46 q 236 -90 213 -81 q 293 -100 260 -100 q 356 -86 332 -100 q 392 -42 381 -72 q 404 32 404 -12 l 404 510 l 157 510 l 157 650 l 585 650 l 585 47 q 544 -122 585 -58 q 437 -215 503 -186 q 293 -244 371 -244 l 293 -244 z "},"ȷ":{"ha":764,"x_min":54,"x_max":585,"o":"m 293 -244 q 160 -218 221 -244 q 54 -143 100 -192 l 151 -15 l 160 -6 l 171 -12 q 176 -35 174 -24 q 193 -64 179 -46 q 236 -90 213 -81 q 293 -100 260 -100 q 356 -86 332 -100 q 392 -42 381 -72 q 404 32 404 -12 l 404 510 l 157 510 l 157 650 l 585 650 l 585 47 q 544 -122 585 -58 q 437 -215 503 -186 q 293 -244 371 -244 l 293 -244 z "},"ĵ":{"ha":764,"x_min":54,"x_max":733,"o":"m 293 -244 q 160 -218 221 -244 q 54 -143 100 -192 l 151 -15 l 160 -6 l 171 -12 q 176 -35 174 -24 q 193 -64 179 -46 q 236 -90 213 -81 q 293 -100 260 -100 q 356 -86 332 -100 q 392 -42 381 -72 q 404 32 404 -12 l 404 510 l 157 510 l 157 650 l 585 650 l 585 47 q 544 -122 585 -58 q 437 -215 503 -186 q 293 -244 371 -244 l 293 -244 m 310 689 l 228 765 l 450 953 l 511 953 l 733 765 l 653 689 l 481 825 l 310 689 z "},"k":{"ha":764,"x_min":78,"x_max":751,"o":"m 311 286 l 257 240 l 257 0 l 78 0 l 78 933 l 256 933 l 268 933 l 268 919 q 259 901 261 911 q 257 868 257 892 l 257 431 l 517 656 q 544 652 529 654 q 576 649 560 650 q 608 647 593 647 q 631 646 622 646 l 715 646 l 433 392 l 751 1 l 549 -6 l 311 286 z "},"ķ":{"ha":764,"x_min":78,"x_max":751,"o":"m 311 286 l 257 240 l 257 0 l 78 0 l 78 933 l 256 933 l 268 933 l 268 919 q 259 901 261 911 q 257 868 257 892 l 257 431 l 517 656 q 544 652 529 654 q 576 649 560 650 q 608 647 593 647 q 631 646 622 646 l 715 646 l 433 392 l 751 1 l 549 -6 l 311 286 m 357 -415 l 269 -340 q 324 -278 306 -308 q 342 -228 342 -249 q 328 -192 342 -208 q 300 -156 314 -176 q 286 -104 286 -135 q 318 -35 286 -60 q 392 -11 350 -11 q 476 -48 446 -11 q 507 -143 507 -85 q 490 -229 507 -185 q 439 -320 472 -274 q 357 -415 406 -367 z "},"ĸ":{"ha":764,"x_min":78,"x_max":751,"o":"m 311 286 l 257 240 l 257 0 l 78 0 l 78 650 l 256 650 l 268 650 l 268 636 q 259 618 261 628 q 257 585 257 608 l 257 431 l 517 656 q 544 652 529 654 q 576 649 560 650 q 608 647 593 647 q 631 646 622 646 l 715 646 l 433 392 l 751 1 l 549 -6 l 311 286 z "},"l":{"ha":764,"x_min":90,"x_max":675,"o":"m 90 0 l 90 140 l 293 140 l 293 793 l 100 793 l 100 933 l 474 933 l 474 140 l 675 140 l 675 0 l 90 0 z "},"ĺ":{"ha":764,"x_min":90,"x_max":675,"o":"m 90 0 l 90 140 l 293 140 l 293 793 l 100 793 l 100 933 l 474 933 l 474 140 l 675 140 l 675 0 l 90 0 z "},"ľ":{"ha":764,"x_min":90,"x_max":758,"o":"m 90 0 l 90 140 l 293 140 l 293 793 l 100 793 l 100 933 l 474 933 l 474 140 l 675 140 l 675 0 l 90 0 m 604 600 l 510 683 q 553 722 535 706 q 580 753 571 739 q 589 781 589 768 q 581 799 589 790 q 564 817 574 807 q 547 838 554 826 q 539 865 539 850 q 569 931 539 904 q 644 957 599 957 q 724 924 690 957 q 758 840 758 892 q 742 772 758 808 q 692 692 726 735 q 604 600 658 650 z "},"ļ":{"ha":764,"x_min":90,"x_max":675,"o":"m 90 0 l 90 140 l 293 140 l 293 793 l 100 793 l 100 933 l 474 933 l 474 140 l 675 140 l 675 0 l 90 0 m 358 -415 l 271 -340 q 325 -278 307 -308 q 343 -228 343 -249 q 329 -192 343 -208 q 301 -156 315 -176 q 288 -104 288 -135 q 319 -35 288 -60 q 393 -11 351 -11 q 478 -48 447 -11 q 508 -143 508 -85 q 491 -229 508 -185 q 440 -320 474 -274 q 358 -415 407 -367 z "},"ŀ":{"ha":764,"x_min":81,"x_max":721,"o":"m 81 0 l 81 140 l 249 140 l 249 800 l 90 800 l 90 940 l 429 940 l 429 140 l 656 140 l 656 0 l 81 0 m 606 349 q 524 382 557 349 q 490 464 490 415 q 524 544 490 511 q 606 578 558 578 q 687 544 653 578 q 721 464 721 511 q 687 383 721 417 q 606 349 653 349 z "},"ḷ":{"ha":764,"x_min":90,"x_max":675,"o":"m 90 0 l 90 140 l 293 140 l 293 793 l 100 793 l 100 933 l 474 933 l 474 140 l 675 140 l 675 0 l 90 0 z "},"ǉ":{"ha":764,"x_min":39,"x_max":710,"o":"m 401 -247 q 308 -231 350 -247 q 231 -185 265 -215 l 311 -51 q 321 -56 319 -53 q 324 -65 322 -60 q 333 -76 325 -71 q 358 -89 340 -82 q 381 -95 368 -92 q 407 -99 393 -99 q 461 -86 436 -99 q 501 -45 486 -74 q 517 31 517 -17 l 517 510 l 365 510 l 365 650 l 693 650 l 693 36 q 671 -92 693 -39 q 608 -181 649 -146 q 515 -231 568 -215 q 401 -247 463 -247 m 39 0 l 39 140 l 111 140 l 111 801 l 49 801 l 49 940 l 288 940 l 288 140 l 432 140 l 432 0 l 39 0 m 601 746 q 525 776 557 746 q 493 849 493 807 q 524 924 493 894 q 601 953 554 953 q 677 922 644 953 q 710 849 710 890 q 677 776 710 807 q 601 746 644 746 z "},"ḻ":{"ha":764,"x_min":90,"x_max":675,"o":"m 90 0 l 90 140 l 293 140 l 293 793 l 100 793 l 100 933 l 474 933 l 474 140 l 675 140 l 675 0 l 90 0 z "},"ł":{"ha":764,"x_min":96,"x_max":671,"o":"m 96 0 l 96 140 l 293 140 l 293 340 l 178 306 l 178 467 l 293 500 l 293 793 l 106 793 l 106 933 l 474 933 l 474 560 l 604 596 l 604 436 l 474 396 l 474 140 l 671 140 l 671 0 l 96 0 z "},"m":{"ha":764,"x_min":42,"x_max":733,"o":"m 42 0 l 42 650 l 192 650 l 192 603 q 228 638 210 625 q 269 658 247 651 q 313 665 290 665 q 361 658 338 665 q 403 633 385 650 q 433 586 422 615 q 471 630 450 613 q 520 656 492 647 q 582 665 549 665 q 654 651 625 665 q 701 612 683 638 q 726 549 718 586 q 733 469 733 513 l 733 0 l 578 0 l 578 435 q 574 496 578 474 q 560 528 569 518 q 536 538 551 538 q 499 522 517 538 q 472 478 482 507 q 461 408 461 450 l 461 0 l 315 0 l 315 432 q 304 517 315 494 q 268 540 293 540 q 242 533 254 540 q 219 509 229 525 q 203 469 210 493 q 197 415 197 446 l 197 0 l 42 0 z "},"ṃ":{"ha":764,"x_min":42,"x_max":733,"o":"m 42 0 l 42 650 l 192 650 l 192 603 q 228 638 210 625 q 269 658 247 651 q 313 665 290 665 q 361 658 338 665 q 403 633 385 650 q 433 586 422 615 q 471 630 450 613 q 520 656 492 647 q 582 665 549 665 q 654 651 625 665 q 701 612 683 638 q 726 549 718 586 q 733 469 733 513 l 733 0 l 578 0 l 578 435 q 574 496 578 474 q 560 528 569 518 q 536 538 551 538 q 499 522 517 538 q 472 478 482 507 q 461 408 461 450 l 461 0 l 315 0 l 315 432 q 304 517 315 494 q 268 540 293 540 q 242 533 254 540 q 219 509 229 525 q 203 469 210 493 q 197 415 197 446 l 197 0 l 42 0 z "},"n":{"ha":764,"x_min":75,"x_max":701,"o":"m 75 0 l 75 650 l 256 650 l 256 564 q 310 617 281 594 q 378 653 339 640 q 463 665 417 665 q 581 636 526 665 q 668 546 635 607 q 701 386 701 485 l 701 0 l 522 0 l 522 383 q 510 465 522 432 q 474 514 499 497 q 414 531 450 531 q 356 520 385 531 q 305 492 328 510 q 269 447 282 474 q 256 386 256 419 l 256 0 l 75 0 z "},"ń":{"ha":764,"x_min":75,"x_max":701,"o":"m 75 0 l 75 650 l 256 650 l 256 564 q 310 617 281 594 q 378 653 339 640 q 463 665 417 665 q 581 636 526 665 q 668 546 635 607 q 701 386 701 485 l 701 0 l 522 0 l 522 383 q 510 465 522 432 q 474 514 499 497 q 414 531 450 531 q 356 520 385 531 q 305 492 328 510 q 269 447 282 474 q 256 386 256 419 l 256 0 l 75 0 z "},"ň":{"ha":764,"x_min":75,"x_max":701,"o":"m 75 0 l 75 650 l 256 650 l 256 564 q 310 617 281 594 q 378 653 339 640 q 463 665 417 665 q 581 636 526 665 q 668 546 635 607 q 701 386 701 485 l 701 0 l 522 0 l 522 383 q 510 465 522 432 q 474 514 499 497 q 414 531 450 531 q 356 520 385 531 q 305 492 328 510 q 269 447 282 474 q 256 386 256 419 l 256 0 l 75 0 m 222 982 l 393 844 l 565 982 l 647 904 l 425 718 l 364 718 l 142 904 l 222 982 z "},"ņ":{"ha":764,"x_min":75,"x_max":701,"o":"m 75 0 l 75 650 l 256 650 l 256 564 q 310 617 281 594 q 378 653 339 640 q 463 665 417 665 q 581 636 526 665 q 668 546 635 607 q 701 386 701 485 l 701 0 l 522 0 l 522 383 q 510 465 522 432 q 474 514 499 497 q 414 531 450 531 q 356 520 385 531 q 305 492 328 510 q 269 447 282 474 q 256 386 256 419 l 256 0 l 75 0 m 374 -415 l 286 -340 q 340 -278 322 -308 q 358 -228 358 -249 q 344 -192 358 -208 q 317 -156 331 -176 q 303 -104 303 -135 q 335 -35 303 -60 q 408 -11 367 -11 q 493 -48 463 -11 q 524 -143 524 -85 q 506 -229 524 -185 q 456 -320 489 -274 q 374 -415 422 -367 z "},"ṅ":{"ha":764,"x_min":75,"x_max":701,"o":"m 75 0 l 75 650 l 256 650 l 256 564 q 310 617 281 594 q 378 653 339 640 q 463 665 417 665 q 581 636 526 665 q 668 546 635 607 q 701 386 701 485 l 701 0 l 522 0 l 522 383 q 510 465 522 432 q 474 514 499 497 q 414 531 450 531 q 356 520 385 531 q 305 492 328 510 q 269 447 282 474 q 256 386 256 419 l 256 0 l 75 0 z "},"ṇ":{"ha":764,"x_min":75,"x_max":701,"o":"m 75 0 l 75 650 l 256 650 l 256 564 q 310 617 281 594 q 378 653 339 640 q 463 665 417 665 q 581 636 526 665 q 668 546 635 607 q 701 386 701 485 l 701 0 l 522 0 l 522 383 q 510 465 522 432 q 474 514 499 497 q 414 531 450 531 q 356 520 385 531 q 305 492 328 510 q 269 447 282 474 q 256 386 256 419 l 256 0 l 75 0 z "},"ŋ":{"ha":764,"x_min":75,"x_max":701,"o":"m 410 -250 q 317 -233 367 -250 q 231 -183 268 -215 l 299 -46 q 313 -56 308 -49 q 324 -73 317 -64 q 349 -89 331 -82 q 403 -96 367 -96 q 471 -79 443 -96 q 513 -26 499 -62 q 528 65 528 10 l 528 389 q 518 449 528 424 q 492 491 508 475 q 453 515 475 507 q 407 524 432 524 q 357 516 381 524 q 314 496 333 508 q 281 465 294 483 q 259 424 267 447 q 251 374 251 401 l 251 0 l 75 0 l 75 650 l 251 650 l 251 564 q 292 604 269 586 q 342 635 315 622 q 400 656 369 649 q 461 664 431 664 q 553 649 510 664 q 629 601 596 633 q 682 517 663 569 q 701 390 701 465 l 701 78 q 678 -72 701 -10 q 614 -173 654 -133 q 521 -231 574 -212 q 410 -250 468 -250 z "},"ṉ":{"ha":764,"x_min":75,"x_max":701,"o":"m 75 0 l 75 650 l 256 650 l 256 564 q 310 617 281 594 q 378 653 339 640 q 463 665 417 665 q 581 636 526 665 q 668 546 635 607 q 701 386 701 485 l 701 0 l 522 0 l 522 383 q 510 465 522 432 q 474 514 499 497 q 414 531 450 531 q 356 520 385 531 q 305 492 328 510 q 269 447 282 474 q 256 386 256 419 l 256 0 l 75 0 z "},"ñ":{"ha":764,"x_min":75,"x_max":701,"o":"m 75 0 l 75 650 l 256 650 l 256 564 q 310 617 281 594 q 378 653 339 640 q 463 665 417 665 q 581 636 526 665 q 668 546 635 607 q 701 386 701 485 l 701 0 l 522 0 l 522 383 q 510 465 522 432 q 474 514 499 497 q 414 531 450 531 q 356 520 385 531 q 305 492 328 510 q 269 447 282 474 q 256 386 256 419 l 256 0 l 75 0 m 568 929 l 660 879 q 593 792 631 819 q 508 765 556 765 q 433 778 463 765 q 383 810 404 792 q 346 841 363 828 q 307 854 329 854 q 261 835 282 854 q 224 785 240 817 l 131 833 q 198 927 157 897 q 301 957 239 957 q 369 944 342 957 q 417 915 397 932 q 457 885 438 897 q 499 872 476 872 q 539 888 524 872 q 568 929 554 903 z "},"o":{"ha":764,"x_min":39,"x_max":722,"o":"m 381 -15 q 206 27 283 -15 q 84 147 129 69 q 39 325 39 224 q 84 498 39 421 q 206 620 129 575 q 381 665 283 665 q 555 620 478 665 q 677 498 632 575 q 722 325 722 421 q 677 148 722 225 q 555 28 632 71 q 381 -15 478 -15 m 381 126 q 465 151 429 126 q 523 221 501 176 q 544 325 544 265 q 523 432 544 388 q 465 500 501 476 q 381 524 429 524 q 298 500 335 524 q 240 432 261 476 q 218 325 218 388 q 239 221 218 265 q 297 151 260 176 q 381 126 333 126 z "},"ó":{"ha":764,"x_min":39,"x_max":722,"o":"m 381 -15 q 206 27 283 -15 q 84 147 129 69 q 39 325 39 224 q 84 498 39 421 q 206 620 129 575 q 381 665 283 665 q 555 620 478 665 q 677 498 632 575 q 722 325 722 421 q 677 148 722 225 q 555 28 632 71 q 381 -15 478 -15 m 381 126 q 465 151 429 126 q 523 221 501 176 q 544 325 544 265 q 523 432 544 388 q 465 500 501 476 q 381 524 429 524 q 298 500 335 524 q 240 432 261 476 q 218 325 218 388 q 239 221 218 265 q 297 151 260 176 q 381 126 333 126 z "},"ŏ":{"ha":764,"x_min":39,"x_max":722,"o":"m 381 -15 q 206 27 283 -15 q 84 147 129 69 q 39 325 39 224 q 84 498 39 421 q 206 620 129 575 q 381 665 283 665 q 555 620 478 665 q 677 498 632 575 q 722 325 722 421 q 677 148 722 225 q 555 28 632 71 q 381 -15 478 -15 m 381 126 q 465 151 429 126 q 523 221 501 176 q 544 325 544 265 q 523 432 544 388 q 465 500 501 476 q 381 524 429 524 q 298 500 335 524 q 240 432 261 476 q 218 325 218 388 q 239 221 218 265 q 297 151 260 176 q 381 126 333 126 m 510 935 l 614 882 q 517 772 576 811 q 383 732 457 732 q 249 772 308 732 q 153 883 190 811 l 256 936 q 311 859 281 885 q 383 833 342 833 q 434 844 411 833 q 477 877 457 854 q 510 935 497 900 z "},"ô":{"ha":764,"x_min":39,"x_max":722,"o":"m 381 -15 q 206 27 283 -15 q 84 147 129 69 q 39 325 39 224 q 84 498 39 421 q 206 620 129 575 q 381 665 283 665 q 555 620 478 665 q 677 498 632 575 q 722 325 722 421 q 677 148 722 225 q 555 28 632 71 q 381 -15 478 -15 m 381 126 q 465 151 429 126 q 523 221 501 176 q 544 325 544 265 q 523 432 544 388 q 465 500 501 476 q 381 524 429 524 q 298 500 335 524 q 240 432 261 476 q 218 325 218 388 q 239 221 218 265 q 297 151 260 176 q 381 126 333 126 m 210 689 l 128 765 l 350 953 l 411 953 l 633 765 l 553 689 l 381 825 l 210 689 z "},"ố":{"ha":764,"x_min":39,"x_max":771,"o":"m 381 -15 q 206 27 283 -15 q 84 147 129 69 q 39 325 39 224 q 84 498 39 421 q 206 620 129 575 q 381 665 283 665 q 555 620 478 665 q 677 498 632 575 q 722 325 722 421 q 677 148 722 225 q 555 28 632 71 q 381 -15 478 -15 m 381 126 q 465 151 429 126 q 523 221 501 176 q 544 325 544 265 q 523 432 544 388 q 465 500 501 476 q 381 524 429 524 q 298 500 335 524 q 240 432 261 476 q 218 325 218 388 q 239 221 218 265 q 297 151 260 176 q 381 126 333 126 z "},"ộ":{"ha":764,"x_min":39,"x_max":722,"o":"m 381 -15 q 206 27 283 -15 q 84 147 129 69 q 39 325 39 224 q 84 498 39 421 q 206 620 129 575 q 381 665 283 665 q 555 620 478 665 q 677 498 632 575 q 722 325 722 421 q 677 148 722 225 q 555 28 632 71 q 381 -15 478 -15 m 381 126 q 465 151 429 126 q 523 221 501 176 q 544 325 544 265 q 523 432 544 388 q 465 500 501 476 q 381 524 429 524 q 298 500 335 524 q 240 432 261 476 q 218 325 218 388 q 239 221 218 265 q 297 151 260 176 q 381 126 333 126 m 210 689 l 128 765 l 350 953 l 411 953 l 633 765 l 553 689 l 381 825 l 210 689 z "},"ồ":{"ha":764,"x_min":39,"x_max":722,"o":"m 381 -15 q 206 27 283 -15 q 84 147 129 69 q 39 325 39 224 q 84 498 39 421 q 206 620 129 575 q 381 665 283 665 q 555 620 478 665 q 677 498 632 575 q 722 325 722 421 q 677 148 722 225 q 555 28 632 71 q 381 -15 478 -15 m 381 126 q 465 151 429 126 q 523 221 501 176 q 544 325 544 265 q 523 432 544 388 q 465 500 501 476 q 381 524 429 524 q 298 500 335 524 q 240 432 261 476 q 218 325 218 388 q 239 221 218 265 q 297 151 260 176 q 381 126 333 126 z "},"ổ":{"ha":764,"x_min":39,"x_max":760,"o":"m 381 -15 q 206 27 283 -15 q 84 147 129 69 q 39 325 39 224 q 84 498 39 421 q 206 620 129 575 q 381 665 283 665 q 555 620 478 665 q 677 498 632 575 q 722 325 722 421 q 677 148 722 225 q 555 28 632 71 q 381 -15 478 -15 m 381 126 q 465 151 429 126 q 523 221 501 176 q 544 325 544 265 q 523 432 544 388 q 465 500 501 476 q 381 524 429 524 q 298 500 335 524 q 240 432 261 476 q 218 325 218 388 q 239 221 218 265 q 297 151 260 176 q 381 126 333 126 z "},"ỗ":{"ha":764,"x_min":39,"x_max":722,"o":"m 381 -15 q 206 27 283 -15 q 84 147 129 69 q 39 325 39 224 q 84 498 39 421 q 206 620 129 575 q 381 665 283 665 q 555 620 478 665 q 677 498 632 575 q 722 325 722 421 q 677 148 722 225 q 555 28 632 71 q 381 -15 478 -15 m 381 126 q 465 151 429 126 q 523 221 501 176 q 544 325 544 265 q 523 432 544 388 q 465 500 501 476 q 381 524 429 524 q 298 500 335 524 q 240 432 261 476 q 218 325 218 388 q 239 221 218 265 q 297 151 260 176 q 381 126 333 126 z "},"ȍ":{"ha":764,"x_min":39,"x_max":722,"o":"m 381 -15 q 206 27 283 -15 q 84 147 129 69 q 39 325 39 224 q 84 498 39 421 q 206 620 129 575 q 381 665 283 665 q 555 620 478 665 q 677 498 632 575 q 722 325 722 421 q 677 148 722 225 q 555 28 632 71 q 381 -15 478 -15 m 381 126 q 465 151 429 126 q 523 221 501 176 q 544 325 544 265 q 523 432 544 388 q 465 500 501 476 q 381 524 429 524 q 298 500 335 524 q 240 432 261 476 q 218 325 218 388 q 239 221 218 265 q 297 151 260 176 q 381 126 333 126 z "},"ö":{"ha":764,"x_min":39,"x_max":722,"o":"m 381 -15 q 206 27 283 -15 q 84 147 129 69 q 39 325 39 224 q 84 498 39 421 q 206 620 129 575 q 381 665 283 665 q 555 620 478 665 q 677 498 632 575 q 722 325 722 421 q 677 148 722 225 q 555 28 632 71 q 381 -15 478 -15 m 381 126 q 465 151 429 126 q 523 221 501 176 q 544 325 544 265 q 523 432 544 388 q 465 500 501 476 q 381 524 429 524 q 298 500 335 524 q 240 432 261 476 q 218 325 218 388 q 239 221 218 265 q 297 151 260 176 q 381 126 333 126 z "},"ȫ":{"ha":764,"x_min":39,"x_max":722,"o":"m 381 -15 q 206 27 283 -15 q 84 147 129 69 q 39 325 39 224 q 84 498 39 421 q 206 620 129 575 q 381 665 283 665 q 555 620 478 665 q 677 498 632 575 q 722 325 722 421 q 677 148 722 225 q 555 28 632 71 q 381 -15 478 -15 m 381 126 q 465 151 429 126 q 523 221 501 176 q 544 325 544 265 q 523 432 544 388 q 465 500 501 476 q 381 524 429 524 q 298 500 335 524 q 240 432 261 476 q 218 325 218 388 q 239 221 218 265 q 297 151 260 176 q 381 126 333 126 z "},"ȱ":{"ha":764,"x_min":39,"x_max":722,"o":"m 381 -15 q 206 27 283 -15 q 84 147 129 69 q 39 325 39 224 q 84 498 39 421 q 206 620 129 575 q 381 665 283 665 q 555 620 478 665 q 677 498 632 575 q 722 325 722 421 q 677 148 722 225 q 555 28 632 71 q 381 -15 478 -15 m 381 126 q 465 151 429 126 q 523 221 501 176 q 544 325 544 265 q 523 432 544 388 q 465 500 501 476 q 381 524 429 524 q 298 500 335 524 q 240 432 261 476 q 218 325 218 388 q 239 221 218 265 q 297 151 260 176 q 381 126 333 126 z "},"ọ":{"ha":764,"x_min":39,"x_max":722,"o":"m 381 -15 q 206 27 283 -15 q 84 147 129 69 q 39 325 39 224 q 84 498 39 421 q 206 620 129 575 q 381 665 283 665 q 555 620 478 665 q 677 498 632 575 q 722 325 722 421 q 677 148 722 225 q 555 28 632 71 q 381 -15 478 -15 m 381 126 q 465 151 429 126 q 523 221 501 176 q 544 325 544 265 q 523 432 544 388 q 465 500 501 476 q 381 524 429 524 q 298 500 335 524 q 240 432 261 476 q 218 325 218 388 q 239 221 218 265 q 297 151 260 176 q 381 126 333 126 z "},"ò":{"ha":764,"x_min":39,"x_max":722,"o":"m 381 -15 q 206 27 283 -15 q 84 147 129 69 q 39 325 39 224 q 84 498 39 421 q 206 620 129 575 q 381 665 283 665 q 555 620 478 665 q 677 498 632 575 q 722 325 722 421 q 677 148 722 225 q 555 28 632 71 q 381 -15 478 -15 m 381 126 q 465 151 429 126 q 523 221 501 176 q 544 325 544 265 q 523 432 544 388 q 465 500 501 476 q 381 524 429 524 q 298 500 335 524 q 240 432 261 476 q 218 325 218 388 q 239 221 218 265 q 297 151 260 176 q 381 126 333 126 z "},"ỏ":{"ha":764,"x_min":39,"x_max":722,"o":"m 381 -15 q 206 27 283 -15 q 84 147 129 69 q 39 325 39 224 q 84 498 39 421 q 206 620 129 575 q 381 665 283 665 q 555 620 478 665 q 677 498 632 575 q 722 325 722 421 q 677 148 722 225 q 555 28 632 71 q 381 -15 478 -15 m 381 126 q 465 151 429 126 q 523 221 501 176 q 544 325 544 265 q 523 432 544 388 q 465 500 501 476 q 381 524 429 524 q 298 500 335 524 q 240 432 261 476 q 218 325 218 388 q 239 221 218 265 q 297 151 260 176 q 381 126 333 126 m 560 893 q 544 842 560 864 q 507 803 528 821 q 470 769 486 786 q 454 732 454 753 l 454 721 l 342 721 l 342 758 q 357 799 342 781 q 392 831 372 817 q 427 859 413 846 q 442 886 442 872 q 427 915 442 904 q 392 925 413 925 q 340 913 363 925 q 301 871 317 901 l 240 954 q 313 1004 269 988 q 400 1019 357 1021 q 483 1003 447 1019 q 540 958 519 986 q 560 893 560 931 z "},"ơ":{"ha":764,"x_min":39,"x_max":722,"o":"m 381 -15 q 206 27 283 -15 q 84 147 129 69 q 39 325 39 224 q 84 498 39 421 q 206 620 129 575 q 381 665 283 665 q 555 620 478 665 q 677 498 632 575 q 722 325 722 421 q 677 148 722 225 q 555 28 632 71 q 381 -15 478 -15 m 381 126 q 465 151 429 126 q 523 221 501 176 q 544 325 544 265 q 523 432 544 388 q 465 500 501 476 q 381 524 429 524 q 298 500 335 524 q 240 432 261 476 q 218 325 218 388 q 239 221 218 265 q 297 151 260 176 q 381 126 333 126 m 706 753 q 685 604 706 657 q 627 530 664 551 q 539 508 590 508 l 539 617 q 565 651 557 617 q 574 753 574 685 l 706 753 z "},"ớ":{"ha":764,"x_min":39,"x_max":722,"o":"m 381 -15 q 206 27 283 -15 q 84 147 129 69 q 39 325 39 224 q 84 498 39 421 q 206 620 129 575 q 381 665 283 665 q 555 620 478 665 q 677 498 632 575 q 722 325 722 421 q 677 148 722 225 q 555 28 632 71 q 381 -15 478 -15 m 381 126 q 465 151 429 126 q 523 221 501 176 q 544 325 544 265 q 523 432 544 388 q 465 500 501 476 q 381 524 429 524 q 298 500 335 524 q 240 432 261 476 q 218 325 218 388 q 239 221 218 265 q 297 151 260 176 q 381 126 333 126 m 706 753 q 685 604 706 657 q 627 530 664 551 q 539 508 590 508 l 539 617 q 565 651 557 617 q 574 753 574 685 l 706 753 z "},"ợ":{"ha":764,"x_min":39,"x_max":722,"o":"m 381 -15 q 206 27 283 -15 q 84 147 129 69 q 39 325 39 224 q 84 498 39 421 q 206 620 129 575 q 381 665 283 665 q 555 620 478 665 q 677 498 632 575 q 722 325 722 421 q 677 148 722 225 q 555 28 632 71 q 381 -15 478 -15 m 381 126 q 465 151 429 126 q 523 221 501 176 q 544 325 544 265 q 523 432 544 388 q 465 500 501 476 q 381 524 429 524 q 298 500 335 524 q 240 432 261 476 q 218 325 218 388 q 239 221 218 265 q 297 151 260 176 q 381 126 333 126 m 706 753 q 685 604 706 657 q 627 530 664 551 q 539 508 590 508 l 539 617 q 565 651 557 617 q 574 753 574 685 l 706 753 z "},"ờ":{"ha":764,"x_min":39,"x_max":722,"o":"m 381 -15 q 206 27 283 -15 q 84 147 129 69 q 39 325 39 224 q 84 498 39 421 q 206 620 129 575 q 381 665 283 665 q 555 620 478 665 q 677 498 632 575 q 722 325 722 421 q 677 148 722 225 q 555 28 632 71 q 381 -15 478 -15 m 381 126 q 465 151 429 126 q 523 221 501 176 q 544 325 544 265 q 523 432 544 388 q 465 500 501 476 q 381 524 429 524 q 298 500 335 524 q 240 432 261 476 q 218 325 218 388 q 239 221 218 265 q 297 151 260 176 q 381 126 333 126 m 706 753 q 685 604 706 657 q 627 530 664 551 q 539 508 590 508 l 539 617 q 565 651 557 617 q 574 753 574 685 l 706 753 z "},"ở":{"ha":764,"x_min":39,"x_max":722,"o":"m 381 -15 q 206 27 283 -15 q 84 147 129 69 q 39 325 39 224 q 84 498 39 421 q 206 620 129 575 q 381 665 283 665 q 555 620 478 665 q 677 498 632 575 q 722 325 722 421 q 677 148 722 225 q 555 28 632 71 q 381 -15 478 -15 m 381 126 q 465 151 429 126 q 523 221 501 176 q 544 325 544 265 q 523 432 544 388 q 465 500 501 476 q 381 524 429 524 q 298 500 335 524 q 240 432 261 476 q 218 325 218 388 q 239 221 218 265 q 297 151 260 176 q 381 126 333 126 m 706 753 q 685 604 706 657 q 627 530 664 551 q 539 508 590 508 l 539 617 q 565 651 557 617 q 574 753 574 685 l 706 753 m 560 893 q 544 842 560 864 q 507 803 528 821 q 470 769 486 786 q 454 732 454 753 l 454 721 l 342 721 l 342 758 q 357 799 342 781 q 392 831 372 817 q 427 859 413 846 q 442 886 442 872 q 427 915 442 904 q 392 925 413 925 q 340 913 363 925 q 301 871 317 901 l 240 954 q 313 1004 269 988 q 400 1019 357 1021 q 483 1003 447 1019 q 540 958 519 986 q 560 893 560 931 z "},"ỡ":{"ha":764,"x_min":39,"x_max":722,"o":"m 381 -15 q 206 27 283 -15 q 84 147 129 69 q 39 325 39 224 q 84 498 39 421 q 206 620 129 575 q 381 665 283 665 q 555 620 478 665 q 677 498 632 575 q 722 325 722 421 q 677 148 722 225 q 555 28 632 71 q 381 -15 478 -15 m 381 126 q 465 151 429 126 q 523 221 501 176 q 544 325 544 265 q 523 432 544 388 q 465 500 501 476 q 381 524 429 524 q 298 500 335 524 q 240 432 261 476 q 218 325 218 388 q 239 221 218 265 q 297 151 260 176 q 381 126 333 126 m 706 753 q 685 604 706 657 q 627 530 664 551 q 539 508 590 508 l 539 617 q 565 651 557 617 q 574 753 574 685 l 706 753 m 550 931 l 642 881 q 575 794 613 821 q 490 767 538 767 q 415 780 444 767 q 365 811 386 793 q 328 842 344 829 q 289 856 311 856 q 243 837 264 856 q 206 786 222 818 l 113 835 q 180 928 139 899 q 283 958 221 958 q 351 946 324 958 q 399 916 379 933 q 439 886 419 899 q 481 874 458 874 q 521 889 506 874 q 550 931 536 904 z "},"ő":{"ha":764,"x_min":39,"x_max":722,"o":"m 381 -15 q 206 27 283 -15 q 84 147 129 69 q 39 325 39 224 q 84 498 39 421 q 206 620 129 575 q 381 665 283 665 q 555 620 478 665 q 677 498 632 575 q 722 325 722 421 q 677 148 722 225 q 555 28 632 71 q 381 -15 478 -15 m 381 126 q 465 151 429 126 q 523 221 501 176 q 544 325 544 265 q 523 432 544 388 q 465 500 501 476 q 381 524 429 524 q 298 500 335 524 q 240 432 261 476 q 218 325 218 388 q 239 221 218 265 q 297 151 260 176 q 381 126 333 126 z "},"ȏ":{"ha":764,"x_min":39,"x_max":722,"o":"m 381 -15 q 206 27 283 -15 q 84 147 129 69 q 39 325 39 224 q 84 498 39 421 q 206 620 129 575 q 381 665 283 665 q 555 620 478 665 q 677 498 632 575 q 722 325 722 421 q 677 148 722 225 q 555 28 632 71 q 381 -15 478 -15 m 381 126 q 465 151 429 126 q 523 221 501 176 q 544 325 544 265 q 523 432 544 388 q 465 500 501 476 q 381 524 429 524 q 298 500 335 524 q 240 432 261 476 q 218 325 218 388 q 239 221 218 265 q 297 151 260 176 q 381 126 333 126 m 257 721 l 154 772 q 251 883 192 844 q 385 922 310 922 q 519 883 460 922 q 615 771 578 844 l 513 719 q 456 796 486 771 q 385 821 425 821 q 334 810 358 821 q 291 778 310 800 q 257 721 272 756 z "},"ō":{"ha":764,"x_min":39,"x_max":722,"o":"m 381 -15 q 206 27 283 -15 q 84 147 129 69 q 39 325 39 224 q 84 498 39 421 q 206 620 129 575 q 381 665 283 665 q 555 620 478 665 q 677 498 632 575 q 722 325 722 421 q 677 148 722 225 q 555 28 632 71 q 381 -15 478 -15 m 381 126 q 465 151 429 126 q 523 221 501 176 q 544 325 544 265 q 523 432 544 388 q 465 500 501 476 q 381 524 429 524 q 298 500 335 524 q 240 432 261 476 q 218 325 218 388 q 239 221 218 265 q 297 151 260 176 q 381 126 333 126 z "},"ṓ":{"ha":764,"x_min":39,"x_max":722,"o":"m 381 -15 q 206 27 283 -15 q 84 147 129 69 q 39 325 39 224 q 84 498 39 421 q 206 620 129 575 q 381 665 283 665 q 555 620 478 665 q 677 498 632 575 q 722 325 722 421 q 677 148 722 225 q 555 28 632 71 q 381 -15 478 -15 m 381 126 q 465 151 429 126 q 523 221 501 176 q 544 325 544 265 q 523 432 544 388 q 465 500 501 476 q 381 524 429 524 q 298 500 335 524 q 240 432 261 476 q 218 325 218 388 q 239 221 218 265 q 297 151 260 176 q 381 126 333 126 z "},"ṑ":{"ha":764,"x_min":39,"x_max":722,"o":"m 381 -15 q 206 27 283 -15 q 84 147 129 69 q 39 325 39 224 q 84 498 39 421 q 206 620 129 575 q 381 665 283 665 q 555 620 478 665 q 677 498 632 575 q 722 325 722 421 q 677 148 722 225 q 555 28 632 71 q 381 -15 478 -15 m 381 126 q 465 151 429 126 q 523 221 501 176 q 544 325 544 265 q 523 432 544 388 q 465 500 501 476 q 381 524 429 524 q 298 500 335 524 q 240 432 261 476 q 218 325 218 388 q 239 221 218 265 q 297 151 260 176 q 381 126 333 126 z "},"ǫ":{"ha":764,"x_min":39,"x_max":722,"o":"m 381 -15 q 206 27 283 -15 q 84 147 129 69 q 39 325 39 224 q 84 498 39 421 q 206 620 129 575 q 381 665 283 665 q 555 620 478 665 q 677 498 632 575 q 722 325 722 421 q 677 148 722 225 q 555 28 632 71 q 381 -15 478 -15 m 381 126 q 465 151 429 126 q 523 221 501 176 q 544 325 544 265 q 523 432 544 388 q 465 500 501 476 q 381 524 429 524 q 298 500 335 524 q 240 432 261 476 q 218 325 218 388 q 239 221 218 265 q 297 151 260 176 q 381 126 333 126 m 565 -156 l 494 -293 q 377 -249 422 -275 q 310 -193 332 -224 q 289 -131 289 -162 q 314 -59 289 -96 q 387 14 339 -22 q 501 83 435 50 l 569 40 q 514 -7 538 15 q 478 -48 490 -29 q 465 -83 465 -67 q 491 -126 465 -108 q 565 -156 517 -143 z "},"ø":{"ha":764,"x_min":39,"x_max":722,"o":"m 213 -96 l 86 -31 l 539 728 l 668 660 l 213 -96 m 381 -15 q 206 27 283 -15 q 84 147 129 69 q 39 325 39 224 q 84 498 39 421 q 206 620 129 575 q 381 665 283 665 q 555 620 478 665 q 677 498 632 575 q 722 325 722 421 q 677 148 722 225 q 555 28 632 71 q 381 -15 478 -15 m 381 126 q 465 151 429 126 q 523 221 501 176 q 544 325 544 265 q 523 432 544 388 q 465 500 501 476 q 381 524 429 524 q 298 500 335 524 q 240 432 261 476 q 218 325 218 388 q 239 221 218 265 q 297 151 260 176 q 381 126 333 126 z "},"ǿ":{"ha":764,"x_min":39,"x_max":722,"o":"m 213 -96 l 86 -31 l 539 728 l 668 660 l 213 -96 m 381 -15 q 206 27 283 -15 q 84 147 129 69 q 39 325 39 224 q 84 498 39 421 q 206 620 129 575 q 381 665 283 665 q 555 620 478 665 q 677 498 632 575 q 722 325 722 421 q 677 148 722 225 q 555 28 632 71 q 381 -15 478 -15 m 381 126 q 465 151 429 126 q 523 221 501 176 q 544 325 544 265 q 523 432 544 388 q 465 500 501 476 q 381 524 429 524 q 298 500 335 524 q 240 432 261 476 q 218 325 218 388 q 239 221 218 265 q 297 151 260 176 q 381 126 333 126 z "},"õ":{"ha":764,"x_min":39,"x_max":722,"o":"m 381 -15 q 206 27 283 -15 q 84 147 129 69 q 39 325 39 224 q 84 498 39 421 q 206 620 129 575 q 381 665 283 665 q 555 620 478 665 q 677 498 632 575 q 722 325 722 421 q 677 148 722 225 q 555 28 632 71 q 381 -15 478 -15 m 381 126 q 465 151 429 126 q 523 221 501 176 q 544 325 544 265 q 523 432 544 388 q 465 500 501 476 q 381 524 429 524 q 298 500 335 524 q 240 432 261 476 q 218 325 218 388 q 239 221 218 265 q 297 151 260 176 q 381 126 333 126 m 550 931 l 642 881 q 575 794 613 821 q 490 767 538 767 q 415 780 444 767 q 365 811 386 793 q 328 842 344 829 q 289 856 311 856 q 243 837 264 856 q 206 786 222 818 l 113 835 q 180 928 139 899 q 283 958 221 958 q 351 946 324 958 q 399 916 379 933 q 439 886 419 899 q 481 874 458 874 q 521 889 506 874 q 550 931 536 904 z "},"ṍ":{"ha":764,"x_min":39,"x_max":722,"o":"m 381 -15 q 206 27 283 -15 q 84 147 129 69 q 39 325 39 224 q 84 498 39 421 q 206 620 129 575 q 381 665 283 665 q 555 620 478 665 q 677 498 632 575 q 722 325 722 421 q 677 148 722 225 q 555 28 632 71 q 381 -15 478 -15 m 381 126 q 465 151 429 126 q 523 221 501 176 q 544 325 544 265 q 523 432 544 388 q 465 500 501 476 q 381 524 429 524 q 298 500 335 524 q 240 432 261 476 q 218 325 218 388 q 239 221 218 265 q 297 151 260 176 q 381 126 333 126 m 550 931 l 642 881 q 575 794 613 821 q 490 767 538 767 q 415 780 444 767 q 365 811 386 793 q 328 842 344 829 q 289 856 311 856 q 243 837 264 856 q 206 786 222 818 l 113 835 q 180 928 139 899 q 283 958 221 958 q 351 946 324 958 q 399 916 379 933 q 439 886 419 899 q 481 874 458 874 q 521 889 506 874 q 550 931 536 904 z "},"ṏ":{"ha":764,"x_min":39,"x_max":722,"o":"m 381 -15 q 206 27 283 -15 q 84 147 129 69 q 39 325 39 224 q 84 498 39 421 q 206 620 129 575 q 381 665 283 665 q 555 620 478 665 q 677 498 632 575 q 722 325 722 421 q 677 148 722 225 q 555 28 632 71 q 381 -15 478 -15 m 381 126 q 465 151 429 126 q 523 221 501 176 q 544 325 544 265 q 523 432 544 388 q 465 500 501 476 q 381 524 429 524 q 298 500 335 524 q 240 432 261 476 q 218 325 218 388 q 239 221 218 265 q 297 151 260 176 q 381 126 333 126 m 550 931 l 642 881 q 575 794 613 821 q 490 767 538 767 q 415 780 444 767 q 365 811 386 793 q 328 842 344 829 q 289 856 311 856 q 243 837 264 856 q 206 786 222 818 l 113 835 q 180 928 139 899 q 283 958 221 958 q 351 946 324 958 q 399 916 379 933 q 439 886 419 899 q 481 874 458 874 q 521 889 506 874 q 550 931 536 904 z "},"ȭ":{"ha":764,"x_min":39,"x_max":722,"o":"m 381 -15 q 206 27 283 -15 q 84 147 129 69 q 39 325 39 224 q 84 498 39 421 q 206 620 129 575 q 381 665 283 665 q 555 620 478 665 q 677 498 632 575 q 722 325 722 421 q 677 148 722 225 q 555 28 632 71 q 381 -15 478 -15 m 381 126 q 465 151 429 126 q 523 221 501 176 q 544 325 544 265 q 523 432 544 388 q 465 500 501 476 q 381 524 429 524 q 298 500 335 524 q 240 432 261 476 q 218 325 218 388 q 239 221 218 265 q 297 151 260 176 q 381 126 333 126 m 550 931 l 642 881 q 575 794 613 821 q 490 767 538 767 q 415 780 444 767 q 365 811 386 793 q 328 842 344 829 q 289 856 311 856 q 243 837 264 856 q 206 786 222 818 l 113 835 q 180 928 139 899 q 283 958 221 958 q 351 946 324 958 q 399 916 379 933 q 439 886 419 899 q 481 874 458 874 q 521 889 506 874 q 550 931 536 904 z "},"œ":{"ha":764,"x_min":11,"x_max":757,"o":"m 550 -17 q 467 -6 507 -17 q 392 36 426 6 q 323 -6 358 6 q 247 -17 288 -17 q 161 0 203 -17 q 85 56 119 17 q 31 160 51 94 q 11 324 11 225 q 45 519 11 444 q 135 627 79 593 q 257 661 192 661 q 333 648 300 661 q 393 606 367 635 q 453 646 417 631 q 529 661 490 661 q 651 629 600 661 q 729 537 701 597 q 757 390 757 476 l 757 288 l 438 288 q 456 176 440 215 q 501 124 472 138 q 567 110 529 110 q 630 119 600 110 q 685 158 660 129 l 746 67 q 658 3 704 22 q 550 -17 613 -17 m 260 115 q 284 119 274 115 q 302 128 294 122 q 314 142 310 135 q 318 157 318 149 q 317 172 318 167 q 314 188 315 176 q 308 226 311 208 q 302 269 304 244 q 300 335 300 294 q 306 414 300 383 q 316 462 311 444 q 321 485 321 479 q 317 498 321 490 q 304 512 313 506 q 284 522 296 518 q 257 526 272 526 q 208 507 231 526 q 173 446 186 488 q 160 340 160 404 q 168 222 160 272 q 199 143 176 171 q 260 115 221 115 m 440 403 l 633 403 q 623 470 632 443 q 594 512 614 497 q 540 526 575 526 q 488 510 510 526 q 455 465 467 493 q 440 403 443 436 z "},"p":{"ha":764,"x_min":65,"x_max":729,"o":"m 67 -232 l 65 651 l 242 651 l 242 569 q 297 624 265 603 q 367 655 329 644 q 447 665 406 665 q 556 643 506 665 q 646 578 607 621 q 707 471 685 535 q 729 322 729 407 q 706 172 729 236 q 643 66 683 108 q 551 3 603 24 q 444 -17 500 -17 q 365 -9 403 -17 q 297 13 328 -1 q 247 50 267 28 l 247 -232 l 67 -232 m 394 119 q 458 131 429 119 q 509 165 488 142 q 542 231 531 189 q 553 332 553 272 q 535 436 553 393 q 483 503 517 479 q 403 526 449 526 q 336 516 365 528 q 287 478 307 504 q 256 413 267 453 q 246 318 246 372 q 253 244 247 276 q 272 189 260 213 q 301 150 283 165 q 342 127 318 135 q 394 119 365 119 z "},"þ":{"ha":764,"x_min":65,"x_max":729,"o":"m 65 933 l 240 933 l 253 933 l 253 919 q 244 901 246 911 q 242 868 242 892 l 242 569 q 297 624 265 603 q 367 655 329 644 q 447 665 406 665 q 556 643 506 665 q 646 578 607 621 q 707 471 685 535 q 729 322 729 407 q 706 172 729 236 q 643 66 683 108 q 551 3 603 24 q 444 -17 500 -17 q 365 -9 403 -17 q 297 13 328 -1 q 247 50 267 28 l 247 -232 l 67 -232 l 65 933 m 394 119 q 458 131 429 119 q 509 165 488 142 q 542 231 531 189 q 553 332 553 272 q 535 436 553 393 q 483 503 517 479 q 403 526 449 526 q 336 516 365 528 q 287 478 307 504 q 256 413 267 453 q 246 318 246 372 q 253 244 247 276 q 272 189 260 213 q 301 150 283 165 q 342 127 318 135 q 394 119 365 119 l 394 119 z "},"q":{"ha":764,"x_min":36,"x_max":700,"o":"m 521 -232 l 521 51 q 479 15 506 29 q 419 -8 453 0 q 350 -15 386 -15 q 219 8 278 -15 q 120 76 161 32 q 58 183 79 121 q 36 324 36 246 q 58 465 36 401 q 119 572 79 528 q 218 641 160 617 q 350 665 276 665 q 408 660 382 665 q 456 646 433 656 q 495 622 478 636 q 526 590 513 608 l 526 650 l 700 650 l 700 -232 l 521 -232 m 378 119 q 435 131 408 119 q 481 167 461 143 q 513 231 501 192 q 524 328 524 271 q 513 424 524 385 q 481 485 501 463 q 435 519 461 508 q 378 529 408 529 q 313 519 343 529 q 260 485 282 508 q 226 423 238 461 q 214 329 214 385 q 225 234 214 274 q 258 169 236 194 q 310 132 281 144 q 378 119 340 119 z "},"r":{"ha":764,"x_min":125,"x_max":715,"o":"m 125 650 l 310 650 l 308 471 l 288 481 q 314 556 293 522 q 367 614 335 589 q 437 652 399 639 q 515 665 475 665 q 626 647 578 665 q 715 589 675 628 l 639 442 l 635 431 l 622 436 q 614 459 618 447 q 593 486 610 471 q 544 511 571 501 q 488 521 518 521 q 419 510 451 521 q 361 477 386 500 q 322 419 336 454 q 307 336 307 385 l 307 0 l 125 0 l 125 650 z "}}}
